# Blender v2.79 (sub 0) OBJ File: ''
# www.blender.org
mtllib jerrycan.mtl
o cube
v -0.117188 0.486136 -0.308209
v -0.117188 0.001445 -0.308209
v -0.117187 0.486136 0.238666
v -0.117187 0.001445 0.238666
v 0.117188 0.486136 0.238666
v 0.117188 0.001445 0.238666
v 0.117187 0.486136 -0.308209
v 0.117187 0.001445 -0.308209
v -0.117188 0.627566 -0.308209
v -0.117188 0.486136 -0.308209
v -0.117187 0.627566 0.097237
v -0.117187 0.486136 0.097237
v 0.117188 0.627566 0.097237
v 0.117188 0.486136 0.097237
v 0.117187 0.627566 -0.308209
v 0.117187 0.486136 -0.308209
v -0.117168 0.627566 0.097237
v -0.117168 0.552591 0.022263
v -0.117168 0.486137 0.238666
v -0.117168 0.411162 0.163692
v 0.117168 0.486137 0.238666
v 0.117168 0.411162 0.163692
v 0.117168 0.627566 0.097237
v 0.117168 0.552591 0.022263
v -0.117188 0.710430 -0.308209
v -0.117188 0.627566 -0.308209
v -0.117188 0.710430 -0.230084
v -0.117188 0.627566 -0.230084
v 0.117187 0.710430 -0.230084
v 0.117187 0.627566 -0.230084
v 0.117187 0.710430 -0.308209
v 0.117187 0.627566 -0.308209
v -0.078125 0.641507 0.138539
v -0.078125 0.613885 0.110917
v -0.078125 0.531021 0.249024
v -0.078125 0.503400 0.221403
v 0.078125 0.531021 0.249024
v 0.078125 0.503400 0.221403
v 0.078125 0.641507 0.138539
v 0.078125 0.613885 0.110917
v -0.019531 0.710039 -0.230084
v -0.019531 0.670976 -0.230084
v -0.019531 0.710039 0.053119
v -0.019531 0.670976 0.053119
v 0.019531 0.710039 0.053119
v 0.019531 0.670976 0.053119
v 0.019531 0.710039 -0.230084
v 0.019531 0.670976 -0.230084
v -0.019531 0.682418 0.025498
v -0.019531 0.643355 0.064560
v -0.019531 0.710039 0.053119
v -0.019531 0.670976 0.092182
v 0.019531 0.710039 0.053119
v 0.019531 0.670976 0.092182
v 0.019531 0.682418 0.025498
v 0.019531 0.643355 0.064560
v -0.097656 0.710039 -0.230084
v -0.097656 0.670976 -0.230084
v -0.097656 0.710039 0.053119
v -0.097656 0.670976 0.053119
v -0.058594 0.710039 0.053119
v -0.058594 0.670976 0.053119
v -0.058594 0.710039 -0.230084
v -0.058594 0.670976 -0.230084
v -0.097656 0.670976 0.053119
v -0.097656 0.628008 0.053119
v -0.097656 0.670976 0.092182
v -0.097656 0.628008 0.092182
v 0.097656 0.670976 0.092182
v 0.097656 0.628008 0.092182
v 0.097656 0.670976 0.053119
v 0.097656 0.628008 0.053119
v -0.097656 0.682418 0.025498
v -0.097656 0.643355 0.064560
v -0.097656 0.710039 0.053119
v -0.097656 0.670976 0.092182
v -0.058594 0.710039 0.053119
v -0.058594 0.670976 0.092182
v -0.058594 0.682418 0.025498
v -0.058594 0.643355 0.064560
v 0.058594 0.710039 -0.230084
v 0.058594 0.670976 -0.230084
v 0.058594 0.710039 0.053119
v 0.058594 0.670976 0.053119
v 0.097656 0.710039 0.053119
v 0.097656 0.670976 0.053119
v 0.097656 0.710039 -0.230084
v 0.097656 0.670976 -0.230084
v 0.058594 0.682418 0.025498
v 0.058594 0.643355 0.064560
v 0.058594 0.710039 0.053119
v 0.058594 0.670976 0.092182
v 0.097656 0.710039 0.053119
v 0.097656 0.670976 0.092182
v 0.097656 0.682418 0.025498
v 0.097656 0.643355 0.064560
vt 0.000000 0.765625
vt 0.000000 0.578125
vt 0.218750 0.765625
vt 0.218750 0.578125
vt 0.312500 0.765625
vt 0.312500 0.578125
vt 0.531250 0.765625
vt 0.531250 0.578125
vt 0.312500 0.984375
vt 0.218750 0.984375
vt 0.406250 0.984375
vt 0.406250 0.765625
vt 0.312500 0.984375
vt 0.312500 0.765625
vt 0.625000 0.765625
vt 0.625000 0.578125
vt 0.406250 0.843750
vt 0.406250 0.796875
vt 0.562500 0.843750
vt 0.562500 0.796875
vt 0.656250 0.843750
vt 0.656250 0.796875
vt 0.812500 0.843750
vt 0.812500 0.796875
vt 0.656250 1.000000
vt 0.562500 1.000000
vt 0.750000 1.000000
vt 0.750000 0.843750
vt 0.656250 1.000000
vt 0.656250 0.843750
vt 0.906250 0.843750
vt 0.906250 0.796875
vt 0.000000 0.500000
vt 0.000000 0.468750
vt 0.078125 0.500000
vt 0.078125 0.468750
vt 0.171875 0.500000
vt 0.171875 0.468750
vt 0.250000 0.500000
vt 0.250000 0.468750
vt 0.171875 0.578125
vt 0.078125 0.578125
vt 0.265625 0.578125
vt 0.265625 0.500000
vt 0.171875 0.578125
vt 0.171875 0.500000
vt 0.343750 0.500000
vt 0.343750 0.468750
vt 0.000000 0.437500
vt 0.000000 0.406250
vt 0.031250 0.437500
vt 0.031250 0.406250
vt 0.125000 0.437500
vt 0.125000 0.406250
vt 0.156250 0.437500
vt 0.156250 0.406250
vt 0.125000 0.468750
vt 0.031250 0.468750
vt 0.218750 0.468750
vt 0.218750 0.437500
vt 0.125000 0.468750
vt 0.125000 0.437500
vt 0.250000 0.437500
vt 0.250000 0.406250
vt 0.515625 0.515625
vt 0.515625 0.500000
vt 0.578125 0.515625
vt 0.578125 0.500000
vt 0.718750 0.515625
vt 0.718750 0.500000
vt 0.781250 0.515625
vt 0.781250 0.500000
vt 0.640625 0.500000
vt 0.640625 0.562500
vt 0.578125 0.500000
vt 0.578125 0.562500
vt 0.703125 0.562500
vt 0.703125 0.500000
vt 0.640625 0.562500
vt 0.640625 0.500000
vt 0.593750 0.515625
vt 0.593750 0.500000
vt 0.656250 0.515625
vt 0.656250 0.500000
vt 0.656250 0.515625
vt 0.656250 0.500000
vt 0.234375 0.468750
vt 0.234375 0.453125
vt 0.343750 0.468750
vt 0.343750 0.453125
vt 0.359375 0.468750
vt 0.359375 0.453125
vt 0.468750 0.468750
vt 0.468750 0.453125
vt 0.359375 0.578125
vt 0.343750 0.578125
vt 0.375000 0.578125
vt 0.375000 0.468750
vt 0.359375 0.578125
vt 0.359375 0.468750
vt 0.484375 0.468750
vt 0.484375 0.453125
vt 0.000000 0.937500
vt 0.000000 0.921875
vt 0.015625 0.937500
vt 0.015625 0.921875
vt 0.031250 0.937500
vt 0.031250 0.921875
vt 0.046875 0.937500
vt 0.046875 0.921875
vt 0.031250 0.953125
vt 0.015625 0.953125
vt 0.046875 0.953125
vt 0.046875 0.937500
vt 0.031250 0.953125
vt 0.031250 0.937500
vt 0.062500 0.937500
vt 0.062500 0.921875
vt 0.375000 0.453125
vt 0.375000 0.437500
vt 0.484375 0.453125
vt 0.484375 0.437500
vt 0.500000 0.453125
vt 0.500000 0.437500
vt 0.609375 0.453125
vt 0.609375 0.437500
vt 0.500000 0.562500
vt 0.484375 0.562500
vt 0.515625 0.562500
vt 0.515625 0.453125
vt 0.500000 0.562500
vt 0.500000 0.453125
vt 0.625000 0.453125
vt 0.625000 0.437500
vt 0.000000 0.968750
vt 0.000000 0.953125
vt 0.015625 0.968750
vt 0.015625 0.953125
vt 0.093750 0.968750
vt 0.093750 0.953125
vt 0.109375 0.968750
vt 0.109375 0.953125
vt 0.093750 0.984375
vt 0.015625 0.984375
vt 0.171875 0.984375
vt 0.171875 0.968750
vt 0.093750 0.984375
vt 0.093750 0.968750
vt 0.187500 0.968750
vt 0.187500 0.953125
vt 0.046875 0.921875
vt 0.046875 0.906250
vt 0.062500 0.921875
vt 0.062500 0.906250
vt 0.078125 0.921875
vt 0.078125 0.906250
vt 0.093750 0.921875
vt 0.093750 0.906250
vt 0.078125 0.937500
vt 0.062500 0.937500
vt 0.093750 0.937500
vt 0.093750 0.921875
vt 0.078125 0.937500
vt 0.078125 0.921875
vt 0.109375 0.921875
vt 0.109375 0.906250
vt 0.515625 0.578125
vt 0.515625 0.562500
vt 0.625000 0.578125
vt 0.625000 0.562500
vt 0.640625 0.578125
vt 0.640625 0.562500
vt 0.750000 0.578125
vt 0.750000 0.562500
vt 0.640625 0.687500
vt 0.625000 0.687500
vt 0.656250 0.687500
vt 0.656250 0.578125
vt 0.640625 0.687500
vt 0.640625 0.578125
vt 0.765625 0.578125
vt 0.765625 0.562500
vt 0.000000 0.906250
vt 0.000000 0.890625
vt 0.015625 0.906250
vt 0.015625 0.890625
vt 0.031250 0.906250
vt 0.031250 0.890625
vt 0.046875 0.906250
vt 0.046875 0.890625
vt 0.031250 0.921875
vt 0.015625 0.921875
vt 0.046875 0.921875
vt 0.046875 0.906250
vt 0.031250 0.921875
vt 0.031250 0.906250
vt 0.062500 0.906250
vt 0.062500 0.890625
vn -1.0000 0.0000 0.0000
vn 1.0000 0.0000 -0.0000
vn -0.0000 1.0000 -0.0000
vn 0.0000 -1.0000 0.0000
vn -0.0000 -0.0000 -1.0000
vn 0.0000 0.0000 1.0000
vn 0.0000 0.7071 0.7071
vn -0.0000 -0.7071 -0.7071
vn -0.0000 0.7071 -0.7071
vn 0.0000 -0.7071 0.7071
usemtl m_0
s 1
f 1/1/1 2/2/1 3/3/1
f 2/2/1 4/4/1 3/3/1
f 5/5/2 6/6/2 7/7/2
f 6/6/2 8/8/2 7/7/2
f 5/5/3 7/9/3 3/3/3
f 7/9/3 1/10/3 3/3/3
f 8/11/4 6/12/4 2/13/4
f 6/12/4 4/14/4 2/13/4
f 7/7/5 8/8/5 1/15/5
f 8/8/5 2/16/5 1/15/5
f 3/3/6 4/4/6 5/5/6
f 4/4/6 6/6/6 5/5/6
f 9/17/1 10/18/1 11/19/1
f 10/18/1 12/20/1 11/19/1
f 13/21/2 14/22/2 15/23/2
f 14/22/2 16/24/2 15/23/2
f 13/21/3 15/25/3 11/19/3
f 15/25/3 9/26/3 11/19/3
f 16/27/4 14/28/4 10/29/4
f 14/28/4 12/30/4 10/29/4
f 15/23/5 16/24/5 9/31/5
f 16/24/5 10/32/5 9/31/5
f 11/19/6 12/20/6 13/21/6
f 12/20/6 14/22/6 13/21/6
f 17/33/1 18/34/1 19/35/1
f 18/34/1 20/36/1 19/35/1
f 21/37/2 22/38/2 23/39/2
f 22/38/2 24/40/2 23/39/2
f 21/37/7 23/41/7 19/35/7
f 23/41/7 17/42/7 19/35/7
f 24/43/8 22/44/8 18/45/8
f 22/44/8 20/46/8 18/45/8
f 23/39/9 24/40/9 17/47/9
f 24/40/9 18/48/9 17/47/9
f 19/35/10 20/36/10 21/37/10
f 20/36/10 22/38/10 21/37/10
f 25/49/1 26/50/1 27/51/1
f 26/50/1 28/52/1 27/51/1
f 29/53/2 30/54/2 31/55/2
f 30/54/2 32/56/2 31/55/2
f 29/53/3 31/57/3 27/51/3
f 31/57/3 25/58/3 27/51/3
f 32/59/4 30/60/4 26/61/4
f 30/60/4 28/62/4 26/61/4
f 31/55/5 32/56/5 25/63/5
f 32/56/5 26/64/5 25/63/5
f 27/51/6 28/52/6 29/53/6
f 28/52/6 30/54/6 29/53/6
f 33/65/1 34/66/1 35/67/1
f 34/66/1 36/68/1 35/67/1
f 37/69/2 38/70/2 39/71/2
f 38/70/2 40/72/2 39/71/2
f 37/73/7 39/74/7 35/75/7
f 39/74/7 33/76/7 35/75/7
f 40/77/8 38/78/8 34/79/8
f 38/78/8 36/80/8 34/79/8
f 39/81/9 40/82/9 33/83/9
f 40/82/9 34/84/9 33/83/9
f 35/85/10 36/86/10 37/69/10
f 36/86/10 38/70/10 37/69/10
f 41/87/1 42/88/1 43/89/1
f 42/88/1 44/90/1 43/89/1
f 45/91/2 46/92/2 47/93/2
f 46/92/2 48/94/2 47/93/2
f 45/91/3 47/95/3 43/89/3
f 47/95/3 41/96/3 43/89/3
f 48/97/4 46/98/4 42/99/4
f 46/98/4 44/100/4 42/99/4
f 47/93/5 48/94/5 41/101/5
f 48/94/5 42/102/5 41/101/5
f 43/89/6 44/90/6 45/91/6
f 44/90/6 46/92/6 45/91/6
f 49/103/1 50/104/1 51/105/1
f 50/104/1 52/106/1 51/105/1
f 53/107/2 54/108/2 55/109/2
f 54/108/2 56/110/2 55/109/2
f 53/107/9 55/111/9 51/105/9
f 55/111/9 49/112/9 51/105/9
f 56/113/10 54/114/10 50/115/10
f 54/114/10 52/116/10 50/115/10
f 55/109/8 56/110/8 49/117/8
f 56/110/8 50/118/8 49/117/8
f 51/105/7 52/106/7 53/107/7
f 52/106/7 54/108/7 53/107/7
f 57/119/1 58/120/1 59/121/1
f 58/120/1 60/122/1 59/121/1
f 61/123/2 62/124/2 63/125/2
f 62/124/2 64/126/2 63/125/2
f 61/123/3 63/127/3 59/121/3
f 63/127/3 57/128/3 59/121/3
f 64/129/4 62/130/4 58/131/4
f 62/130/4 60/132/4 58/131/4
f 63/125/5 64/126/5 57/133/5
f 64/126/5 58/134/5 57/133/5
f 59/121/6 60/122/6 61/123/6
f 60/122/6 62/124/6 61/123/6
f 65/135/1 66/136/1 67/137/1
f 66/136/1 68/138/1 67/137/1
f 69/139/2 70/140/2 71/141/2
f 70/140/2 72/142/2 71/141/2
f 69/139/3 71/143/3 67/137/3
f 71/143/3 65/144/3 67/137/3
f 72/145/4 70/146/4 66/147/4
f 70/146/4 68/148/4 66/147/4
f 71/141/5 72/142/5 65/149/5
f 72/142/5 66/150/5 65/149/5
f 67/137/6 68/138/6 69/139/6
f 68/138/6 70/140/6 69/139/6
f 73/151/1 74/152/1 75/153/1
f 74/152/1 76/154/1 75/153/1
f 77/155/2 78/156/2 79/157/2
f 78/156/2 80/158/2 79/157/2
f 77/155/9 79/159/9 75/153/9
f 79/159/9 73/160/9 75/153/9
f 80/161/10 78/162/10 74/163/10
f 78/162/10 76/164/10 74/163/10
f 79/157/8 80/158/8 73/165/8
f 80/158/8 74/166/8 73/165/8
f 75/153/7 76/154/7 77/155/7
f 76/154/7 78/156/7 77/155/7
f 81/167/1 82/168/1 83/169/1
f 82/168/1 84/170/1 83/169/1
f 85/171/2 86/172/2 87/173/2
f 86/172/2 88/174/2 87/173/2
f 85/171/3 87/175/3 83/169/3
f 87/175/3 81/176/3 83/169/3
f 88/177/4 86/178/4 82/179/4
f 86/178/4 84/180/4 82/179/4
f 87/173/5 88/174/5 81/181/5
f 88/174/5 82/182/5 81/181/5
f 83/169/6 84/170/6 85/171/6
f 84/170/6 86/172/6 85/171/6
f 89/183/1 90/184/1 91/185/1
f 90/184/1 92/186/1 91/185/1
f 93/187/2 94/188/2 95/189/2
f 94/188/2 96/190/2 95/189/2
f 93/187/9 95/191/9 91/185/9
f 95/191/9 89/192/9 91/185/9
f 96/193/10 94/194/10 90/195/10
f 94/194/10 92/196/10 90/195/10
f 95/189/8 96/190/8 89/197/8
f 96/190/8 90/198/8 89/197/8
f 91/185/7 92/186/7 93/187/7
f 92/186/7 94/188/7 93/187/7
