# Made in Blockbench 4.8.3
mtllib seatbench.mtl

o cube
v -0.25 0 0.25
v -0.375 0 0.25
v -0.375 0.625 0.25
v -0.25 0.625 0.25
v -0.25 0 0.375
v -0.25 0.625 0.375
v -0.375 0 0.375
v -0.375 0.625 0.375
vt 0.0703125 0.40625
vt 0.0859375 0.40625
vt 0.0859375 0.484375
vt 0.0703125 0.484375
vt 0.09375 0.40625
vt 0.109375 0.40625
vt 0.109375 0.484375
vt 0.09375 0.484375
vt 0.1171875 0.40625
vt 0.1328125 0.40625
vt 0.1328125 0.484375
vt 0.1171875 0.484375
vt 0.1875 0.40625
vt 0.203125 0.40625
vt 0.203125 0.484375
vt 0.1875 0.484375
vt 0.5859375 0.8515625
vt 0.5703125 0.8515625
vt 0.5703125 0.8359375
vt 0.5859375 0.8359375
vt 0.2734375 0.4140625
vt 0.2578125 0.4140625
vt 0.2578125 0.4296875
vt 0.2734375 0.4296875
vn 0 0 -1
vn 1 0 0
vn 0 0 1
vn -1 0 0
vn 0 1 0
vn 0 -1 0
usemtl m_e7ed797d-1aca-2163-e0b3-285917b9c00c
f 1/1/1 2/2/1 3/3/1 4/4/1
f 5/5/2 1/6/2 4/7/2 6/8/2
f 7/9/3 5/10/3 6/11/3 8/12/3
f 2/13/4 7/14/4 8/15/4 3/16/4
f 8/17/5 6/18/5 4/19/5 3/20/5
f 2/21/6 1/22/6 5/23/6 7/24/6
o cube
v -0.25 0 -0.375
v -0.375 0 -0.375
v -0.375 0.625 -0.375
v -0.25 0.625 -0.375
v -0.25 0 -0.25
v -0.25 0.625 -0.25
v -0.375 0 -0.25
v -0.375 0.625 -0.25
vt 0.2109375 0.40625
vt 0.2265625 0.40625
vt 0.2265625 0.484375
vt 0.2109375 0.484375
vt 0.234375 0.40625
vt 0.25 0.40625
vt 0.25 0.484375
vt 0.234375 0.484375
vt 0.46875 0.40625
vt 0.484375 0.40625
vt 0.484375 0.484375
vt 0.46875 0.484375
vt 0.4921875 0.40625
vt 0.5078125 0.40625
vt 0.5078125 0.484375
vt 0.4921875 0.484375
vt 0.5859375 0.734375
vt 0.5703125 0.734375
vt 0.5703125 0.71875
vt 0.5859375 0.71875
vt 0.296875 0.4140625
vt 0.28125 0.4140625
vt 0.28125 0.4296875
vt 0.296875 0.4296875
vn 0 0 -1
vn 1 0 0
vn 0 0 1
vn -1 0 0
vn 0 1 0
vn 0 -1 0
usemtl m_e7ed797d-1aca-2163-e0b3-285917b9c00c
f 9/25/7 10/26/7 11/27/7 12/28/7
f 13/29/8 9/30/8 12/31/8 14/32/8
f 15/33/9 13/34/9 14/35/9 16/36/9
f 10/37/10 15/38/10 16/39/10 11/40/10
f 16/41/11 14/42/11 12/43/11 11/44/11
f 10/45/12 9/46/12 13/47/12 15/48/12
o cube
v 1.375 0 0.25
v 1.25 0 0.25
v 1.25 0.625 0.25
v 1.375 0.625 0.25
v 1.375 0 0.375
v 1.375 0.625 0.375
v 1.25 0 0.375
v 1.25 0.625 0.375
vt 0.515625 0.40625
vt 0.53125 0.40625
vt 0.53125 0.484375
vt 0.515625 0.484375
vt 0.3046875 0.3828125
vt 0.3203125 0.3828125
vt 0.3203125 0.4609375
vt 0.3046875 0.4609375
vt 0.328125 0.3828125
vt 0.34375 0.3828125
vt 0.34375 0.4609375
vt 0.328125 0.4609375
vt 0.3515625 0.3828125
vt 0.3671875 0.3828125
vt 0.3671875 0.4609375
vt 0.3515625 0.4609375
vt 0.4375 0.4296875
vt 0.421875 0.4296875
vt 0.421875 0.4140625
vt 0.4375 0.4140625
vt 0.4609375 0.4140625
vt 0.4453125 0.4140625
vt 0.4453125 0.4296875
vt 0.4609375 0.4296875
vn 0 0 -1
vn 1 0 0
vn 0 0 1
vn -1 0 0
vn 0 1 0
vn 0 -1 0
usemtl m_e7ed797d-1aca-2163-e0b3-285917b9c00c
f 17/49/13 18/50/13 19/51/13 20/52/13
f 21/53/14 17/54/14 20/55/14 22/56/14
f 23/57/15 21/58/15 22/59/15 24/60/15
f 18/61/16 23/62/16 24/63/16 19/64/16
f 24/65/17 22/66/17 20/67/17 19/68/17
f 18/69/18 17/70/18 21/71/18 23/72/18
o cube
v 1.375 0 -0.375
v 1.25 0 -0.375
v 1.25 0.625 -0.375
v 1.375 0.625 -0.375
v 1.375 0 -0.25
v 1.375 0.625 -0.25
v 1.25 0 -0.25
v 1.25 0.625 -0.25
vt 0.375 0.3828125
vt 0.390625 0.3828125
vt 0.390625 0.4609375
vt 0.375 0.4609375
vt 0.5390625 0.546875
vt 0.5546875 0.546875
vt 0.5546875 0.625
vt 0.5390625 0.625
vt 0.3984375 0.3828125
vt 0.4140625 0.3828125
vt 0.4140625 0.4609375
vt 0.3984375 0.4609375
vt 0.5390625 0.40625
vt 0.5546875 0.40625
vt 0.5546875 0.484375
vt 0.5390625 0.484375
vt 0.578125 0.421875
vt 0.5625 0.421875
vt 0.5625 0.40625
vt 0.578125 0.40625
vt 0.015625 0.3984375
vt 0 0.3984375
vt 0 0.4140625
vt 0.015625 0.4140625
vn 0 0 -1
vn 1 0 0
vn 0 0 1
vn -1 0 0
vn 0 1 0
vn 0 -1 0
usemtl m_e7ed797d-1aca-2163-e0b3-285917b9c00c
f 25/73/19 26/74/19 27/75/19 28/76/19
f 29/77/20 25/78/20 28/79/20 30/80/20
f 31/81/21 29/82/21 30/83/21 32/84/21
f 26/85/22 31/86/22 32/87/22 27/88/22
f 32/89/23 30/90/23 28/91/23 27/92/23
f 26/93/24 25/94/24 29/95/24 31/96/24
o cube
v 1.375 0.625 -0.375
v -0.375 0.625 -0.375
v -0.375 0.875 -0.375
v 1.375 0.875 -0.375
v 1.375 0.625 0.375
v 1.375 0.875 0.375
v -0.375 0.625 0.375
v -0.375 0.875 0.375
vt 0.2265625 0.6640625
vt 0.4453125 0.6640625
vt 0.4453125 0.6953125
vt 0.2265625 0.6953125
vt 0.4375 0.5859375
vt 0.53125 0.5859375
vt 0.53125 0.6171875
vt 0.4375 0.6171875
vt 0.2265625 0.625
vt 0.4453125 0.625
vt 0.4453125 0.65625
vt 0.2265625 0.65625
vt 0.4375 0.546875
vt 0.53125 0.546875
vt 0.53125 0.578125
vt 0.4375 0.578125
vt 0.4765625 1
vt 0.2578125 1
vt 0.2578125 0.90625
vt 0.4765625 0.90625
vt 0.4765625 0.8046875
vt 0.2578125 0.8046875
vt 0.2578125 0.8984375
vt 0.4765625 0.8984375
vn 0 0 -1
vn 1 0 0
vn 0 0 1
vn -1 0 0
vn 0 1 0
vn 0 -1 0
usemtl m_e7ed797d-1aca-2163-e0b3-285917b9c00c
f 33/97/25 34/98/25 35/99/25 36/100/25
f 37/101/26 33/102/26 36/103/26 38/104/26
f 39/105/27 37/106/27 38/107/27 40/108/27
f 34/109/28 39/110/28 40/111/28 35/112/28
f 40/113/29 38/114/29 36/115/29 35/116/29
f 34/117/30 33/118/30 37/119/30 39/120/30
o cube
v 1.36875 0.25 -0.36875
v -0.36875 0.25 -0.36875
v -0.36875 0.3125 -0.36875
v 1.36875 0.3125 -0.36875
v 1.36875 0.25 0.36875
v 1.36875 0.3125 0.36875
v -0.36875 0.25 0.36875
v -0.36875 0.3125 0.36875
vt 0.46875 0.5078125
vt 0.6875 0.5078125
vt 0.6875 0.515625
vt 0.46875 0.515625
vt 0.1171875 0.625
vt 0.2109375 0.625
vt 0.2109375 0.6328125
vt 0.1171875 0.6328125
vt 0.46875 0.4921875
vt 0.6875 0.4921875
vt 0.6875 0.5
vt 0.46875 0.5
vt 0.5625 0.6015625
vt 0.65625 0.6015625
vt 0.65625 0.609375
vt 0.5625 0.609375
vt 0.4765625 0.796875
vt 0.2578125 0.796875
vt 0.2578125 0.703125
vt 0.4765625 0.703125
vt 0.21875 0.640625
vt 0 0.640625
vt 0 0.734375
vt 0.21875 0.734375
vn 0 0 -1
vn 1 0 0
vn 0 0 1
vn -1 0 0
vn 0 1 0
vn 0 -1 0
usemtl m_e7ed797d-1aca-2163-e0b3-285917b9c00c
f 41/121/31 42/122/31 43/123/31 44/124/31
f 45/125/32 41/126/32 44/127/32 46/128/32
f 47/129/33 45/130/33 46/131/33 48/132/33
f 42/133/34 47/134/34 48/135/34 43/136/34
f 48/137/35 46/138/35 44/139/35 43/140/35
f 42/141/36 41/142/36 45/143/36 47/144/36
o cube
v 1.5 0.875 -0.5
v -0.5 0.875 -0.5
v -0.5 0.9375 -0.5
v 1.5 0.9375 -0.5
v 1.5 0.875 0.5
v 1.5 0.9375 0.5
v -0.5 0.875 0.5
v -0.5 0.9375 0.5
vt 0.484375 0.9921875
vt 0.734375 0.9921875
vt 0.734375 1
vt 0.484375 1
vt 0.515625 0.7421875
vt 0.640625 0.7421875
vt 0.640625 0.75
vt 0.515625 0.75
vt 0.484375 0.9765625
vt 0.734375 0.9765625
vt 0.734375 0.984375
vt 0.484375 0.984375
vt 0.5625 0.6171875
vt 0.6875 0.6171875
vt 0.6875 0.625
vt 0.5625 0.625
vt 0.25 1
vt 0 1
vt 0 0.875
vt 0.25 0.875
vt 0.25 0.7421875
vt 0 0.7421875
vt 0 0.8671875
vt 0.25 0.8671875
vn 0 0 -1
vn 1 0 0
vn 0 0 1
vn -1 0 0
vn 0 1 0
vn 0 -1 0
usemtl m_e7ed797d-1aca-2163-e0b3-285917b9c00c
f 49/145/37 50/146/37 51/147/37 52/148/37
f 53/149/38 49/150/38 52/151/38 54/152/38
f 55/153/39 53/154/39 54/155/39 56/156/39
f 50/157/40 55/158/40 56/159/40 51/160/40
f 56/161/41 54/162/41 52/163/41 51/164/41
f 50/165/42 49/166/42 53/167/42 55/168/42
o cube
v -0.125 0.6875 0.375
v -0.25 0.6875 0.375
v -0.25 0.8125 0.375
v -0.125 0.8125 0.375
v -0.125 0.6875 0.4375
v -0.125 0.8125 0.4375
v -0.25 0.6875 0.4375
v -0.25 0.8125 0.4375
vt 0.5859375 0.40625
vt 0.6015625 0.40625
vt 0.6015625 0.421875
vt 0.5859375 0.421875
vt 0.2578125 0.46875
vt 0.265625 0.46875
vt 0.265625 0.484375
vt 0.2578125 0.484375
vt 0.59375 0.8359375
vt 0.609375 0.8359375
vt 0.609375 0.8515625
vt 0.59375 0.8515625
vt 0.2578125 0.4453125
vt 0.265625 0.4453125
vt 0.265625 0.4609375
vt 0.2578125 0.4609375
vt 0.1796875 0.3984375
vt 0.1640625 0.3984375
vt 0.1640625 0.390625
vt 0.1796875 0.390625
vt 0.203125 0.390625
vt 0.1875 0.390625
vt 0.1875 0.3984375
vt 0.203125 0.3984375
vn 0 0 -1
vn 1 0 0
vn 0 0 1
vn -1 0 0
vn 0 1 0
vn 0 -1 0
usemtl m_e7ed797d-1aca-2163-e0b3-285917b9c00c
f 57/169/43 58/170/43 59/171/43 60/172/43
f 61/173/44 57/174/44 60/175/44 62/176/44
f 63/177/45 61/178/45 62/179/45 64/180/45
f 58/181/46 63/182/46 64/183/46 59/184/46
f 64/185/47 62/186/47 60/187/47 59/188/47
f 58/189/48 57/190/48 61/191/48 63/192/48
o cube
v 0.0625 0.6875 0.375
v -0.0625 0.6875 0.375
v -0.0625 0.8125 0.375
v 0.0625 0.8125 0.375
v 0.0625 0.6875 0.4375
v 0.0625 0.8125 0.4375
v -0.0625 0.6875 0.4375
v -0.0625 0.8125 0.4375
vt 0.2578125 0.390625
vt 0.2734375 0.390625
vt 0.2734375 0.40625
vt 0.2578125 0.40625
vt 0.421875 0.4453125
vt 0.4296875 0.4453125
vt 0.4296875 0.4609375
vt 0.421875 0.4609375
vt 0.59375 0.71875
vt 0.609375 0.71875
vt 0.609375 0.734375
vt 0.59375 0.734375
vt 0.171875 0.4140625
vt 0.1796875 0.4140625
vt 0.1796875 0.4296875
vt 0.171875 0.4296875
vt 0.2265625 0.3984375
vt 0.2109375 0.3984375
vt 0.2109375 0.390625
vt 0.2265625 0.390625
vt 0.25 0.390625
vt 0.234375 0.390625
vt 0.234375 0.3984375
vt 0.25 0.3984375
vn 0 0 -1
vn 1 0 0
vn 0 0 1
vn -1 0 0
vn 0 1 0
vn 0 -1 0
usemtl m_e7ed797d-1aca-2163-e0b3-285917b9c00c
f 65/193/49 66/194/49 67/195/49 68/196/49
f 69/197/50 65/198/50 68/199/50 70/200/50
f 71/201/51 69/202/51 70/203/51 72/204/51
f 66/205/52 71/206/52 72/207/52 67/208/52
f 72/209/53 70/210/53 68/211/53 67/212/53
f 66/213/54 65/214/54 69/215/54 71/216/54
o cube
v 0.6391672965126027 0.3125 -0.05495504123687078
v 0.5744625352369725 0.3125 -0.2964364978091379
v 0.5744625352369725 0.375 -0.2964364978091379
v 0.6391672965126027 0.375 -0.05495504123687078
v -0.5078696222056659 0.3125 0.25239257482237254
v -0.5078696222056659 0.375 0.25239257482237254
v -0.5725743834812961 0.3125 0.01091111825010549
v -0.5725743834812961 0.375 0.01091111825010549
vt 0.5703125 0.703125
vt 0.6015625 0.703125
vt 0.6015625 0.7109375
vt 0.5703125 0.7109375
vt 0.515625 0.859375
vt 0.6640625 0.859375
vt 0.6640625 0.8671875
vt 0.515625 0.8671875
vt 0.421875 0.3984375
vt 0.453125 0.3984375
vt 0.453125 0.40625
vt 0.421875 0.40625
vt 0.515625 0.7890625
vt 0.6640625 0.7890625
vt 0.6640625 0.796875
vt 0.515625 0.796875
vt 0.3515625 0.6171875
vt 0.3203125 0.6171875
vt 0.3203125 0.46875
vt 0.3515625 0.46875
vt 0.390625 0.46875
vt 0.359375 0.46875
vt 0.359375 0.6171875
vt 0.390625 0.6171875
vn 0.9659258262890684 0 -0.25881904510252074
vn 0.25881904510252074 0 0.9659258262890684
vn -0.9659258262890683 0 0.2588190451025208
vn -0.2588190451025208 0 -0.9659258262890684
vn 0 1 0
vn 0 -1 0
usemtl m_e7ed797d-1aca-2163-e0b3-285917b9c00c
f 73/217/55 74/218/55 75/219/55 76/220/55
f 77/221/56 73/222/56 76/223/56 78/224/56
f 79/225/57 77/226/57 78/227/57 80/228/57
f 74/229/58 79/230/58 80/231/58 75/232/58
f 80/233/59 78/234/59 76/235/59 75/236/59
f 74/237/60 73/238/60 77/239/60 79/240/60
o cube
v 1.234375 0.3125 -0.25
v 1.046875 0.3125 -0.25
v 1.046875 0.5 -0.25
v 1.234375 0.5 -0.25
v 1.234375 0.3125 0.375
v 1.234375 0.5 0.375
v 1.046875 0.3125 0.375
v 1.046875 0.5 0.375
vt 0.5625 0.4296875
vt 0.5859375 0.4296875
vt 0.5859375 0.453125
vt 0.5625 0.453125
vt 0.0703125 0.4921875
vt 0.1484375 0.4921875
vt 0.1484375 0.515625
vt 0.0703125 0.515625
vt 0.5703125 0.9453125
vt 0.59375 0.9453125
vt 0.59375 0.96875
vt 0.5703125 0.96875
vt 0.484375 0.828125
vt 0.5625 0.828125
vt 0.5625 0.8515625
vt 0.484375 0.8515625
vt 0.1796875 0.515625
vt 0.15625 0.515625
vt 0.15625 0.4375
vt 0.1796875 0.4375
vt 0.5078125 0.7421875
vt 0.484375 0.7421875
vt 0.484375 0.8203125
vt 0.5078125 0.8203125
vn 0 0 -1
vn 1 0 0
vn 0 0 1
vn -1 0 0
vn 0 1 0
vn 0 -1 0
usemtl m_e7ed797d-1aca-2163-e0b3-285917b9c00c
f 81/241/61 82/242/61 83/243/61 84/244/61
f 85/245/62 81/246/62 84/247/62 86/248/62
f 87/249/63 85/250/63 86/251/63 88/252/63
f 82/253/64 87/254/64 88/255/64 83/256/64
f 88/257/65 86/258/65 84/259/65 83/260/65
f 82/261/66 81/262/66 85/263/66 87/264/66
o cube
v 1.0543524779879503 0.3125 -0.13658955555881497
v 0.8781601115905926 0.3125 -0.20071833243237786
v 0.8781601115905926 0.5 -0.20071833243237786
v 1.0543524779879503 0.5 -0.13658955555881497
v 0.8405898884094074 0.3125 0.4507183324323778
v 0.8405898884094074 0.5 0.4507183324323778
v 0.6643975220120497 0.3125 0.386589555558815
v 0.6643975220120497 0.5 0.386589555558815
vt 0.2265625 0.7109375
vt 0.25 0.7109375
vt 0.25 0.734375
vt 0.2265625 0.734375
vt 0.2265625 0.5234375
vt 0.3046875 0.5234375
vt 0.3046875 0.546875
vt 0.2265625 0.546875
vt 0.5625 0.4609375
vt 0.5859375 0.4609375
vt 0.5859375 0.484375
vt 0.5625 0.484375
vt 0.484375 0.9453125
vt 0.5625 0.9453125
vt 0.5625 0.96875
vt 0.484375 0.96875
vt 0.0625 0.515625
vt 0.0390625 0.515625
vt 0.0390625 0.4375
vt 0.0625 0.4375
vt 0.5078125 0.859375
vt 0.484375 0.859375
vt 0.484375 0.9375
vt 0.5078125 0.9375
vn 0.342020143325669 0 -0.9396926207859084
vn 0.9396926207859086 0 0.3420201433256686
vn -0.3420201433256685 0 0.9396926207859086
vn -0.9396926207859086 0 -0.3420201433256686
vn 0 1 0
vn 0 -1 0
usemtl m_e7ed797d-1aca-2163-e0b3-285917b9c00c
f 89/265/67 90/266/67 91/267/67 92/268/67
f 93/269/68 89/270/68 92/271/68 94/272/68
f 95/273/69 93/274/69 94/275/69 96/276/69
f 90/277/70 95/278/70 96/279/70 91/280/70
f 96/281/71 94/282/71 92/283/71 91/284/71
f 90/285/72 89/286/72 93/287/72 95/288/72
o cube
v 0.7408930985201643 0.375 0.017470226070497752
v 0.7299882516788303 0.375 -0.23229182932496661
v 0.7299882516788303 0.4375 -0.23229182932496661
v 0.7408930985201643 0.4375 0.017470226070497752
v -0.44547666460829183 0.375 0.06926824856683411
v -0.44547666460829183 0.4375 0.06926824856683411
v -0.4563815114496258 0.375 -0.18049380682863025
v -0.4563815114496258 0.4375 -0.18049380682863025
vt 0.59375 0.4765625
vt 0.625 0.4765625
vt 0.625 0.484375
vt 0.59375 0.484375
vt 0.515625 0.7734375
vt 0.6640625 0.7734375
vt 0.6640625 0.78125
vt 0.515625 0.78125
vt 0.59375 0.4609375
vt 0.625 0.4609375
vt 0.625 0.46875
vt 0.59375 0.46875
vt 0.515625 0.7578125
vt 0.6640625 0.7578125
vt 0.6640625 0.765625
vt 0.515625 0.765625
vt 0.4296875 0.6171875
vt 0.3984375 0.6171875
vt 0.3984375 0.46875
vt 0.4296875 0.46875
vt 0.03125 0.421875
vt 0 0.421875
vt 0 0.5703125
vt 0.03125 0.5703125
vn 0.9990482215818578 0 -0.043619387365335896
vn 0.04361938736533589 0 0.9990482215818579
vn -0.9990482215818578 0 0.043619387365335896
vn -0.04361938736533589 0 -0.9990482215818579
vn 0 1 0
vn 0 -1 0
usemtl m_e7ed797d-1aca-2163-e0b3-285917b9c00c
f 97/289/73 98/290/73 99/291/73 100/292/73
f 101/293/74 97/294/74 100/295/74 102/296/74
f 103/297/75 101/298/75 102/299/75 104/300/75
f 98/301/76 103/302/76 104/303/76 99/304/76
f 104/305/77 102/306/77 100/307/77 99/308/77
f 98/309/78 97/310/78 101/311/78 103/312/78
o cube
v 0.5860930518177039 0.3125 0.08224319214095688
v -0.08511045307725035 0.3125 0.23104542672340256
v -0.08511045307725035 0.375 0.23104542672340256
v 0.5860930518177039 0.375 0.08224319214095688
v 0.6402029553022297 0.3125 0.32631719392094016
v 0.6402029553022297 0.375 0.32631719392094016
v -0.031000549592724636 0.3125 0.47511942850338595
v -0.031000549592724636 0.375 0.47511942850338595
vt 0.5625 0.5859375
vt 0.6484375 0.5859375
vt 0.6484375 0.59375
vt 0.5625 0.59375
vt 0.59375 0.4453125
vt 0.625 0.4453125
vt 0.625 0.453125
vt 0.59375 0.453125
vt 0.5625 0.5703125
vt 0.6484375 0.5703125
vt 0.6484375 0.578125
vt 0.5625 0.578125
vt 0.59375 0.4296875
vt 0.625 0.4296875
vt 0.625 0.4375
vt 0.59375 0.4375
vt 0.125 0.5546875
vt 0.0390625 0.5546875
vt 0.0390625 0.5234375
vt 0.125 0.5234375
vt 0.21875 0.5234375
vt 0.1328125 0.5234375
vt 0.1328125 0.5546875
vt 0.21875 0.5546875
vn -0.21643961393810277 0 -0.9762960071199334
vn 0.9762960071199333 0 -0.21643961393810332
vn 0.21643961393810293 0 0.9762960071199334
vn -0.9762960071199334 0 0.2164396139381028
vn 0 1 0
vn 0 -1 0
usemtl m_e7ed797d-1aca-2163-e0b3-285917b9c00c
f 105/313/79 106/314/79 107/315/79 108/316/79
f 109/317/80 105/318/80 108/319/80 110/320/80
f 111/321/81 109/322/81 110/323/81 112/324/81
f 106/325/82 111/326/82 112/327/82 107/328/82
f 112/329/83 110/330/83 108/331/83 107/332/83
f 106/333/84 105/334/84 109/335/84 111/336/84
o plane
v 1.3180414958185047 0.940625 0.5224334557419122
v 1.5093832120010495 0.940625 0.06049368948626885
v 0.9319585041814953 0.940625 -0.17868345574191224
v 0.7406167879989505 0.940625 0.2832563105137311
vt 0.3125 0.5546875
vt 0.3125 0.6171875
vt 0.234375 0.6171875
vt 0.234375 0.5546875
vn 0 1 0
usemtl m_e7ed797d-1aca-2163-e0b3-285917b9c00c
f 113/337/85 114/338/85 115/339/85 116/340/85
o cube
v 0.875 0.9375 -0.3125
v -0.4375 0.9375 -0.3125
v -0.4375 1.0625 -0.3125
v 0.875 1.0625 -0.3125
v 0.875 0.9375 -0.1875
v 0.875 1.0625 -0.1875
v -0.4375 0.9375 -0.1875
v -0.4375 1.0625 -0.1875
vt 0.453125 0.6796875
vt 0.6171875 0.6796875
vt 0.6171875 0.6953125
vt 0.453125 0.6953125
vt 0.6015625 0.953125
vt 0.6171875 0.953125
vt 0.6171875 0.96875
vt 0.6015625 0.96875
vt 0.453125 0.65625
vt 0.6171875 0.65625
vt 0.6171875 0.671875
vt 0.453125 0.671875
vt 0.046875 0.3828125
vt 0.0625 0.3828125
vt 0.0625 0.3984375
vt 0.046875 0.3984375
vt 0.6171875 0.6484375
vt 0.453125 0.6484375
vt 0.453125 0.6328125
vt 0.6171875 0.6328125
vt 0.6015625 0.5234375
vt 0.4375 0.5234375
vt 0.4375 0.5390625
vt 0.6015625 0.5390625
vn 0 0 -1
vn 1 0 0
vn 0 0 1
vn -1 0 0
vn 0 1 0
vn 0 -1 0
usemtl m_e7ed797d-1aca-2163-e0b3-285917b9c00c
f 117/341/86 118/342/86 119/343/86 120/344/86
f 121/345/87 117/346/87 120/347/87 122/348/87
f 123/349/88 121/350/88 122/351/88 124/352/88
f 118/353/89 123/354/89 124/355/89 119/356/89
f 124/357/90 122/358/90 120/359/90 119/360/90
f 118/361/91 117/362/91 121/363/91 123/364/91
o cube
v 0.8349356713239788 0 -0.19903193947258968
v 0.6502842176341899 0 -0.1664729061600403
v 0.6502842176341899 0.1875 -0.1664729061600403
v 0.8349356713239788 0.1875 -0.19903193947258968
v 0.9434657823658101 0 0.4164729061600403
v 0.9434657823658101 0.1875 0.4164729061600403
v 0.7588143286760212 0 0.4490319394725897
v 0.7588143286760212 0.1875 0.4490319394725897
vt 0.0390625 0.40625
vt 0.0625 0.40625
vt 0.0625 0.4296875
vt 0.0390625 0.4296875
vt 0.1875 0.4921875
vt 0.265625 0.4921875
vt 0.265625 0.515625
vt 0.1875 0.515625
vt 0.140625 0.40625
vt 0.1640625 0.40625
vt 0.1640625 0.4296875
vt 0.140625 0.4296875
vt 0.484375 0.7109375
vt 0.5625 0.7109375
vt 0.5625 0.734375
vt 0.484375 0.734375
vt 0.296875 0.515625
vt 0.2734375 0.515625
vt 0.2734375 0.4375
vt 0.296875 0.4375
vt 0.4609375 0.4375
vt 0.4375 0.4375
vt 0.4375 0.515625
vt 0.4609375 0.515625
vn -0.17364817766693014 0 -0.9848077530122082
vn 0.9848077530122082 0 -0.17364817766693014
vn 0.17364817766693014 0 0.9848077530122082
vn -0.9848077530122082 0 0.17364817766693014
vn 0 1 0
vn 0 -1 0
usemtl m_e7ed797d-1aca-2163-e0b3-285917b9c00c
f 125/365/92 126/366/92 127/367/92 128/368/92
f 129/369/93 125/370/93 128/371/93 130/372/93
f 131/373/94 129/374/94 130/375/94 132/376/94
f 126/377/95 131/378/95 132/379/95 127/380/95
f 132/381/96 130/382/96 128/383/96 127/384/96
f 126/385/97 125/386/97 129/387/97 131/388/97
o cube
v 0.8641469888958169 0.9375 0.12594951543673694
v 0.8025965043325538 0.9375 0.13680252654092018
v 0.8025965043325538 1 0.13680252654092018
v 0.8641469888958169 1 0.12594951543673694
v 0.9184120444167325 0.9375 0.43370193825305203
v 0.9184120444167325 1 0.43370193825305203
v 0.8568615598534697 0.9375 0.44455494935723516
v 0.8568615598534697 1 0.44455494935723516
vt 0.0234375 0.40625
vt 0.03125 0.40625
vt 0.03125 0.4140625
vt 0.0234375 0.4140625
vt 0.0390625 0.5625
vt 0.078125 0.5625
vt 0.078125 0.5703125
vt 0.0390625 0.5703125
vt 0.4609375 0.390625
vt 0.46875 0.390625
vt 0.46875 0.3984375
vt 0.4609375 0.3984375
vt 0.5625 0.5546875
vt 0.6015625 0.5546875
vt 0.6015625 0.5625
vt 0.5625 0.5625
vt 0.3125 0.515625
vt 0.3046875 0.515625
vt 0.3046875 0.4765625
vt 0.3125 0.4765625
vt 0.1484375 0.4453125
vt 0.140625 0.4453125
vt 0.140625 0.484375
vt 0.1484375 0.484375
vn -0.17364817766693166 0 -0.9848077530122079
vn 0.9848077530122081 0 -0.17364817766693005
vn 0.17364817766693055 0 0.9848077530122081
vn -0.9848077530122081 0 0.17364817766693083
vn 0 1 0
vn 0 -1 0
usemtl m_e7ed797d-1aca-2163-e0b3-285917b9c00c
f 133/389/98 134/390/98 135/391/98 136/392/98
f 137/393/99 133/394/99 136/395/99 138/396/99
f 139/397/100 137/398/100 138/399/100 140/400/100
f 134/401/101 139/402/101 140/403/101 135/404/101
f 140/405/102 138/406/102 136/407/102 135/408/102
f 134/409/103 133/410/103 137/411/103 139/412/103
o cube
v 0.8125 0.75 0.375
v 0.625 0.75 0.375
v 0.625 0.8125 0.375
v 0.8125 0.8125 0.375
v 0.8125 0.75 0.4375
v 0.8125 0.8125 0.4375
v 0.625 0.75 0.4375
v 0.625 0.8125 0.4375
vt 0.0859375 0.5625
vt 0.109375 0.5625
vt 0.109375 0.5703125
vt 0.0859375 0.5703125
vt 0.4765625 0.390625
vt 0.484375 0.390625
vt 0.484375 0.3984375
vt 0.4765625 0.3984375
vt 0.0703125 0.390625
vt 0.09375 0.390625
vt 0.09375 0.3984375
vt 0.0703125 0.3984375
vt 0.4921875 0.390625
vt 0.5 0.390625
vt 0.5 0.3984375
vt 0.4921875 0.3984375
vt 0.125 0.3984375
vt 0.1015625 0.3984375
vt 0.1015625 0.390625
vt 0.125 0.390625
vt 0.15625 0.390625
vt 0.1328125 0.390625
vt 0.1328125 0.3984375
vt 0.15625 0.3984375
vn 0 0 -1
vn 1 0 0
vn 0 0 1
vn -1 0 0
vn 0 1 0
vn 0 -1 0
usemtl m_e7ed797d-1aca-2163-e0b3-285917b9c00c
f 141/413/104 142/414/104 143/415/104 144/416/104
f 145/417/105 141/418/105 144/419/105 146/420/105
f 147/421/106 145/422/106 146/423/106 148/424/106
f 142/425/107 147/426/107 148/427/107 143/428/107
f 148/429/108 146/430/108 144/431/108 143/432/108
f 142/433/109 141/434/109 145/435/109 147/436/109
o cube
v -0.375 0.9375 -0.03125000000000011
v -0.375 0.9375 -0.03125000000000011
v -0.375 1.375 -0.03125000000000011
v -0.375 1.375 -0.03125000000000011
v 0.5 0.9375 -0.03124999999999989
v 0.5 1.375 -0.03124999999999989
v 0.5 0.9375 -0.03124999999999989
v 0.5 1.375 -0.03124999999999989
vt 0.5078125 0.34375
vt 0.5078125 0.34375
vt 0.5078125 0.3984375
vt 0.5078125 0.3984375
vt 0.109375 0.578125
vt 0 0.578125
vt 0 0.6328125
vt 0.109375 0.6328125
vt 0.515625 0.34375
vt 0.515625 0.34375
vt 0.515625 0.3984375
vt 0.515625 0.3984375
vt 0.1171875 0.5625
vt 0.2265625 0.5625
vt 0.2265625 0.6171875
vt 0.1171875 0.6171875
vt 0.5234375 0.3984375
vt 0.5234375 0.3984375
vt 0.5234375 0.2890625
vt 0.5234375 0.2890625
vt 0.53125 0.2890625
vt 0.53125 0.2890625
vt 0.53125 0.3984375
vt 0.53125 0.3984375
vn 0 0 0
vn 2.5376526277146434e-16 0 -1
vn 0 0 0
vn -2.5376526277146434e-16 0 1
vn 0 0 0
vn 0 0 0
usemtl m_e7ed797d-1aca-2163-e0b3-285917b9c00c
f 149/437/110 150/438/110 151/439/110 152/440/110
f 153/441/111 149/442/111 152/443/111 154/444/111
f 155/445/112 153/446/112 154/447/112 156/448/112
f 150/449/113 155/450/113 156/451/113 151/452/113
f 156/453/114 154/454/114 152/455/114 151/456/114
f 150/457/115 149/458/115 153/459/115 155/460/115
o cube
v 0.2652029553022296 0.9375 0.17368280607905984
v -0.40600054959272464 0.9375 0.024880571496614046
v -0.40600054959272464 1 0.024880571496614046
v 0.2652029553022296 1 0.17368280607905984
v 0.21109305181770388 0.9375 0.4177568078590431
v 0.21109305181770388 1 0.4177568078590431
v -0.46011045307725035 0.9375 0.26895457327659744
v -0.46011045307725035 1 0.26895457327659744
vt 0.5625 0.5859375
vt 0.6484375 0.5859375
vt 0.6484375 0.59375
vt 0.5625 0.59375
vt 0.59375 0.4453125
vt 0.625 0.4453125
vt 0.625 0.453125
vt 0.59375 0.453125
vt 0.5625 0.5703125
vt 0.6484375 0.5703125
vt 0.6484375 0.578125
vt 0.5625 0.578125
vt 0.59375 0.4296875
vt 0.625 0.4296875
vt 0.625 0.4375
vt 0.59375 0.4375
vt 0.125 0.5546875
vt 0.0390625 0.5546875
vt 0.0390625 0.5234375
vt 0.125 0.5234375
vt 0.21875 0.5234375
vt 0.1328125 0.5234375
vt 0.1328125 0.5546875
vt 0.21875 0.5546875
vn 0.21643961393810293 0 -0.9762960071199334
vn 0.9762960071199334 0 0.2164396139381029
vn -0.21643961393810277 0 0.9762960071199334
vn -0.9762960071199334 0 -0.2164396139381028
vn 0 1 0
vn 0 -1 0
usemtl m_e7ed797d-1aca-2163-e0b3-285917b9c00c
f 157/461/116 158/462/116 159/463/116 160/464/116
f 161/465/117 157/466/117 160/467/117 162/468/117
f 163/469/118 161/470/118 162/471/118 164/472/118
f 158/473/119 163/474/119 164/475/119 159/476/119
f 164/477/120 162/478/120 160/479/120 159/480/120
f 158/481/121 157/482/121 161/483/121 163/484/121