# Made in Blockbench 4.1.1
mtllib vehiclebench.mtl

o big
v -0.25 0 -0.5
v -0.4375 0 -0.5
v -0.4375 1.5546875 -0.5
v -0.25 1.5546875 -0.5
v -0.25 0 -0.3125
v -0.25 1.5546875 -0.3125
v -0.4375 0 -0.3125
v -0.4375 1.5546875 -0.3125
vt 0.2578125 0.8046875
vt 0.28125 0.8046875
vt 0.28125 1
vt 0.2578125 1
vt 0.2578125 0.6015625
vt 0.28125 0.6015625
vt 0.28125 0.796875
vt 0.2578125 0.796875
vt 0.2890625 0.8046875
vt 0.3125 0.8046875
vt 0.3125 1
vt 0.2890625 1
vt 0.2890625 0.6015625
vt 0.3125 0.6015625
vt 0.3125 0.796875
vt 0.2890625 0.796875
vt 0.3359375 0.515625
vt 0.3125 0.515625
vt 0.3125 0.4921875
vt 0.3359375 0.4921875
vt 0.4140625 0.4921875
vt 0.390625 0.4921875
vt 0.390625 0.515625
vt 0.4140625 0.515625
vn 0 0 -1
vn 1 0 0
vn 0 0 1
vn -1 0 0
vn 0 1 0
vn 0 -1 0
usemtl m_1
f 1/1/1 2/2/1 3/3/1 4/4/1
f 5/5/2 1/6/2 4/7/2 6/8/2
f 7/9/3 5/10/3 6/11/3 8/12/3
f 2/13/4 7/14/4 8/15/4 3/16/4
f 8/17/5 6/18/5 4/19/5 3/20/5
f 2/21/6 1/22/6 5/23/6 7/24/6
o big
v 1.5 0 -0.5
v 1.3125 0 -0.5
v 1.3125 1.5546875 -0.5
v 1.5 1.5546875 -0.5
v 1.5 0 -0.3125
v 1.5 1.5546875 -0.3125
v 1.3125 0 -0.3125
v 1.3125 1.5546875 -0.3125
vt 0.3203125 0.8046875
vt 0.34375 0.8046875
vt 0.34375 1
vt 0.3203125 1
vt 0.3203125 0.6015625
vt 0.34375 0.6015625
vt 0.34375 0.796875
vt 0.3203125 0.796875
vt 0.3515625 0.8046875
vt 0.375 0.8046875
vt 0.375 1
vt 0.3515625 1
vt 0.3515625 0.6015625
vt 0.375 0.6015625
vt 0.375 0.796875
vt 0.3515625 0.796875
vt 0.4453125 0.515625
vt 0.421875 0.515625
vt 0.421875 0.4921875
vt 0.4453125 0.4921875
vt 0.515625 0.7421875
vt 0.4921875 0.7421875
vt 0.4921875 0.765625
vt 0.515625 0.765625
vn 0 0 -1
vn 1 0 0
vn 0 0 1
vn -1 0 0
vn 0 1 0
vn 0 -1 0
usemtl m_1
f 9/25/7 10/26/7 11/27/7 12/28/7
f 13/29/8 9/30/8 12/31/8 14/32/8
f 15/33/9 13/34/9 14/35/9 16/36/9
f 10/37/10 15/38/10 16/39/10 11/40/10
f 16/41/11 14/42/11 12/43/11 11/44/11
f 10/45/12 9/46/12 13/47/12 15/48/12
o lower
v -0.25 0.25 -0.3125
v -0.4375 0.25 -0.3125
v -0.4375 0.4375 -0.3125
v -0.25 0.4375 -0.3125
v -0.25 0.25 0.25
v -0.25 0.4375 0.25
v -0.4375 0.25 0.25
v -0.4375 0.4375 0.25
vt 0.4921875 0.6484375
vt 0.515625 0.6484375
vt 0.515625 0.671875
vt 0.4921875 0.671875
vt 0.25 0.5703125
vt 0.3203125 0.5703125
vt 0.3203125 0.59375
vt 0.25 0.59375
vt 0.4921875 0.6171875
vt 0.515625 0.6171875
vt 0.515625 0.640625
vt 0.4921875 0.640625
vt 0.4140625 0.7421875
vt 0.484375 0.7421875
vt 0.484375 0.765625
vt 0.4140625 0.765625
vt 0.3515625 0.59375
vt 0.328125 0.59375
vt 0.328125 0.5234375
vt 0.3515625 0.5234375
vt 0.4375 0.6640625
vt 0.4140625 0.6640625
vt 0.4140625 0.734375
vt 0.4375 0.734375
vn 0 0 -1
vn 1 0 0
vn 0 0 1
vn -1 0 0
vn 0 1 0
vn 0 -1 0
usemtl m_1
f 17/49/13 18/50/13 19/51/13 20/52/13
f 21/53/14 17/54/14 20/55/14 22/56/14
f 23/57/15 21/58/15 22/59/15 24/60/15
f 18/61/16 23/62/16 24/63/16 19/64/16
f 24/65/17 22/66/17 20/67/17 19/68/17
f 18/69/18 17/70/18 21/71/18 23/72/18
o main
v 1.3125 0.25 -0.5
v -0.25 0.25 -0.5
v -0.25 0.4375 -0.5
v 1.3125 0.4375 -0.5
v 1.3125 0.25 -0.3125
v 1.3125 0.4375 -0.3125
v -0.25 0.25 -0.3125
v -0.25 0.4375 -0.3125
vt 0 0.6171875
vt 0.1953125 0.6171875
vt 0.1953125 0.640625
vt 0 0.640625
vt 0 0.4765625
vt 0.0234375 0.4765625
vt 0.0234375 0.5
vt 0 0.5
vt 0.3828125 0.9765625
vt 0.578125 0.9765625
vt 0.578125 1
vt 0.3828125 1
vt 0.03125 0.4765625
vt 0.0546875 0.4765625
vt 0.0546875 0.5
vt 0.03125 0.5
vt 0.578125 0.96875
vt 0.3828125 0.96875
vt 0.3828125 0.9453125
vt 0.578125 0.9453125
vt 0.578125 0.9140625
vt 0.3828125 0.9140625
vt 0.3828125 0.9375
vt 0.578125 0.9375
vn 0 0 -1
vn 1 0 0
vn 0 0 1
vn -1 0 0
vn 0 1 0
vn 0 -1 0
usemtl m_1
f 25/73/19 26/74/19 27/75/19 28/76/19
f 29/77/20 25/78/20 28/79/20 30/80/20
f 31/81/21 29/82/21 30/83/21 32/84/21
f 26/85/22 31/86/22 32/87/22 27/88/22
f 32/89/23 30/90/23 28/91/23 27/92/23
f 26/93/24 25/94/24 29/95/24 31/96/24
o table
v 1.515625 0.6479446418670827 0.42010315116144004
v -0.5 0.6479446418670827 0.42010315116144004
v -0.5 1.6005732784446904 -0.5325254854161678
v 1.515625 1.6005732784446904 -0.5325254854161678
v 1.515625 0.736332989515401 0.5084914988097585
v 1.515625 1.688961626093009 -0.44413713776784947
v -0.5 0.736332989515401 0.5084914988097585
v -0.5 1.688961626093009 -0.44413713776784947
vt 0 0.828125
vt 0.25 0.828125
vt 0.25 1
vt 0 1
vt 0.203125 0.46875
vt 0.21875 0.46875
vt 0.21875 0.640625
vt 0.203125 0.640625
vt 0 0.6484375
vt 0.25 0.6484375
vt 0.25 0.8203125
vt 0 0.8203125
vt 0.2265625 0.46875
vt 0.2421875 0.46875
vt 0.2421875 0.640625
vt 0.2265625 0.640625
vt 0.6328125 0.90625
vt 0.3828125 0.90625
vt 0.3828125 0.890625
vt 0.6328125 0.890625
vt 0.6328125 0.8671875
vt 0.3828125 0.8671875
vt 0.3828125 0.8828125
vt 0.6328125 0.8828125
vn 0 -0.7071067811865476 -0.7071067811865475
vn 1 0 0
vn 0 0.7071067811865476 0.7071067811865476
vn -1 0 0
vn 0 0.7071067811865471 -0.707106781186548
vn 0 -0.707106781186548 0.7071067811865471
usemtl m_1
f 33/97/25 34/98/25 35/99/25 36/100/25
f 37/101/26 33/102/26 36/103/26 38/104/26
f 39/105/27 37/106/27 38/107/27 40/108/27
f 34/109/28 39/110/28 40/111/28 35/112/28
f 40/113/29 38/114/29 36/115/29 35/116/29
f 34/117/30 33/118/30 37/119/30 39/120/30
o ledge
v 1.5 0.745824898795956 0.42604452025363915
v -0.4375 0.745824898795956 0.42604452025363915
v -0.4375 0.8342132464442744 0.3376561726053207
v 1.5 0.8342132464442744 0.3376561726053207
v 1.5 0.8342132464442744 0.5144328679019576
v 1.5 0.9226015940925929 0.42604452025363915
v -0.4375 0.8342132464442744 0.5144328679019576
v -0.4375 0.9226015940925929 0.42604452025363915
vt 0.3828125 0.84375
vt 0.625 0.84375
vt 0.625 0.859375
vt 0.3828125 0.859375
vt 0.359375 0.578125
vt 0.375 0.578125
vt 0.375 0.59375
vt 0.359375 0.59375
vt 0.3828125 0.8203125
vt 0.625 0.8203125
vt 0.625 0.8359375
vt 0.3828125 0.8359375
vt 0.359375 0.5546875
vt 0.375 0.5546875
vt 0.375 0.5703125
vt 0.359375 0.5703125
vt 0.625 0.8125
vt 0.3828125 0.8125
vt 0.3828125 0.796875
vt 0.625 0.796875
vt 0.625 0.7734375
vt 0.3828125 0.7734375
vt 0.3828125 0.7890625
vt 0.625 0.7890625
vn 0 -0.7071067811865478 -0.7071067811865472
vn 1 0 0
vn 0 0.7071067811865476 0.7071067811865476
vn -1 0 0
vn 0 0.7071067811865474 -0.7071067811865478
vn 0 -0.707106781186548 0.707106781186547
usemtl m_1
f 41/121/31 42/122/31 43/123/31 44/124/31
f 45/125/32 41/126/32 44/127/32 46/128/32
f 47/129/33 45/130/33 46/131/33 48/132/33
f 42/133/34 47/134/34 48/135/34 43/136/34
f 48/137/35 46/138/35 44/139/35 43/140/35
f 42/141/36 41/142/36 45/143/36 47/144/36
o pencil
v 0.078125 0.8630844818352521 0.36989148916807085
v -0.296875 0.8630844818352521 0.36989148916807085
v -0.296875 0.9072786556594112 0.3256973153439116
v 0.078125 0.9072786556594112 0.3256973153439116
v 0.078125 0.9072786556594113 0.41408566299223004
v 0.078125 0.9514728294835706 0.3698914891680708
v -0.296875 0.9072786556594113 0.41408566299223004
v -0.296875 0.9514728294835706 0.3698914891680708
vt 0.4921875 0.6015625
vt 0.5390625 0.6015625
vt 0.5390625 0.609375
vt 0.4921875 0.609375
vt 0.1875 0.6015625
vt 0.1953125 0.6015625
vt 0.1953125 0.609375
vt 0.1875 0.609375
vt 0.421875 0.4765625
vt 0.46875 0.4765625
vt 0.46875 0.484375
vt 0.421875 0.484375
vt 0.1875 0.5859375
vt 0.1953125 0.5859375
vt 0.1953125 0.59375
vt 0.1875 0.59375
vt 0.5703125 0.765625
vt 0.5234375 0.765625
vt 0.5234375 0.7578125
vt 0.5703125 0.7578125
vt 0.5703125 0.7421875
vt 0.5234375 0.7421875
vt 0.5234375 0.75
vt 0.5703125 0.75
vn 0 -0.7071067811865485 -0.7071067811865467
vn 1 0 0
vn 0 0.7071067811865476 0.7071067811865476
vn -1 0 0
vn 0 0.7071067811865462 -0.7071067811865489
vn 0 -0.7071067811865471 0.707106781186548
usemtl m_1
f 49/145/37 50/146/37 51/147/37 52/148/37
f 53/149/38 49/150/38 52/151/38 54/152/38
f 55/153/39 53/154/39 54/155/39 56/156/39
f 50/157/40 55/158/40 56/159/40 51/160/40
f 56/161/41 54/162/41 52/163/41 51/164/41
f 50/165/42 49/166/42 53/167/42 55/168/42
o lower
v 1.5 0.25 -0.3125
v 1.3125 0.25 -0.3125
v 1.3125 0.4375 -0.3125
v 1.5 0.4375 -0.3125
v 1.5 0.25 0.25
v 1.5 0.4375 0.25
v 1.3125 0.25 0.25
v 1.3125 0.4375 0.25
vt 0.0625 0.4765625
vt 0.0859375 0.4765625
vt 0.0859375 0.5
vt 0.0625 0.5
vt 0.4140625 0.6328125
vt 0.484375 0.6328125
vt 0.484375 0.65625
vt 0.4140625 0.65625
vt 0.09375 0.4765625
vt 0.1171875 0.4765625
vt 0.1171875 0.5
vt 0.09375 0.5
vt 0.4140625 0.6015625
vt 0.484375 0.6015625
vt 0.484375 0.625
vt 0.4140625 0.625
vt 0.4375 0.59375
vt 0.4140625 0.59375
vt 0.4140625 0.5234375
vt 0.4375 0.5234375
vt 0.2734375 0.4921875
vt 0.25 0.4921875
vt 0.25 0.5625
vt 0.2734375 0.5625
vn 0 0 -1
vn 1 0 0
vn 0 0 1
vn -1 0 0
vn 0 1 0
vn 0 -1 0
usemtl m_1
f 57/169/43 58/170/43 59/171/43 60/172/43
f 61/173/44 57/174/44 60/175/44 62/176/44
f 63/177/45 61/178/45 62/179/45 64/180/45
f 58/181/46 63/182/46 64/183/46 59/184/46
f 64/185/47 62/186/47 60/187/47 59/188/47
f 58/189/48 57/190/48 61/191/48 63/192/48
o pencil
v 0.125 0.8795478116709139 0.3702706151408839
v 0.0625 0.8795478116709139 0.3702706151408839
v 0.0625 0.9071691703110134 0.34264925650078437
v 0.125 0.9071691703110134 0.34264925650078437
v 0.125 0.9071691703110134 0.3978919737809834
v 0.125 0.9347905289511129 0.3702706151408839
v 0.0625 0.9071691703110134 0.3978919737809834
v 0.0625 0.9347905289511129 0.3702706151408839
vt 0.1875 0.5703125
vt 0.1953125 0.5703125
vt 0.1953125 0.578125
vt 0.1875 0.578125
vt 0.1875 0.5546875
vt 0.1953125 0.5546875
vt 0.1953125 0.5625
vt 0.1875 0.5625
vt 0.3125 0.5546875
vt 0.3203125 0.5546875
vt 0.3203125 0.5625
vt 0.3125 0.5625
vt 0.4453125 0.6640625
vt 0.453125 0.6640625
vt 0.453125 0.671875
vt 0.4453125 0.671875
vt 0.1953125 0.546875
vt 0.1875 0.546875
vt 0.1875 0.5390625
vt 0.1953125 0.5390625
vt 0.3203125 0.5390625
vt 0.3125 0.5390625
vt 0.3125 0.546875
vt 0.3203125 0.546875
vn 0 -0.7071067811865476 -0.7071067811865476
vn 1 0 0
vn 0 0.7071067811865476 0.7071067811865476
vn -1 0 0
vn 0 0.7071067811865476 -0.7071067811865476
vn 0 -0.7071067811865476 0.7071067811865476
usemtl m_1
f 65/193/49 66/194/49 67/195/49 68/196/49
f 69/197/50 65/198/50 68/199/50 70/200/50
f 71/201/51 69/202/51 70/203/51 72/204/51
f 66/205/52 71/206/52 72/207/52 67/208/52
f 72/209/53 70/210/53 68/211/53 67/212/53
f 66/213/54 65/214/54 69/215/54 71/216/54
o smol
v 1.5 0 0.25
v 1.3125 0 0.25
v 1.3125 0.8125 0.25
v 1.5 0.8125 0.25
v 1.5 0 0.4375
v 1.5 0.8125 0.4375
v 1.3125 0 0.4375
v 1.3125 0.8125 0.4375
vt 0.3828125 0.6640625
vt 0.40625 0.6640625
vt 0.40625 0.765625
vt 0.3828125 0.765625
vt 0.3828125 0.5546875
vt 0.40625 0.5546875
vt 0.40625 0.65625
vt 0.3828125 0.65625
vt 0 0.5078125
vt 0.0234375 0.5078125
vt 0.0234375 0.609375
vt 0 0.609375
vt 0.03125 0.5078125
vt 0.0546875 0.5078125
vt 0.0546875 0.609375
vt 0.03125 0.609375
vt 0.1484375 0.5
vt 0.125 0.5
vt 0.125 0.4765625
vt 0.1484375 0.4765625
vt 0.1796875 0.4765625
vt 0.15625 0.4765625
vt 0.15625 0.5
vt 0.1796875 0.5
vn 0 0 -1
vn 1 0 0
vn 0 0 1
vn -1 0 0
vn 0 1 0
vn 0 -1 0
usemtl m_1
f 73/217/55 74/218/55 75/219/55 76/220/55
f 77/221/56 73/222/56 76/223/56 78/224/56
f 79/225/57 77/226/57 78/227/57 80/228/57
f 74/229/58 79/230/58 80/231/58 75/232/58
f 80/233/59 78/234/59 76/235/59 75/236/59
f 74/237/60 73/238/60 77/239/60 79/240/60
o smol
v -0.25 0 0.25
v -0.4375 0 0.25
v -0.4375 0.8125 0.25
v -0.25 0.8125 0.25
v -0.25 0 0.4375
v -0.25 0.8125 0.4375
v -0.4375 0 0.4375
v -0.4375 0.8125 0.4375
vt 0.0625 0.5078125
vt 0.0859375 0.5078125
vt 0.0859375 0.609375
vt 0.0625 0.609375
vt 0.09375 0.5078125
vt 0.1171875 0.5078125
vt 0.1171875 0.609375
vt 0.09375 0.609375
vt 0.125 0.5078125
vt 0.1484375 0.5078125
vt 0.1484375 0.609375
vt 0.125 0.609375
vt 0.15625 0.5078125
vt 0.1796875 0.5078125
vt 0.1796875 0.609375
vt 0.15625 0.609375
vt 0.53125 0.53125
vt 0.5078125 0.53125
vt 0.5078125 0.5078125
vt 0.53125 0.5078125
vt 0.53125 0.4765625
vt 0.5078125 0.4765625
vt 0.5078125 0.5
vt 0.53125 0.5
vn 0 0 -1
vn 1 0 0
vn 0 0 1
vn -1 0 0
vn 0 1 0
vn 0 -1 0
usemtl m_1
f 81/241/61 82/242/61 83/243/61 84/244/61
f 85/245/62 81/246/62 84/247/62 86/248/62
f 87/249/63 85/250/63 86/251/63 88/252/63
f 82/253/64 87/254/64 88/255/64 83/256/64
f 88/257/65 86/258/65 84/259/65 83/260/65
f 82/261/66 81/262/66 85/263/66 87/264/66
o upper
v -0.25 0.75 -0.3125
v -0.4375 0.75 -0.3125
v -0.4375 0.9375 -0.3125
v -0.25 0.9375 -0.3125
v -0.25 0.75 0.25
v -0.25 0.9375 0.25
v -0.4375 0.75 0.25
v -0.4375 0.9375 0.25
vt 0.25 0.4609375
vt 0.2734375 0.4609375
vt 0.2734375 0.484375
vt 0.25 0.484375
vt 0.4453125 0.7109375
vt 0.515625 0.7109375
vt 0.515625 0.734375
vt 0.4453125 0.734375
vt 0.28125 0.4609375
vt 0.3046875 0.4609375
vt 0.3046875 0.484375
vt 0.28125 0.484375
vt 0.4453125 0.6796875
vt 0.515625 0.6796875
vt 0.515625 0.703125
vt 0.4453125 0.703125
vt 0.3046875 0.5625
vt 0.28125 0.5625
vt 0.28125 0.4921875
vt 0.3046875 0.4921875
vt 0.46875 0.5234375
vt 0.4453125 0.5234375
vt 0.4453125 0.59375
vt 0.46875 0.59375
vn 0 0 -1
vn 1 0 0
vn 0 0 1
vn -1 0 0
vn 0 1 0
vn 0 -1 0
usemtl m_1
f 89/265/67 90/266/67 91/267/67 92/268/67
f 93/269/68 89/270/68 92/271/68 94/272/68
f 95/273/69 93/274/69 94/275/69 96/276/69
f 90/277/70 95/278/70 96/279/70 91/280/70
f 96/281/71 94/282/71 92/283/71 91/284/71
f 90/285/72 89/286/72 93/287/72 95/288/72
o upper
v 1.5 0.75 -0.3125
v 1.3125 0.75 -0.3125
v 1.3125 0.9375 -0.3125
v 1.5 0.9375 -0.3125
v 1.5 0.75 0.25
v 1.5 0.9375 0.25
v 1.3125 0.75 0.25
v 1.3125 0.9375 0.25
vt 0.3125 0.4609375
vt 0.3359375 0.4609375
vt 0.3359375 0.484375
vt 0.3125 0.484375
vt 0.4765625 0.5703125
vt 0.546875 0.5703125
vt 0.546875 0.59375
vt 0.4765625 0.59375
vt 0.390625 0.4609375
vt 0.4140625 0.4609375
vt 0.4140625 0.484375
vt 0.390625 0.484375
vt 0.4765625 0.5390625
vt 0.546875 0.5390625
vt 0.546875 0.5625
vt 0.4765625 0.5625
vt 0.3828125 0.546875
vt 0.359375 0.546875
vt 0.359375 0.4765625
vt 0.3828125 0.4765625
vt 0.5 0.4609375
vt 0.4765625 0.4609375
vt 0.4765625 0.53125
vt 0.5 0.53125
vn 0 0 -1
vn 1 0 0
vn 0 0 1
vn -1 0 0
vn 0 1 0
vn 0 -1 0
usemtl m_1
f 97/289/73 98/290/73 99/291/73 100/292/73
f 101/293/74 97/294/74 100/295/74 102/296/74
f 103/297/75 101/298/75 102/299/75 104/300/75
f 98/301/76 103/302/76 104/303/76 99/304/76
f 104/305/77 102/306/77 100/307/77 99/308/77
f 98/309/78 97/310/78 101/311/78 103/312/78
o paper
v 1.453125 0.828125 0.33203125
v 0.1328125 0.828125 0.33203125
v 0.1328125 1.5518045963706073 -0.3916483463706073
v 1.453125 1.5518045963706073 -0.3916483463706073
v 1.453125 0.8723191738241592 0.37622542382415924
v 1.453125 1.5959987701947664 -0.34745417254644806
v 0.1328125 0.8723191738241592 0.37622542382415924
v 0.1328125 1.5959987701947664 -0.34745417254644806
vt 0 0.9296875
vt 0.109375 0.9296875
vt 0.109375 1
vt 0 1
vt 0.015625 0.3828125
vt 0.0234375 0.3828125
vt 0.0234375 0.453125
vt 0.015625 0.453125
vt 0.1640625 0.3359375
vt 0 0.3359375
vt 0 0.46875
vt 0.1640625 0.46875
vt 0 0.3828125
vt 0.0078125 0.3828125
vt 0.0078125 0.453125
vt 0 0.453125
vt 0 0.3671875
vt 0.109375 0.3671875
vt 0.109375 0.375
vt 0 0.375
vt 0 0.4609375
vt 0.109375 0.4609375
vt 0.109375 0.46875
vt 0 0.46875
vn 0 -0.7071067811865476 -0.7071067811865476
vn 1 0 0
vn 0 0.7071067811865476 0.7071067811865475
vn -1 0 0
vn 0 0.7071067811865485 -0.7071067811865467
vn 0 -0.7071067811865476 0.7071067811865476
usemtl m_1
f 105/313/79 106/314/79 107/315/79 108/316/79
f 109/317/80 105/318/80 108/319/80 110/320/80
f 111/321/81 109/322/81 110/323/81 112/324/81
f 106/325/82 111/326/82 112/327/82 107/328/82
f 112/329/83 110/330/83 108/331/83 107/332/83
f 106/333/84 105/334/84 109/335/84 111/336/84
o blueprint
v 0.453125 0.828125 0.3359375
v -0.4296875 0.828125 0.3359375
v -0.4296875 1.3308337272498112 -0.1667712272498112
v 0.453125 1.3308337272498112 -0.1667712272498112
v 0.453125 0.8723191738241592 0.38013167382415924
v 0.453125 1.3750279010739703 -0.12257705342565195
v -0.4296875 0.8723191738241592 0.38013167382415924
v -0.4296875 1.3750279010739703 -0.12257705342565195
vt 0 0.9296875
vt 0.109375 0.9296875
vt 0.109375 1
vt 0 1
vt 0.015625 0.3828125
vt 0.0234375 0.3828125
vt 0.0234375 0.453125
vt 0.015625 0.453125
vt 0.1640625 0.203125
vt 0 0.203125
vt 0 0.3359375
vt 0.1640625 0.3359375
vt 0 0.3828125
vt 0.0078125 0.3828125
vt 0.0078125 0.453125
vt 0 0.453125
vt 0 0.3671875
vt 0.109375 0.3671875
vt 0.109375 0.375
vt 0 0.375
vt 0 0.4609375
vt 0.109375 0.4609375
vt 0.109375 0.46875
vt 0 0.46875
vn 0 -0.7071067811865476 -0.7071067811865476
vn 1 0 0
vn 0 0.7071067811865476 0.7071067811865475
vn -1 0 0
vn 0 0.7071067811865483 -0.7071067811865467
vn 0 -0.7071067811865476 0.7071067811865476
usemtl m_1
f 113/337/85 114/338/85 115/339/85 116/340/85
f 117/341/86 113/342/86 116/343/86 118/344/86
f 119/345/87 117/346/87 118/347/87 120/348/87
f 114/349/88 119/350/88 120/351/88 115/352/88
f 120/353/89 118/354/89 116/355/89 115/356/89
f 114/357/90 113/358/90 117/359/90 119/360/90
o green
v 1.484375 0.8350570439671243 0.33681795603287573
v 0.734375 0.8350570439671243 0.33681795603287573
v 0.734375 0.9234453916154428 0.24842960838455727
v 1.484375 0.9234453916154428 0.24842960838455727
v 1.484375 0.8792512177912836 0.3810121298570349
v 1.484375 0.967639565439602 0.2926237822087165
v 0.734375 0.8792512177912836 0.3810121298570349
v 0.734375 0.967639565439602 0.2926237822087165
vt 0 0.984375
vt 0.09375 0.984375
vt 0.09375 1
vt 0 1
vt 0 0.984375
vt 0.0078125 0.984375
vt 0.0078125 1
vt 0 1
vt 0 0.125
vt 0.1875 0.125
vt 0.1875 0.1640625
vt 0 0.1640625
vt 0 0.984375
vt 0.0078125 0.984375
vt 0.0078125 1
vt 0 1
vt 0 0.9921875
vt 0.09375 0.9921875
vt 0.09375 1
vt 0 1
vt 0 0.9921875
vt 0.09375 0.9921875
vt 0.09375 1
vt 0 1
vn 0 -0.7071067811865474 -0.7071067811865477
vn 1 0 0
vn 0 0.7071067811865478 0.7071067811865474
vn -1 0 0
vn 0 0.7071067811865482 -0.7071067811865469
vn 0 -0.7071067811865471 0.707106781186548
usemtl m_1
f 121/361/91 122/362/91 123/363/91 124/364/91
f 125/365/92 121/366/92 124/367/92 126/368/92
f 127/369/93 125/370/93 126/371/93 128/372/93
f 122/373/94 127/374/94 128/375/94 123/376/94
f 128/377/95 126/378/95 124/379/95 123/380/95
f 122/381/96 121/382/96 125/383/96 127/384/96