# Blender v2.79 (sub 0) OBJ File: ''
# www.blender.org
mtllib fuelpump.mtl
o L_Bezel
v -0.375000 1.250000 0.312500
v -0.375000 0.687500 0.312500
v -0.375000 1.250000 0.250000
v -0.375000 0.687500 0.250000
v -0.437500 1.250000 0.250000
v -0.437500 0.687500 0.250000
v -0.437500 1.250000 0.312500
v -0.437500 0.687500 0.312500
vt 0.570312 0.515625
vt 0.570312 0.445312
vt 0.687500 0.515625
vt 0.687500 0.445312
vt 0.570312 0.515625
vt 0.570312 0.445312
vt 0.687500 0.515625
vt 0.687500 0.445312
vt 0.687500 0.515625
vt 0.570312 0.515625
vt 0.687500 0.445312
vt 0.570312 0.445312
vt 0.570312 0.445312
vt 0.687500 0.445312
vt 0.570312 0.515625
vt 0.687500 0.515625
vt 0.687500 0.515625
vt 0.687500 0.445312
vt 0.570312 0.515625
vt 0.570312 0.445312
vn 1.0000 0.0000 0.0000
vn -1.0000 0.0000 0.0000
vn 0.0000 1.0000 0.0000
vn 0.0000 -1.0000 0.0000
vn 0.0000 -0.0000 1.0000
vn 0.0000 0.0000 -1.0000
usemtl 0
s 1
f 1/1/1 2/2/1 3/3/1
f 2/2/1 4/4/1 3/3/1
f 5/5/2 6/6/2 7/7/2
f 6/6/2 8/8/2 7/7/2
f 5/9/3 7/10/3 3/11/3
f 7/10/3 1/12/3 3/11/3
f 8/13/4 6/14/4 2/15/4
f 6/14/4 4/16/4 2/15/4
f 7/10/5 8/13/5 1/17/5
f 8/13/5 2/18/5 1/17/5
f 3/19/6 4/20/6 5/9/6
f 4/20/6 6/14/6 5/9/6
o B_Bezel
v -0.375000 0.750000 0.250000
v -0.375000 0.750000 0.312500
v 0.375000 0.750000 0.250000
v 0.375000 0.750000 0.312500
v -0.375000 0.687500 0.312500
v -0.375000 0.687500 0.250000
v 0.375000 0.687500 0.312500
v 0.375000 0.687500 0.250000
vt 0.734375 0.507812
vt 0.664062 0.507812
vt 0.734375 0.476562
vt 0.664062 0.476562
vt 0.664062 0.476562
vt 0.734375 0.476562
vt 0.664062 0.507812
vt 0.734375 0.507812
vt 0.734375 0.507812
vt 0.734375 0.476562
vt 0.664062 0.507812
vt 0.664062 0.476562
vn 0.0000 1.0000 0.0000
vn 0.0000 -1.0000 0.0000
vn 0.0000 0.0000 1.0000
vn 0.0000 0.0000 -1.0000
usemtl 0
s 1
f 9/21/7 10/22/7 11/23/7
f 10/22/7 12/24/7 11/23/7
f 13/25/8 14/26/8 15/27/8
f 14/26/8 16/28/8 15/27/8
f 10/22/9 13/25/9 12/29/9
f 13/25/9 15/30/9 12/29/9
f 11/31/10 16/32/10 9/21/10
f 16/32/10 14/26/10 9/21/10
o Side_T
v 0.437500 1.250000 0.062500
v 0.437500 1.125000 0.062500
v 0.437500 1.250000 -0.125000
v 0.437500 1.125000 -0.125000
v 0.312500 1.250000 -0.125000
v 0.312500 1.250000 0.062500
v 0.312500 1.125000 0.062500
v 0.312500 1.125000 -0.125000
vt 0.625000 0.500000
vt 0.625000 0.453125
vt 0.812500 0.500000
vt 0.812500 0.453125
vt 0.812500 0.500000
vt 0.625000 0.500000
vt 0.812500 0.453125
vt 0.625000 0.453125
vt 0.625000 0.453125
vt 0.812500 0.453125
vt 0.625000 0.500000
vt 0.812500 0.500000
vt 0.812500 0.500000
vt 0.812500 0.453125
vt 0.625000 0.500000
vt 0.625000 0.453125
vn 1.0000 0.0000 0.0000
vn 0.0000 1.0000 0.0000
vn 0.0000 -1.0000 0.0000
vn 0.0000 -0.0000 1.0000
vn 0.0000 0.0000 -1.0000
usemtl 0
s 1
f 17/33/11 18/34/11 19/35/11
f 18/34/11 20/36/11 19/35/11
f 21/37/12 22/38/12 19/39/12
f 22/38/12 17/40/12 19/39/12
f 23/41/13 24/42/13 18/43/13
f 24/42/13 20/44/13 18/43/13
f 22/38/14 23/41/14 17/45/14
f 23/41/14 18/46/14 17/45/14
f 19/47/15 20/48/15 21/37/15
f 20/48/15 24/42/15 21/37/15
o Side_B
v 0.500000 0.812500 0.062500
v 0.500000 0.687500 0.062500
v 0.500000 0.812500 -0.125000
v 0.500000 0.687500 -0.125000
v 0.312500 0.812500 -0.125000
v 0.312500 0.812500 0.062500
v 0.312500 0.687500 0.062500
v 0.312500 0.687500 -0.125000
v 0.375000 0.937500 0.062500
v 0.375000 0.812500 0.062500
v 0.375000 0.937500 -0.125000
v 0.375000 0.812500 -0.125000
v 0.312500 0.937500 -0.125000
v 0.312500 0.937500 0.062500
v 0.312500 0.812500 0.062500
v 0.312500 0.812500 -0.125000
vt 0.156250 0.359375
vt 0.156250 0.171875
vt 0.343750 0.359375
vt 0.343750 0.171875
vt 0.343750 0.359375
vt 0.156250 0.359375
vt 0.343750 0.171875
vt 0.156250 0.171875
vt 0.156250 0.171875
vt 0.343750 0.171875
vt 0.156250 0.359375
vt 0.343750 0.359375
vt 0.343750 0.359375
vt 0.343750 0.171875
vt 0.156250 0.359375
vt 0.156250 0.171875
vt 0.109375 0.328125
vt 0.109375 0.265625
vt 0.296875 0.328125
vt 0.296875 0.265625
vt 0.296875 0.328125
vt 0.109375 0.328125
vt 0.296875 0.265625
vt 0.109375 0.265625
vt 0.109375 0.265625
vt 0.296875 0.265625
vt 0.109375 0.328125
vt 0.296875 0.328125
vt 0.296875 0.328125
vt 0.296875 0.265625
vt 0.109375 0.328125
vt 0.109375 0.265625
vn 1.0000 0.0000 0.0000
vn 0.0000 1.0000 0.0000
vn 0.0000 -1.0000 0.0000
vn 0.0000 -0.0000 1.0000
vn 0.0000 0.0000 -1.0000
usemtl 0
s 1
f 25/49/16 26/50/16 27/51/16
f 26/50/16 28/52/16 27/51/16
f 29/53/17 30/54/17 27/55/17
f 30/54/17 25/56/17 27/55/17
f 31/57/18 32/58/18 26/59/18
f 32/58/18 28/60/18 26/59/18
f 30/54/19 31/57/19 25/61/19
f 31/57/19 26/62/19 25/61/19
f 27/63/20 28/64/20 29/53/20
f 28/64/20 32/58/20 29/53/20
f 33/65/16 34/66/16 35/67/16
f 34/66/16 36/68/16 35/67/16
f 37/69/17 38/70/17 35/71/17
f 38/70/17 33/72/17 35/71/17
f 39/73/18 40/74/18 34/75/18
f 40/74/18 36/76/18 34/75/18
f 38/70/19 39/73/19 33/77/19
f 39/73/19 34/78/19 33/77/19
f 35/79/20 36/80/20 37/69/20
f 36/80/20 40/74/20 37/69/20
o T_Bezel
v -0.375000 1.250000 0.250000
v -0.375000 1.250000 0.312500
v 0.375000 1.250000 0.250000
v 0.375000 1.250000 0.312500
v -0.375000 1.187500 0.312500
v -0.375000 1.187500 0.250000
v 0.375000 1.187500 0.312500
v 0.375000 1.187500 0.250000
vt 0.765625 0.492188
vt 0.679688 0.492188
vt 0.765625 0.437500
vt 0.679688 0.437500
vt 0.679688 0.437500
vt 0.765625 0.437500
vt 0.679688 0.492188
vt 0.765625 0.492188
vt 0.765625 0.492188
vt 0.765625 0.437500
vt 0.679688 0.492188
vt 0.679688 0.437500
vn 0.0000 1.0000 0.0000
vn 0.0000 -1.0000 0.0000
vn 0.0000 0.0000 1.0000
vn 0.0000 0.0000 -1.0000
usemtl 0
s 1
f 41/81/21 42/82/21 43/83/21
f 42/82/21 44/84/21 43/83/21
f 45/85/22 46/86/22 47/87/22
f 46/86/22 48/88/22 47/87/22
f 42/82/23 45/85/23 44/89/23
f 45/85/23 47/90/23 44/89/23
f 43/91/24 48/92/24 41/81/24
f 48/92/24 46/86/24 41/81/24
o Side_L
v 0.437500 1.250000 0.250000
v 0.437500 0.687500 0.250000
v 0.437500 1.250000 0.062500
v 0.437500 0.687500 0.062500
v 0.312500 1.250000 0.062500
v 0.312500 1.250000 0.250000
v 0.312500 0.687500 0.250000
v 0.312500 0.687500 0.062500
vt 0.593750 0.492188
vt 0.593750 0.445312
vt 0.781250 0.492188
vt 0.781250 0.445312
vt 0.781250 0.492188
vt 0.593750 0.492188
vt 0.781250 0.445312
vt 0.593750 0.445312
vt 0.593750 0.445312
vt 0.781250 0.445312
vt 0.593750 0.492188
vt 0.781250 0.492188
vt 0.554688 1.000000
vt 0.554688 0.562500
vt 0.742188 1.000000
vt 0.742188 0.562500
vt 0.593750 0.492188
vt 0.593750 0.445312
vn 1.0000 0.0000 0.0000
vn 0.0000 1.0000 0.0000
vn 0.0000 -1.0000 -0.0000
vn 0.0000 -0.0000 1.0000
vn 0.0000 0.0000 -1.0000
usemtl 0
s 1
f 49/93/25 50/94/25 51/95/25
f 50/94/25 52/96/25 51/95/25
f 53/97/26 54/98/26 51/99/26
f 54/98/26 49/100/26 51/99/26
f 55/101/27 56/102/27 50/103/27
f 56/102/27 52/104/27 50/103/27
f 54/105/28 55/106/28 49/107/28
f 55/106/28 50/108/28 49/107/28
f 51/109/29 52/110/29 53/97/29
f 52/110/29 56/102/29 53/97/29
o R_Bezel
v 0.437500 1.250000 0.312500
v 0.437500 0.687500 0.312500
v 0.437500 1.250000 0.250000
v 0.437500 0.687500 0.250000
v 0.375000 1.250000 0.250000
v 0.375000 0.687500 0.250000
v 0.375000 1.250000 0.312500
v 0.375000 0.687500 0.312500
vt 0.562500 0.484375
vt 0.562500 0.453125
vt 0.625000 0.484375
vt 0.625000 0.453125
vt 0.562500 0.484375
vt 0.562500 0.453125
vt 0.625000 0.484375
vt 0.625000 0.453125
vt 0.625000 0.484375
vt 0.562500 0.484375
vt 0.625000 0.453125
vt 0.562500 0.453125
vt 0.562500 0.453125
vt 0.625000 0.453125
vt 0.562500 0.484375
vt 0.625000 0.484375
vt 0.625000 0.484375
vt 0.625000 0.453125
vt 0.562500 0.484375
vt 0.562500 0.453125
vn 1.0000 0.0000 0.0000
vn -1.0000 0.0000 0.0000
vn 0.0000 1.0000 0.0000
vn 0.0000 -1.0000 0.0000
vn 0.0000 -0.0000 1.0000
vn 0.0000 0.0000 -1.0000
usemtl 0
s 1
f 57/111/30 58/112/30 59/113/30
f 58/112/30 60/114/30 59/113/30
f 61/115/31 62/116/31 63/117/31
f 62/116/31 64/118/31 63/117/31
f 61/119/32 63/120/32 59/121/32
f 63/120/32 57/122/32 59/121/32
f 64/123/33 62/124/33 58/125/33
f 62/124/33 60/126/33 58/125/33
f 63/120/34 64/123/34 57/127/34
f 64/123/34 58/128/34 57/127/34
f 59/129/35 60/130/35 61/119/35
f 60/130/35 62/124/35 61/119/35
o Base
v 0.500000 0.062500 0.500000
v 0.500000 -0.000000 0.500000
v 0.500000 0.062500 -0.500000
v 0.500000 0.000000 -0.500000
v -0.500000 0.062500 -0.500000
v -0.500000 0.000000 -0.500000
v -0.500000 0.062500 0.500000
v -0.500000 -0.000000 0.500000
vt 0.015625 0.484375
vt 0.015625 0.015625
vt 0.492188 0.484375
vt 0.492188 0.015625
vt 0.015625 0.484375
vt 0.015625 0.015625
vt 0.492188 0.484375
vt 0.492188 0.015625
vt 0.492188 0.484375
vt 0.015625 0.484375
vt 0.492188 0.015625
vt 0.015625 0.015625
vt 0.015625 0.015625
vt 0.492188 0.015625
vt 0.015625 0.484375
vt 0.492188 0.484375
vt 0.492188 0.484375
vt 0.492188 0.015625
vt 0.015625 0.484375
vt 0.015625 0.015625
vn 1.0000 0.0000 0.0000
vn -1.0000 0.0000 0.0000
vn 0.0000 1.0000 0.0000
vn 0.0000 -1.0000 -0.0000
vn 0.0000 -0.0000 1.0000
vn 0.0000 0.0000 -1.0000
usemtl 0
s 1
f 65/131/36 66/132/36 67/133/36
f 66/132/36 68/134/36 67/133/36
f 69/135/37 70/136/37 71/137/37
f 70/136/37 72/138/37 71/137/37
f 69/139/38 71/140/38 67/141/38
f 71/140/38 65/142/38 67/141/38
f 72/143/39 70/144/39 66/145/39
f 70/144/39 68/146/39 66/145/39
f 71/140/40 72/143/40 65/147/40
f 72/143/40 66/148/40 65/147/40
f 67/149/41 68/150/41 69/139/41
f 68/150/41 70/144/41 69/139/41
o Stand
v 0.312500 0.687500 0.250000
v 0.312500 0.062500 0.250000
v 0.312500 0.687500 -0.250000
v 0.312500 0.062500 -0.250000
v -0.312500 0.687500 -0.250000
v -0.312500 0.062500 -0.250000
v -0.312500 0.687500 0.250000
v -0.312500 0.062500 0.250000
vt 0.507812 0.406250
vt 0.507812 0.007812
vt 0.992188 0.406250
vt 0.992188 0.007812
vt 0.515625 0.406250
vt 0.515625 0.007812
vt 0.992188 0.406250
vt 0.992188 0.007812
vt 0.000000 1.000000
vt 0.000000 0.492188
vt 0.500000 1.000000
vt 0.500000 0.492188
vt 0.000000 1.000000
vt 0.000000 0.500000
vt 0.500000 1.000000
vt 0.500000 0.500000
vn 1.0000 0.0000 0.0000
vn -1.0000 0.0000 0.0000
vn 0.0000 -0.0000 1.0000
vn 0.0000 0.0000 -1.0000
usemtl 0
s 1
f 73/151/42 74/152/42 75/153/42
f 74/152/42 76/154/42 75/153/42
f 77/155/43 78/156/43 79/157/43
f 78/156/43 80/158/43 79/157/43
f 79/159/44 80/160/44 73/161/44
f 80/160/44 74/162/44 73/161/44
f 75/163/45 76/164/45 77/165/45
f 76/164/45 78/166/45 77/165/45
o Top
v 0.312500 1.250000 0.250000
v 0.312500 0.687500 0.250000
v 0.312500 1.250000 -0.312500
v 0.312500 0.687500 -0.312500
v -0.437500 1.250000 -0.312500
v -0.437500 0.687500 -0.312500
v -0.437500 1.250000 0.250000
v -0.437500 0.687500 0.250000
vt 0.171875 0.328125
vt 0.171875 0.265625
vt 0.359375 0.328125
vt 0.359375 0.265625
vt 0.632812 0.515625
vt 0.632812 0.453125
vt 0.820312 0.515625
vt 0.820312 0.453125
vt 0.820312 0.515625
vt 0.632812 0.515625
vt 0.820312 0.453125
vt 0.632812 0.453125
vt 0.632812 0.453125
vt 0.820312 0.453125
vt 0.632812 0.515625
vt 0.820312 0.515625
vt 0.500000 1.000000
vt 0.500000 0.562500
vt 0.953125 1.000000
vt 0.953125 0.562500
vt 0.632812 0.515625
vt 0.632812 0.453125
vn 1.0000 0.0000 0.0000
vn -1.0000 0.0000 0.0000
vn 0.0000 1.0000 0.0000
vn 0.0000 -1.0000 -0.0000
vn 0.0000 -0.0000 1.0000
vn 0.0000 0.0000 -1.0000
usemtl 0
s 1
f 81/167/46 82/168/46 83/169/46
f 82/168/46 84/170/46 83/169/46
f 85/171/47 86/172/47 87/173/47
f 86/172/47 88/174/47 87/173/47
f 85/175/48 87/176/48 83/177/48
f 87/176/48 81/178/48 83/177/48
f 88/179/49 86/180/49 82/181/49
f 86/180/49 84/182/49 82/181/49
f 87/183/50 88/184/50 81/185/50
f 88/184/50 82/186/50 81/185/50
f 83/187/51 84/188/51 85/175/51
f 84/188/51 86/180/51 85/175/51
o Side_R
v 0.437500 1.250000 -0.125000
v 0.437500 0.687500 -0.125000
v 0.437500 1.250000 -0.312500
v 0.437500 0.687500 -0.312500
v 0.312500 1.250000 -0.312500
v 0.312500 1.250000 -0.125000
v 0.312500 0.687500 -0.125000
v 0.312500 0.687500 -0.312500
vt 0.632812 0.484375
vt 0.632812 0.453125
vt 0.820312 0.484375
vt 0.820312 0.453125
vt 0.820312 0.484375
vt 0.632812 0.484375
vt 0.820312 0.453125
vt 0.632812 0.453125
vt 0.632812 0.453125
vt 0.820312 0.453125
vt 0.632812 0.484375
vt 0.820312 0.484375
vt 0.820312 0.484375
vt 0.820312 0.453125
vt 0.632812 0.484375
vt 0.632812 0.453125
vn 1.0000 0.0000 0.0000
vn 0.0000 1.0000 0.0000
vn 0.0000 -1.0000 0.0000
vn 0.0000 -0.0000 1.0000
vn 0.0000 0.0000 -1.0000
usemtl 0
s 1
f 89/189/52 90/190/52 91/191/52
f 90/190/52 92/192/52 91/191/52
f 93/193/53 94/194/53 91/195/53
f 94/194/53 89/196/53 91/195/53
f 95/197/54 96/198/54 90/199/54
f 96/198/54 92/200/54 90/199/54
f 94/194/55 95/197/55 89/201/55
f 95/197/55 90/202/55 89/201/55
f 91/203/56 92/204/56 93/193/56
f 92/204/56 96/198/56 93/193/56
