# Blender v2.80 (sub 75) OBJ File: ''
# www.blender.org
mtllib itembench.mtl
o cube.181
v 0.437500 0.312500 0.125000
v 0.437500 0.000000 0.125000
v 0.437500 0.312500 -0.500000
v 0.437500 0.000000 -0.500000
v -0.437500 0.312500 -0.500000
v -0.437500 0.000000 -0.500000
v -0.437500 0.312500 0.125000
v -0.437500 0.000000 0.125000
vt 0.187500 0.914062
vt 0.187500 0.875000
vt 0.265625 0.914062
vt 0.265625 0.875000
vt 0.000000 0.914062
vt 0.000000 0.875000
vt 0.078125 0.914062
vt 0.078125 0.875000
vt 0.078125 0.992188
vt 0.187500 0.992188
vt 0.187500 0.914062
vt 0.187500 0.992188
vt 0.296875 0.914062
vt 0.296875 0.992188
vt 0.375000 0.914062
vt 0.375000 0.875000
vn 1.0000 0.0000 0.0000
vn -1.0000 0.0000 0.0000
vn 0.0000 1.0000 0.0000
vn 0.0000 -1.0000 -0.0000
vn 0.0000 -0.0000 1.0000
vn 0.0000 0.0000 -1.0000
usemtl 0.005
s 1
f 1/1/1 2/2/1 3/3/1
f 2/2/1 4/4/1 3/3/1
f 5/5/2 6/6/2 7/7/2
f 6/6/2 8/8/2 7/7/2
f 5/9/3 7/7/3 3/10/3
f 7/7/3 1/1/3 3/10/3
f 8/11/4 6/12/4 2/13/4
f 6/12/4 4/14/4 2/13/4
f 7/7/5 8/8/5 1/1/5
f 8/8/5 2/2/5 1/1/5
f 3/3/6 4/4/6 5/15/6
f 4/4/6 6/16/6 5/15/6
o cube.182
v 0.468750 0.062500 0.500000
v 0.468750 -0.000000 0.500000
v 0.468750 0.062500 0.187500
v 0.468750 -0.000000 0.187500
v -0.468750 0.062500 0.187500
v -0.468750 -0.000000 0.187500
v -0.468750 0.062500 0.500000
v -0.468750 -0.000000 0.500000
vt 0.398438 0.835938
vt 0.398438 0.828125
vt 0.437500 0.835938
vt 0.437500 0.828125
vt 0.242188 0.835938
vt 0.242188 0.828125
vt 0.281250 0.835938
vt 0.281250 0.828125
vt 0.281250 0.875000
vt 0.398438 0.875000
vt 0.398438 0.835938
vt 0.398438 0.875000
vt 0.515625 0.835938
vt 0.515625 0.875000
vt 0.554688 0.835938
vt 0.554688 0.828125
vn 1.0000 0.0000 0.0000
vn -1.0000 0.0000 0.0000
vn 0.0000 1.0000 0.0000
vn 0.0000 -1.0000 0.0000
vn 0.0000 -0.0000 1.0000
vn 0.0000 0.0000 -1.0000
usemtl 0.005
s 1
f 9/17/7 10/18/7 11/19/7
f 10/18/7 12/20/7 11/19/7
f 13/21/8 14/22/8 15/23/8
f 14/22/8 16/24/8 15/23/8
f 13/25/9 15/23/9 11/26/9
f 15/23/9 9/17/9 11/26/9
f 16/27/10 14/28/10 10/29/10
f 14/28/10 12/30/10 10/29/10
f 15/23/11 16/24/11 9/17/11
f 16/24/11 10/18/11 9/17/11
f 11/19/12 12/20/12 13/31/12
f 12/20/12 14/32/12 13/31/12
o cube.183
v 0.156250 0.343750 -0.000000
v 0.156250 0.312500 -0.000000
v 0.156250 0.343750 -0.312500
v 0.156250 0.312500 -0.312500
v -0.156250 0.343750 -0.312500
v -0.156250 0.312500 -0.312500
v -0.156250 0.343750 -0.000000
v -0.156250 0.312500 -0.000000
vt 0.265625 0.695312
vt 0.265625 0.695312
vt 0.304688 0.695312
vt 0.304688 0.695312
vt 0.265625 0.695312
vt 0.265625 0.695312
vt 0.304688 0.695312
vt 0.304688 0.695312
vt 0.226562 0.734375
vt 0.226562 0.695312
vt 0.265625 0.734375
vt 0.265625 0.695312
vt 0.265625 0.734375
vt 0.304688 0.695312
vt 0.304688 0.734375
vt 0.226562 0.695312
vt 0.226562 0.695312
vt 0.226562 0.695312
vn 1.0000 0.0000 0.0000
vn -1.0000 0.0000 0.0000
vn 0.0000 1.0000 0.0000
vn 0.0000 -1.0000 -0.0000
vn 0.0000 -0.0000 1.0000
vn 0.0000 0.0000 -1.0000
usemtl 0.005
s 1
f 17/33/13 18/34/13 19/35/13
f 18/34/13 20/36/13 19/35/13
f 21/37/14 22/38/14 23/39/14
f 22/38/14 24/40/14 23/39/14
f 21/41/15 23/42/15 19/43/15
f 23/42/15 17/33/15 19/43/15
f 24/44/16 22/45/16 18/46/16
f 22/45/16 20/47/16 18/46/16
f 23/42/17 24/48/17 17/33/17
f 24/48/17 18/34/17 17/33/17
f 19/49/18 20/50/18 21/37/18
f 20/50/18 22/38/18 21/37/18
o cube.184
v 0.375000 0.906250 0.125000
v 0.375000 0.343750 0.125000
v 0.375000 0.906250 -0.312500
v 0.375000 0.343750 -0.312500
v -0.375000 0.906250 -0.312500
v -0.375000 0.343750 -0.312500
v -0.375000 0.906250 0.125000
v -0.375000 0.343750 0.125000
vt 0.148438 0.820312
vt 0.148438 0.750000
vt 0.203125 0.820312
vt 0.203125 0.750000
vt 0.000000 0.820312
vt 0.000000 0.750000
vt 0.054688 0.820312
vt 0.054688 0.750000
vt 0.054688 0.875000
vt 0.148438 0.875000
vt 0.148438 0.820312
vt 0.148438 0.875000
vt 0.242188 0.820312
vt 0.242188 0.875000
vt 0.296875 0.820312
vt 0.296875 0.750000
vn 1.0000 0.0000 0.0000
vn -1.0000 0.0000 0.0000
vn 0.0000 1.0000 0.0000
vn 0.0000 -1.0000 -0.0000
vn 0.0000 -0.0000 1.0000
vn 0.0000 0.0000 -1.0000
usemtl 0.005
s 1
f 25/51/19 26/52/19 27/53/19
f 26/52/19 28/54/19 27/53/19
f 29/55/20 30/56/20 31/57/20
f 30/56/20 32/58/20 31/57/20
f 29/59/21 31/57/21 27/60/21
f 31/57/21 25/51/21 27/60/21
f 32/61/22 30/62/22 26/63/22
f 30/62/22 28/64/22 26/63/22
f 31/57/23 32/58/23 25/51/23
f 32/58/23 26/52/23 25/51/23
f 27/53/24 28/54/24 29/65/24
f 28/54/24 30/66/24 29/65/24
o cube.185
v 0.312500 0.843750 -0.312500
v 0.312500 0.406250 -0.312500
v 0.312500 0.843750 -0.437500
v 0.312500 0.406250 -0.437500
v -0.312500 0.843750 -0.437500
v -0.312500 0.406250 -0.437500
v -0.312500 0.843750 -0.312500
v -0.312500 0.406250 -0.312500
vt 0.093750 0.734375
vt 0.093750 0.679688
vt 0.109375 0.734375
vt 0.109375 0.679688
vt 0.000000 0.734375
vt 0.000000 0.679688
vt 0.015625 0.734375
vt 0.015625 0.679688
vt 0.015625 0.750000
vt 0.093750 0.750000
vt 0.093750 0.734375
vt 0.093750 0.750000
vt 0.171875 0.734375
vt 0.171875 0.750000
vt 0.187500 0.734375
vt 0.187500 0.679688
vn 1.0000 0.0000 0.0000
vn -1.0000 0.0000 0.0000
vn 0.0000 1.0000 0.0000
vn 0.0000 -1.0000 0.0000
vn 0.0000 -0.0000 1.0000
vn 0.0000 0.0000 -1.0000
usemtl 0.005
s 1
f 33/67/25 34/68/25 35/69/25
f 34/68/25 36/70/25 35/69/25
f 37/71/26 38/72/26 39/73/26
f 38/72/26 40/74/26 39/73/26
f 37/75/27 39/73/27 35/76/27
f 39/73/27 33/67/27 35/76/27
f 40/77/28 38/78/28 34/79/28
f 38/78/28 36/80/28 34/79/28
f 39/73/29 40/74/29 33/67/29
f 40/74/29 34/68/29 33/67/29
f 35/69/30 36/70/30 37/81/30
f 36/70/30 38/82/30 37/81/30
o cube.186
v -0.437500 0.037500 0.187500
v -0.437500 0.006250 0.187500
v -0.437500 0.037500 -0.531250
v -0.437500 0.006250 -0.531250
v -0.468750 0.037500 -0.531250
v -0.468750 0.006250 -0.531250
v -0.468750 0.037500 0.187500
v -0.468750 0.006250 0.187500
vt 0.296875 0.750000
vt 0.296875 0.742188
vt 0.382812 0.750000
vt 0.382812 0.742188
vt 0.210938 0.742188
vt 0.210938 0.734375
vt 0.296875 0.742188
vt 0.296875 0.734375
vt 0.304688 0.828125
vt 0.304688 0.742188
vt 0.296875 0.828125
vt 0.296875 0.742188
vt 0.304688 0.742188
vt 0.304688 0.828125
vt 0.296875 0.828125
vt 0.296875 0.742188
vt 0.382812 0.742188
vt 0.382812 0.742188
vt 0.382812 0.742188
vn 1.0000 0.0000 0.0000
vn -1.0000 0.0000 0.0000
vn 0.0000 1.0000 0.0000
vn 0.0000 -1.0000 -0.0000
vn 0.0000 0.0000 1.0000
vn 0.0000 0.0000 -1.0000
usemtl 0.005
s 1
f 41/83/31 42/84/31 43/85/31
f 42/84/31 44/86/31 43/85/31
f 45/87/32 46/88/32 47/89/32
f 46/88/32 48/90/32 47/89/32
f 45/91/33 47/92/33 43/93/33
f 47/92/33 41/94/33 43/93/33
f 48/95/34 46/96/34 42/84/34
f 46/96/34 44/97/34 42/84/34
f 47/89/35 48/98/35 41/94/35
f 48/98/35 42/84/35 41/94/35
f 43/99/36 44/86/36 45/100/36
f 44/86/36 46/101/36 45/100/36
o cube.187
v -0.446653 0.037500 -0.509153
v -0.446653 0.006250 -0.509153
v -0.424556 0.037500 -0.531250
v -0.424556 0.006250 -0.531250
v -0.446653 0.037500 -0.553347
v -0.446653 0.006250 -0.553347
v -0.468750 0.037500 -0.531250
v -0.468750 0.006250 -0.531250
vt 0.234375 0.734375
vt 0.234375 0.734375
vt 0.234375 0.734375
vt 0.234375 0.734375
vt 0.242188 0.742188
vt 0.242188 0.742188
vt 0.242188 0.742188
vt 0.242188 0.742188
vt 0.257812 0.734375
vt 0.257812 0.734375
vt 0.257812 0.734375
vt 0.257812 0.734375
vt 0.250000 0.742188
vt 0.250000 0.742188
vt 0.250000 0.742188
vt 0.250000 0.742188
vt 0.257812 0.742188
vt 0.257812 0.742188
vt 0.257812 0.742188
vt 0.257812 0.742188
vt 0.273438 0.742188
vt 0.273438 0.742188
vt 0.273438 0.742188
vt 0.273438 0.742188
vn 0.7071 0.0000 0.7071
vn -0.7071 0.0000 -0.7071
vn 0.0000 1.0000 0.0000
vn 0.0000 -1.0000 0.0000
vn -0.7071 0.0000 0.7071
vn 0.7071 0.0000 -0.7071
usemtl 0.005
s 1
f 49/102/37 50/103/37 51/104/37
f 50/103/37 52/105/37 51/104/37
f 53/106/38 54/107/38 55/108/38
f 54/107/38 56/109/38 55/108/38
f 53/110/39 55/111/39 51/112/39
f 55/111/39 49/113/39 51/112/39
f 56/114/40 54/115/40 50/116/40
f 54/115/40 52/117/40 50/116/40
f 55/118/41 56/119/41 49/120/41
f 56/119/41 50/121/41 49/120/41
f 51/122/42 52/123/42 53/124/42
f 52/123/42 54/125/42 53/124/42
o cube.188
v -0.314256 0.037500 -0.464682
v -0.314256 0.006250 -0.464682
v -0.302297 0.037500 -0.493553
v -0.302297 0.006250 -0.493553
v -0.446653 0.037500 -0.553347
v -0.446653 0.006250 -0.553347
v -0.458612 0.037500 -0.524476
v -0.458612 0.006250 -0.524476
vt 0.015625 0.992188
vt 0.015625 0.992188
vt 0.015625 0.992188
vt 0.015625 0.992188
vt 0.000000 0.992188
vt 0.000000 0.992188
vt 0.000000 0.992188
vt 0.000000 0.992188
vt 0.015625 0.992188
vt 0.015625 0.992188
vt 0.031250 0.992188
vt 0.031250 0.992188
vt 0.031250 0.992188
vt 0.031250 0.992188
vn 0.9239 0.0000 0.3827
vn -0.9239 0.0000 -0.3827
vn 0.0000 1.0000 0.0000
vn 0.0000 -1.0000 0.0000
vn -0.3827 0.0000 0.9239
vn 0.3827 0.0000 -0.9239
usemtl 0.005
s 1
f 57/126/43 58/127/43 59/128/43
f 58/127/43 60/129/43 59/128/43
f 61/130/44 62/131/44 63/132/44
f 62/131/44 64/133/44 63/132/44
f 61/130/45 63/132/45 59/128/45
f 63/132/45 57/126/45 59/128/45
f 64/134/46 62/135/46 58/136/46
f 62/135/46 60/137/46 58/136/46
f 63/132/47 64/133/47 57/126/47
f 64/133/47 58/127/47 57/126/47
f 59/128/48 60/129/48 61/138/48
f 60/129/48 62/139/48 61/138/48
