# Made in Blockbench 4.1.1
mtllib propellerbench.mtl

o Plate
v 1.015625 1 1.140625
v 1.015625 0.8125 1.140625
v 1.015625 1 0.265625
v 1.015625 0.8125 0.265625
v -0.984375 1 0.265625
v -0.984375 0.8125 0.265625
v -0.984375 1 1.140625
v -0.984375 0.8125 1.140625
vt 0.625 0.7109375
vt 0.625 0.6875
vt 0.515625 0.7109375
vt 0.625 0.6875
vt 0.515625 0.6875
vt 0.515625 0.7109375
vt 0.625 0.6796875
vt 0.625 0.65625
vt 0.515625 0.6796875
vt 0.625 0.65625
vt 0.515625 0.65625
vt 0.515625 0.6796875
vt 0.25 0.765625
vt 0.25 0.65625
vt 0 0.765625
vt 0.25 0.65625
vt 0 0.65625
vt 0 0.765625
vt 0.5078125 0.765625
vt 0.5078125 0.65625
vt 0.2578125 0.765625
vt 0.5078125 0.65625
vt 0.2578125 0.65625
vt 0.2578125 0.765625
vt 0.7421875 0.6015625
vt 0.7421875 0.578125
vt 0.4921875 0.6015625
vt 0.7421875 0.578125
vt 0.4921875 0.578125
vt 0.4921875 0.6015625
vt 0.7421875 0.5703125
vt 0.7421875 0.546875
vt 0.4921875 0.5703125
vt 0.7421875 0.546875
vt 0.4921875 0.546875
vt 0.4921875 0.5703125
vn 1 0 0
vn 1 0 0
vn -1 0 0
vn -1 0 0
vn 0 1 0
vn 0 1 0
vn 0 -1 0
vn 0 -1 0
vn 0 0 1
vn 0 0 1
vn 0 0 -1
vn 0 0 -1
usemtl m_0
f 1/1/1 2/2/1 3/3/1
f 2/4/2 4/5/2 3/6/2
f 5/7/3 6/8/3 7/9/3
f 6/10/4 8/11/4 7/12/4
f 5/13/5 7/14/5 3/15/5
f 7/16/6 1/17/6 3/18/6
f 8/19/7 6/20/7 2/21/7
f 6/22/8 4/23/8 2/24/8
f 7/25/9 8/26/9 1/27/9
f 8/28/10 2/29/10 1/30/10
f 3/31/11 4/32/11 5/33/11
f 4/34/12 6/35/12 5/36/12
o UpperBase
v 0.265625 0.8125 1.328125
v 0.265625 0.4375 1.328125
v 0.265625 0.8125 -0.484375
v 0.265625 0.4375 -0.484375
v -0.234375 0.8125 -0.484375
v -0.234375 0.4375 -0.484375
v -0.234375 0.8125 1.328125
v -0.234375 0.4375 1.328125
vt 0.5625 0.875
vt 0.5625 0.828125
vt 0.3359375 0.875
vt 0.5625 0.828125
vt 0.3359375 0.828125
vt 0.3359375 0.875
vt 0.5625 0.8203125
vt 0.5625 0.7734375
vt 0.3359375 0.8203125
vt 0.5625 0.7734375
vt 0.3359375 0.7734375
vt 0.3359375 0.8203125
vt 0.328125 1
vt 0.328125 0.7734375
vt 0.265625 1
vt 0.328125 0.7734375
vt 0.265625 0.7734375
vt 0.265625 1
vt 0.203125 0.484375
vt 0.203125 0.4375
vt 0.140625 0.484375
vt 0.203125 0.4375
vt 0.140625 0.4375
vt 0.140625 0.484375
vt 0.578125 0.765625
vt 0.578125 0.71875
vt 0.515625 0.765625
vt 0.578125 0.71875
vt 0.515625 0.71875
vt 0.515625 0.765625
vn 1 0 0
vn 1 0 0
vn -1 0 0
vn -1 0 0
vn 0 1 0
vn 0 1 0
vn 0 0 1
vn 0 0 1
vn 0 0 -1
vn 0 0 -1
usemtl m_0
f 9/37/13 10/38/13 11/39/13
f 10/40/14 12/41/14 11/42/14
f 13/43/15 14/44/15 15/45/15
f 14/46/16 16/47/16 15/48/16
f 13/49/17 15/50/17 11/51/17
f 15/52/18 9/53/18 11/54/18
f 15/55/19 16/56/19 9/57/19
f 16/58/20 10/59/20 9/60/20
f 11/61/21 12/62/21 13/63/21
f 12/64/22 14/65/22 13/66/22
o Base
v 0.515625 0.4375 1.328125
v 0.515625 0 1.328125
v 0.515625 0.4375 -0.484375
v 0.515625 0 -0.484375
v -0.484375 0.4375 -0.484375
v -0.484375 0 -0.484375
v -0.484375 0.4375 1.328125
v -0.484375 0 1.328125
vt 0.5625 1
vt 0.5625 0.9453125
vt 0.3359375 1
vt 0.5625 0.9453125
vt 0.3359375 0.9453125
vt 0.3359375 1
vt 0.5625 0.9375
vt 0.5625 0.8828125
vt 0.3359375 0.9375
vt 0.5625 0.8828125
vt 0.3359375 0.8828125
vt 0.3359375 0.9375
vt 0.125 1
vt 0.125 0.7734375
vt 0 1
vt 0.125 0.7734375
vt 0 0.7734375
vt 0 1
vt 0.2578125 1
vt 0.2578125 0.7734375
vt 0.1328125 1
vt 0.2578125 0.7734375
vt 0.1328125 0.7734375
vt 0.1328125 1
vt 0.484375 0.6484375
vt 0.484375 0.59375
vt 0.359375 0.6484375
vt 0.484375 0.59375
vt 0.359375 0.59375
vt 0.359375 0.6484375
vt 0.484375 0.5859375
vt 0.484375 0.53125
vt 0.359375 0.5859375
vt 0.484375 0.53125
vt 0.359375 0.53125
vt 0.359375 0.5859375
vn 1 0 0
vn 1 0 0
vn -1 0 0
vn -1 0 0
vn 0 1 0
vn 0 1 0
vn 0 -1 0
vn 0 -1 0
vn 0 0 1
vn 0 0 1
vn 0 0 -1
vn 0 0 -1
usemtl m_0
f 17/67/23 18/68/23 19/69/23
f 18/70/24 20/71/24 19/72/24
f 21/73/25 22/74/25 23/75/25
f 22/76/26 24/77/26 23/78/26
f 21/79/27 23/80/27 19/81/27
f 23/82/28 17/83/28 19/84/28
f 24/85/29 22/86/29 18/87/29
f 22/88/30 20/89/30 18/90/30
f 23/91/31 24/92/31 17/93/31
f 24/94/32 18/95/32 17/96/32
f 19/97/33 20/98/33 21/99/33
f 20/100/34 22/101/34 21/102/34
o TopBase
v 0.453125 1.5 0.015625
v 0.453125 0.8125 0.015625
v 0.453125 1.5 -0.484375
v 0.453125 0.8125 -0.484375
v -0.421875 1.5 -0.484375
v -0.421875 0.8125 -0.484375
v -0.421875 1.5 0.015625
v -0.421875 0.8125 0.015625
vt 0.0625 0.484375
vt 0.0625 0.3984375
vt 0 0.484375
vt 0.0625 0.3984375
vt 0 0.3984375
vt 0 0.484375
vt 0.1328125 0.484375
vt 0.1328125 0.3984375
vt 0.0703125 0.484375
vt 0.1328125 0.3984375
vt 0.0703125 0.3984375
vt 0.0703125 0.484375
vt 0.109375 0.5546875
vt 0.109375 0.4921875
vt 0 0.5546875
vt 0.109375 0.4921875
vt 0 0.4921875
vt 0 0.5546875
vt 0.2265625 0.5546875
vt 0.2265625 0.4921875
vt 0.1171875 0.5546875
vt 0.2265625 0.4921875
vt 0.1171875 0.4921875
vt 0.1171875 0.5546875
vt 0.109375 0.6484375
vt 0.109375 0.5625
vt 0 0.6484375
vt 0.109375 0.5625
vt 0 0.5625
vt 0 0.6484375
vt 0.2265625 0.6484375
vt 0.2265625 0.5625
vt 0.1171875 0.6484375
vt 0.2265625 0.5625
vt 0.1171875 0.5625
vt 0.1171875 0.6484375
vn 1 0 0
vn 1 0 0
vn -1 0 0
vn -1 0 0
vn 0 1 0
vn 0 1 0
vn 0 -1 0
vn 0 -1 0
vn 0 0 1
vn 0 0 1
vn 0 0 -1
vn 0 0 -1
usemtl m_0
f 25/103/35 26/104/35 27/105/35
f 26/106/36 28/107/36 27/108/36
f 29/109/37 30/110/37 31/111/37
f 30/112/38 32/113/38 31/114/38
f 29/115/39 31/116/39 27/117/39
f 31/118/40 25/119/40 27/120/40
f 32/121/41 30/122/41 26/123/41
f 30/124/42 28/125/42 26/126/42
f 31/127/43 32/128/43 25/129/43
f 32/130/44 26/131/44 25/132/44
f 27/133/45 28/134/45 29/135/45
f 28/136/46 30/137/46 29/138/46
o Top
v 0.234375 1.8125 1.015625
v 0.234375 1.5 1.015625
v 0.234375 1.8125 -0.296875
v 0.234375 1.5 -0.296875
v -0.203125 1.8125 -0.296875
v -0.203125 1.5 -0.296875
v -0.203125 1.8125 1.015625
v -0.203125 1.5 1.015625
vt 0.5234375 0.5234375
vt 0.5234375 0.484375
vt 0.359375 0.5234375
vt 0.5234375 0.484375
vt 0.359375 0.484375
vt 0.359375 0.5234375
vt 0.65625 0.6484375
vt 0.65625 0.609375
vt 0.4921875 0.6484375
vt 0.65625 0.609375
vt 0.4921875 0.609375
vt 0.4921875 0.6484375
vt 0.2890625 0.6484375
vt 0.2890625 0.484375
vt 0.234375 0.6484375
vt 0.2890625 0.484375
vt 0.234375 0.484375
vt 0.234375 0.6484375
vt 0.3515625 0.6484375
vt 0.3515625 0.484375
vt 0.296875 0.6484375
vt 0.3515625 0.484375
vt 0.296875 0.484375
vt 0.296875 0.6484375
vt 0.265625 0.4765625
vt 0.265625 0.4375
vt 0.2109375 0.4765625
vt 0.265625 0.4375
vt 0.2109375 0.4375
vt 0.2109375 0.4765625
vt 0.328125 0.4765625
vt 0.328125 0.4375
vt 0.2734375 0.4765625
vt 0.328125 0.4375
vt 0.2734375 0.4375
vt 0.2734375 0.4765625
vn 1 0 0
vn 1 0 0
vn -1 0 0
vn -1 0 0
vn 0 1 0
vn 0 1 0
vn 0 -1 0
vn 0 -1 0
vn 0 0 1
vn 0 0 1
vn 0 0 -1
vn 0 0 -1
usemtl m_0
f 33/139/47 34/140/47 35/141/47
f 34/142/48 36/143/48 35/144/48
f 37/145/49 38/146/49 39/147/49
f 38/148/50 40/149/50 39/150/50
f 37/151/51 39/152/51 35/153/51
f 39/154/52 33/155/52 35/156/52
f 40/157/53 38/158/53 34/159/53
f 38/160/54 36/161/54 34/162/54
f 39/163/55 40/164/55 33/165/55
f 40/166/56 34/167/56 33/168/56
f 35/169/57 36/170/57 37/171/57
f 36/172/58 38/173/58 37/174/58
o NorthBit
v 0.046875 1.5 0.953125
v 0.046875 1.1875 0.953125
v 0.046875 1.5 0.890625
v 0.046875 1.1875 0.890625
v -0.015625 1.5 0.890625
v -0.015625 1.1875 0.890625
v -0.015625 1.5 0.953125
v -0.015625 1.1875 0.953125
vt 0.4375 0.4765625
vt 0.4375 0.4375
vt 0.4296875 0.4765625
vt 0.4375 0.4375
vt 0.4296875 0.4375
vt 0.4296875 0.4765625
vt 0.453125 0.4765625
vt 0.453125 0.4375
vt 0.4453125 0.4765625
vt 0.453125 0.4375
vt 0.4453125 0.4375
vt 0.4453125 0.4765625
vt 0.5 0.5390625
vt 0.5 0.53125
vt 0.4921875 0.5390625
vt 0.5 0.53125
vt 0.4921875 0.53125
vt 0.4921875 0.5390625
vt 0.46875 0.4765625
vt 0.46875 0.4375
vt 0.4609375 0.4765625
vt 0.46875 0.4375
vt 0.4609375 0.4375
vt 0.4609375 0.4765625
vt 0.484375 0.4765625
vt 0.484375 0.4375
vt 0.4765625 0.4765625
vt 0.484375 0.4375
vt 0.4765625 0.4375
vt 0.4765625 0.4765625
vn 1 0 0
vn 1 0 0
vn -1 0 0
vn -1 0 0
vn 0 -1 0
vn 0 -1 0
vn 0 0 1
vn 0 0 1
vn 0 0 -1
vn 0 0 -1
usemtl m_0
f 41/175/59 42/176/59 43/177/59
f 42/178/60 44/179/60 43/180/60
f 45/181/61 46/182/61 47/183/61
f 46/184/62 48/185/62 47/186/62
f 48/187/63 46/188/63 42/189/63
f 46/190/64 44/191/64 42/192/64
f 47/193/65 48/194/65 41/195/65
f 48/196/66 42/197/66 41/198/66
f 43/199/67 44/200/67 45/201/67
f 44/202/68 46/203/68 45/204/68
o LowerSouthBit
v 0.046875 1.3125 0.484375
v 0.046875 1.1875 0.484375
v 0.046875 1.3125 0.421875
v 0.046875 1.1875 0.421875
v -0.015625 1.3125 0.421875
v -0.015625 1.1875 0.421875
v -0.015625 1.3125 0.484375
v -0.015625 1.1875 0.484375
vt 0.5234375 0.4765625
vt 0.5234375 0.4609375
vt 0.515625 0.4765625
vt 0.5234375 0.4609375
vt 0.515625 0.4609375
vt 0.515625 0.4765625
vt 0.5390625 0.5390625
vt 0.5390625 0.5234375
vt 0.53125 0.5390625
vt 0.5390625 0.5234375
vt 0.53125 0.5234375
vt 0.53125 0.5390625
vt 0.515625 0.5390625
vt 0.515625 0.53125
vt 0.5078125 0.5390625
vt 0.515625 0.53125
vt 0.5078125 0.53125
vt 0.5078125 0.5390625
vt 0.5390625 0.515625
vt 0.5390625 0.5
vt 0.53125 0.515625
vt 0.5390625 0.5
vt 0.53125 0.5
vt 0.53125 0.515625
vt 0.5390625 0.4921875
vt 0.5390625 0.4765625
vt 0.53125 0.4921875
vt 0.5390625 0.4765625
vt 0.53125 0.4765625
vt 0.53125 0.4921875
vn 1 0 0
vn 1 0 0
vn -1 0 0
vn -1 0 0
vn 0 -1 0
vn 0 -1 0
vn 0 0 1
vn 0 0 1
vn 0 0 -1
vn 0 0 -1
usemtl m_0
f 49/205/69 50/206/69 51/207/69
f 50/208/70 52/209/70 51/210/70
f 53/211/71 54/212/71 55/213/71
f 54/214/72 56/215/72 55/216/72
f 56/217/73 54/218/73 50/219/73
f 54/220/74 52/221/74 50/222/74
f 55/223/75 56/224/75 49/225/75
f 56/226/76 50/227/76 49/228/76
f 51/229/77 52/230/77 53/231/77
f 52/232/78 54/233/78 53/234/78
o UpperSouthBit
v 0.078125 1.5 0.515625
v 0.078125 1.3125 0.515625
v 0.078125 1.5 0.390625
v 0.078125 1.3125 0.390625
v -0.046875 1.5 0.390625
v -0.046875 1.3125 0.390625
v -0.046875 1.5 0.515625
v -0.046875 1.3125 0.515625
vt 0.3515625 0.4765625
vt 0.3515625 0.453125
vt 0.3359375 0.4765625
vt 0.3515625 0.453125
vt 0.3359375 0.453125
vt 0.3359375 0.4765625
vt 0.375 0.4765625
vt 0.375 0.453125
vt 0.359375 0.4765625
vt 0.375 0.453125
vt 0.359375 0.453125
vt 0.359375 0.4765625
vt 0.5078125 0.4765625
vt 0.5078125 0.4609375
vt 0.4921875 0.4765625
vt 0.5078125 0.4609375
vt 0.4921875 0.4609375
vt 0.4921875 0.4765625
vt 0.3984375 0.4765625
vt 0.3984375 0.453125
vt 0.3828125 0.4765625
vt 0.3984375 0.453125
vt 0.3828125 0.453125
vt 0.3828125 0.4765625
vt 0.421875 0.4765625
vt 0.421875 0.453125
vt 0.40625 0.4765625
vt 0.421875 0.453125
vt 0.40625 0.453125
vt 0.40625 0.4765625
vn 1 0 0
vn 1 0 0
vn -1 0 0
vn -1 0 0
vn 0 -1 0
vn 0 -1 0
vn 0 0 1
vn 0 0 1
vn 0 0 -1
vn 0 0 -1
usemtl m_0
f 57/235/79 58/236/79 59/237/79
f 58/238/80 60/239/80 59/240/80
f 61/241/81 62/242/81 63/243/81
f 62/244/82 64/245/82 63/246/82
f 64/247/83 62/248/83 58/249/83
f 62/250/84 60/251/84 58/252/84
f 63/253/85 64/254/85 57/255/85
f 64/256/86 58/257/86 57/258/86
f 59/259/87 60/260/87 61/261/87
f 60/262/88 62/263/88 61/264/88
o cube
v 0.15625 2.125 0.765625
v 0.15625 2.125 0.484375
v 0.15625 1.8125 0.765625
v 0.15625 1.8125 0.484375
v -0.125 2.125 0.484375
v -0.125 2.125 0.765625
v -0.125 1.8125 0.484375
v -0.125 1.8125 0.765625
vt 0.21875 0.3671875
vt 0.25390625 0.3671875
vt 0.25390625 0.328125
vt 0.21875 0.328125
vt 0.140625 0.3671875
vt 0.17578125 0.3671875
vt 0.17578125 0.328125
vt 0.140625 0.328125
vt 0.0234375 0.3671875
vt 0.05859375 0.3671875
vt 0.05859375 0.328125
vt 0.0234375 0.328125
vt 0.1015625 0.3671875
vt 0.13671875 0.3671875
vt 0.13671875 0.328125
vt 0.1015625 0.328125
vt 0.1796875 0.3671875
vt 0.21484375 0.3671875
vt 0.21484375 0.33203125
vt 0.1796875 0.33203125
vt 0.0625 0.3671875
vt 0.09765625 0.3671875
vt 0.09765625 0.33203125
vt 0.0625 0.33203125
vn 0 0 -1
vn 1 0 0
vn 0 0 1
vn -1 0 0
vn 0 1 0
vn 0 -1 0
usemtl m_0
f 68/268/89 71/267/89 69/266/89 66/265/89
f 67/272/90 68/271/90 66/270/90 65/269/90
f 72/276/91 67/275/91 65/274/91 70/273/91
f 71/280/92 72/279/92 70/278/92 69/277/92
f 70/284/93 65/283/93 66/282/93 69/281/93
f 71/288/94 68/287/94 67/286/94 72/285/94
o cube
v 0.234375 0.9375 0.3125
v 0.234375 0.9375 0
v 0.234375 0.8125 0.3125
v 0.234375 0.8125 0
v 0.109375 0.9375 0
v 0.109375 0.9375 0.3125
v 0.109375 0.8125 0
v 0.109375 0.8125 0.3125
vt 0 1
vt 0.015625 1
vt 0.015625 0.984375
vt 0 0.984375
vt 0 0.390625
vt 0.0390625 0.390625
vt 0.0390625 0.375
vt 0 0.375
vt 0 1
vt 0.015625 1
vt 0.015625 0.984375
vt 0 0.984375
vt 0 0.390625
vt 0.0390625 0.390625
vt 0.0390625 0.375
vt 0 0.375
vt 0 0.3671875
vt 0.015625 0.3671875
vt 0.015625 0.328125
vt 0 0.328125
vt 0 1
vt 0.015625 1
vt 0.015625 0.9609375
vt 0 0.9609375
vn 0 0 -1
vn 1 0 0
vn 0 0 1
vn -1 0 0
vn 0 1 0
vn 0 -1 0
usemtl none
f 76/292/95 79/291/95 77/290/95 74/289/95
usemtl m_0
f 75/296/96 76/295/96 74/294/96 73/293/96
usemtl none
f 80/300/97 75/299/97 73/298/97 78/297/97
usemtl m_0
f 79/304/98 80/303/98 78/302/98 77/301/98
f 78/308/99 73/307/99 74/306/99 77/305/99
usemtl none
f 79/312/100 76/311/100 75/310/100 80/309/100
o cube
v -0.078125 0.9375 0.3125
v -0.078125 0.9375 0
v -0.078125 0.8125 0.3125
v -0.078125 0.8125 0
v -0.203125 0.9375 0
v -0.203125 0.9375 0.3125
v -0.203125 0.8125 0
v -0.203125 0.8125 0.3125
vt 0 1
vt 0.015625 1
vt 0.015625 0.984375
vt 0 0.984375
vt 0 0.390625
vt 0.0390625 0.390625
vt 0.0390625 0.375
vt 0 0.375
vt 0 1
vt 0.015625 1
vt 0.015625 0.984375
vt 0 0.984375
vt 0 0.390625
vt 0.0390625 0.390625
vt 0.0390625 0.375
vt 0 0.375
vt 0 0.3671875
vt 0.015625 0.3671875
vt 0.015625 0.328125
vt 0 0.328125
vt 0 1
vt 0.015625 1
vt 0.015625 0.9609375
vt 0 0.9609375
vn 0 0 -1
vn 1 0 0
vn 0 0 1
vn -1 0 0
vn 0 1 0
vn 0 -1 0
usemtl none
f 84/316/101 87/315/101 85/314/101 82/313/101
usemtl m_0
f 83/320/102 84/319/102 82/318/102 81/317/102
usemtl none
f 88/324/103 83/323/103 81/322/103 86/321/103
usemtl m_0
f 87/328/104 88/327/104 86/326/104 85/325/104
f 86/332/105 81/331/105 82/330/105 85/329/105
usemtl none
f 87/336/106 84/335/106 83/334/106 88/333/106
o cube
v 0.453125 0.375 1.375
v 0.453125 0.375 1.3125
v 0.453125 0.125 1.375
v 0.453125 0.125 1.3125
v 0.140625 0.375 1.3125
v 0.140625 0.375 1.375
v 0.140625 0.125 1.3125
v 0.140625 0.125 1.375
vt 0.140625 0.3984375
vt 0.1796875 0.3984375
vt 0.1796875 0.3671875
vt 0.140625 0.3671875
vt 0.2421875 0.421875
vt 0.25 0.421875
vt 0.25 0.390625
vt 0.2421875 0.390625
vt 0.140625 0.4296875
vt 0.1796875 0.4296875
vt 0.1796875 0.3984375
vt 0.140625 0.3984375
vt 0.234375 0.421875
vt 0.2421875 0.421875
vt 0.2421875 0.390625
vt 0.234375 0.390625
vt 0.234375 0.4375
vt 0.2734375 0.4375
vt 0.2734375 0.4296875
vt 0.234375 0.4296875
vt 0.234375 0.4296875
vt 0.2734375 0.4296875
vt 0.2734375 0.421875
vt 0.234375 0.421875
vn 0 0 -1
vn 1 0 0
vn 0 0 1
vn -1 0 0
vn 0 1 0
vn 0 -1 0
usemtl m_0
f 92/340/107 95/339/107 93/338/107 90/337/107
f 91/344/108 92/343/108 90/342/108 89/341/108
f 96/348/109 91/347/109 89/346/109 94/345/109
f 95/352/110 96/351/110 94/350/110 93/349/110
f 94/356/111 89/355/111 90/354/111 93/353/111
f 95/360/112 92/359/112 91/358/112 96/357/112
o cube
v 0.296875 0.234375 1.40625
v 0.296875 0.234375 1.34375
v 0.296875 0.140625 1.40625
v 0.296875 0.140625 1.34375
v 0.203125 0.234375 1.34375
v 0.203125 0.234375 1.40625
v 0.203125 0.140625 1.34375
v 0.203125 0.140625 1.40625
vt 0 1
vt 0.01171875 1
vt 0.01171875 0.98828125
vt 0 0.98828125
vt 0.2265625 0.4296875
vt 0.234375 0.4296875
vt 0.234375 0.41796875
vt 0.2265625 0.41796875
vt 0.1875 0.4140625
vt 0.2109375 0.4140625
vt 0.2109375 0.390625
vt 0.1875 0.390625
vt 0.21875 0.4296875
vt 0.2265625 0.4296875
vt 0.2265625 0.41796875
vt 0.21875 0.41796875
vt 0.203125 0.421875
vt 0.21484375 0.421875
vt 0.21484375 0.4140625
vt 0.203125 0.4140625
vt 0.203125 0.4296875
vt 0.21484375 0.4296875
vt 0.21484375 0.421875
vt 0.203125 0.421875
vn 0 0 -1
vn 1 0 0
vn 0 0 1
vn -1 0 0
vn 0 1 0
vn 0 -1 0
usemtl none
f 100/364/113 103/363/113 101/362/113 98/361/113
usemtl m_0
f 99/368/114 100/367/114 98/366/114 97/365/114
f 104/372/115 99/371/115 97/370/115 102/369/115
f 103/376/116 104/375/116 102/374/116 101/373/116
f 102/380/117 97/379/117 98/378/117 101/377/117
f 103/384/118 100/383/118 99/382/118 104/381/118
o cube
v -0.28125000000000006 0.40310921676911454 1.375
v -0.28125000000000006 0.40310921676911454 1.3125
v -0.10447330470336313 0.22633252147247768 1.375
v -0.10447330470336313 0.22633252147247768 1.3125
v -0.4580266952966369 0.22633252147247762 1.3125
v -0.4580266952966369 0.22633252147247762 1.375
v -0.28125 0.04955582617584078 1.3125
v -0.28125 0.04955582617584078 1.375
vt 0.0625 0.9765625
vt 0.09375 0.9765625
vt 0.09375 0.9453125
vt 0.0625 0.9453125
vt 0.0078125 0.25
vt 0.015625 0.25
vt 0.015625 0.21875
vt 0.0078125 0.21875
vt 0 0.3125
vt 0.0390625 0.3125
vt 0.0390625 0.2734375
vt 0 0.2734375
vt 0 0.25
vt 0.0078125 0.25
vt 0.0078125 0.21875
vt 0 0.21875
vt 0 0.2578125
vt 0.03125 0.2578125
vt 0.03125 0.25
vt 0 0.25
vt 0 0.265625
vt 0.03125 0.265625
vt 0.03125 0.2578125
vt 0 0.2578125
vn 0 0 -1
vn 0.7071067811865475 0.7071067811865477 0
vn 0 0 1
vn -0.7071067811865475 -0.7071067811865477 0
vn -0.7071067811865477 0.7071067811865475 0
vn 0.7071067811865477 -0.7071067811865475 0
usemtl m_0
f 108/388/119 111/387/119 109/386/119 106/385/119
f 107/392/120 108/391/120 106/390/120 105/389/120
f 112/396/121 107/395/121 105/394/121 110/393/121
f 111/400/122 112/399/122 110/398/122 109/397/122
f 110/404/123 105/403/123 106/402/123 109/401/123
f 111/408/124 108/407/124 107/406/124 112/405/124
o cube
v -0.28059323855786616 0.627683910191675 1.375
v -0.28059323855786616 0.627683910191675 1.3125
v -0.10736582621199992 0.6994370537601293 1.375
v -0.10736582621199992 0.6994370537601293 1.3125
v -0.2088400949894118 0.45445649784580877 1.3125
v -0.2088400949894118 0.45445649784580877 1.375
v -0.03561268264354557 0.5262096414142631 1.3125
v -0.03561268264354557 0.5262096414142631 1.375
vt 0.0625 0.9765625
vt 0.09375 0.9765625
vt 0.09375 0.9453125
vt 0.0625 0.9453125
vt 0.0078125 0.25
vt 0.015625 0.25
vt 0.015625 0.21875
vt 0.0078125 0.21875
vt 0 0.3125
vt 0.0390625 0.3125
vt 0.0390625 0.2734375
vt 0 0.2734375
vt 0 0.25
vt 0.0078125 0.25
vt 0.0078125 0.21875
vt 0 0.21875
vt 0 0.2578125
vt 0.03125 0.2578125
vt 0.03125 0.25
vt 0 0.25
vt 0 0.265625
vt 0.03125 0.265625
vt 0.03125 0.2578125
vt 0 0.2578125
vn 0 0 -1
vn -0.38268343236508984 0.9238795325112866 0
vn 0 0 1
vn 0.38268343236508984 -0.9238795325112866 0
vn -0.9238795325112866 -0.38268343236508984 0
vn 0.9238795325112866 0.38268343236508984 0
usemtl m_0
f 116/412/125 119/411/125 117/410/125 114/409/125
f 115/416/126 116/415/126 114/414/126 113/413/126
f 120/420/127 115/419/127 113/418/127 118/417/127
f 119/424/128 120/423/128 118/422/128 117/421/128
f 118/428/129 113/427/129 114/426/129 117/425/129
f 119/432/130 116/431/130 115/430/130 120/429/130
o cube
v 0.109375 1.671875 -0.25
v 0.109375 1.671875 -0.4375
v 0.109375 1.484375 -0.25
v 0.109375 1.484375 -0.4375
v -0.078125 1.671875 -0.4375
v -0.078125 1.671875 -0.25
v -0.078125 1.484375 -0.4375
v -0.078125 1.484375 -0.25
vt 0.171875 0.3125
vt 0.1953125 0.3125
vt 0.1953125 0.2890625
vt 0.171875 0.2890625
vt 0.0546875 0.3125
vt 0.078125 0.3125
vt 0.078125 0.2890625
vt 0.0546875 0.2890625
vt 0.1484375 0.3125
vt 0.171875 0.3125
vt 0.171875 0.2890625
vt 0.1484375 0.2890625
vt 0.125 0.3125
vt 0.1484375 0.3125
vt 0.1484375 0.2890625
vt 0.125 0.2890625
vt 0.1015625 0.3125
vt 0.125 0.3125
vt 0.125 0.2890625
vt 0.1015625 0.2890625
vt 0.078125 0.3125
vt 0.1015625 0.3125
vt 0.1015625 0.2890625
vt 0.078125 0.2890625
vn 0 0 -1
vn 1 0 0
vn 0 0 1
vn -1 0 0
vn 0 1 0
vn 0 -1 0
usemtl m_0
f 124/436/131 127/435/131 125/434/131 122/433/131
f 123/440/132 124/439/132 122/438/132 121/437/132
f 128/444/133 123/443/133 121/442/133 126/441/133
f 127/448/134 128/447/134 126/446/134 125/445/134
f 126/452/135 121/451/135 122/450/135 125/449/135
f 127/456/136 124/455/136 123/454/136 128/453/136
o cube
v 0.27939703939929467 1.7564042972754468 0.8281249999999999
v 0.2168970393992947 1.7564042972754468 0.8281249999999999
v 0.2793970393992947 1.623821775802969 0.6955424785275222
v 0.21689703939929472 1.623821775802969 0.6955424785275222
v 0.2168970393992946 1.6238217758029692 0.9607075214724776
v 0.2793970393992946 1.6238217758029692 0.9607075214724776
v 0.21689703939929464 1.4912392543304913 0.8281249999999999
v 0.27939703939929467 1.4912392543304913 0.8281249999999999
vt 0.546875 0.5390625
vt 0.578125 0.5390625
vt 0.578125 0.5078125
vt 0.546875 0.5078125
vt 0.0078125 0.25
vt 0.015625 0.25
vt 0.015625 0.21875
vt 0.0078125 0.21875
vt 0 0.3125
vt 0.0390625 0.3125
vt 0.0390625 0.2734375
vt 0 0.2734375
vt 0 0.25
vt 0.0078125 0.25
vt 0.0078125 0.21875
vt 0 0.21875
vt 0 0.2578125
vt 0.03125 0.2578125
vt 0.03125 0.25
vt 0 0.25
vt 0 0.265625
vt 0.03125 0.265625
vt 0.03125 0.2578125
vt 0 0.2578125
vn -1 1.5700924586837747e-16 -3.1401849173675503e-16
vn 3.1401849173675503e-16 0.7071067811865475 -0.7071067811865477
vn 1 -1.5700924586837747e-16 3.1401849173675503e-16
vn -3.1401849173675503e-16 -0.7071067811865475 0.7071067811865477
vn -1.5700924586837747e-16 0.7071067811865477 0.7071067811865475
vn 1.5700924586837747e-16 -0.7071067811865477 -0.7071067811865475
usemtl m_0
f 132/460/137 135/459/137 133/458/137 130/457/137
f 131/464/138 132/463/138 130/462/138 129/461/138
f 136/468/139 131/467/139 129/466/139 134/465/139
f 135/472/140 136/471/140 134/470/140 133/469/140
f 134/476/141 129/475/141 130/474/141 133/473/141
f 135/480/142 132/479/142 131/478/142 136/477/142