# Blender v2.79 (sub 0) OBJ File: ''
# www.blender.org
mtllib engineamci4.mtl
o I4_Engine
v 0.625000 -0.012500 -0.125000
v 0.625000 0.227831 -0.375000
v 0.625000 0.300000 -0.250000
v 0.625000 -0.012500 0.000000
v 0.625000 0.112500 0.125000
v 0.625000 -0.137500 0.000000
v 0.625000 -0.012500 0.125000
v 0.625000 -0.012500 0.250000
v 0.625000 -0.200000 -0.375000
v 0.625000 0.112500 0.250000
v 0.625000 0.300000 0.125000
v 0.625000 -0.137500 -0.125000
v 0.625000 -0.200000 0.375000
v 0.625000 0.155662 0.375000
v 0.625000 0.209789 0.406250
v 0.625000 0.354127 0.156250
v 0.562500 0.300000 0.000000
v 0.562500 0.300000 -0.125000
v -0.562500 0.300000 0.000000
v -0.562500 0.300000 -0.125000
v -0.562500 0.300000 0.062500
v -0.625000 0.300000 0.125000
v 0.562500 0.300000 0.062500
v -0.625000 0.300000 -0.250000
v -0.562500 0.300000 -0.187500
v 0.562500 0.300000 -0.187500
v -0.062500 0.229127 0.372756
v -0.250000 0.229127 0.372756
v -0.625000 0.209789 0.406250
v 0.250000 0.322877 0.210377
v 0.062500 0.322877 0.210377
v -0.625000 0.354127 0.156250
v 0.312500 0.229127 0.372756
v 0.062500 0.229127 0.372756
v -0.062500 0.322877 0.210377
v -0.250000 0.322877 0.210377
v -0.312500 0.322877 0.210377
v -0.312500 0.229127 0.372756
v -0.500000 0.229127 0.372756
v -0.500000 0.322877 0.210377
v 0.250000 0.229127 0.372756
v 0.312500 0.322877 0.210377
v 0.500000 0.322877 0.210377
v 0.500000 0.229127 0.372756
v -0.625000 0.155662 0.375000
v -0.625000 -0.200000 0.375000
v -0.625000 -0.200000 -0.375000
v -0.625000 0.227831 -0.375000
v -0.625000 0.227831 -0.375000
v 0.625000 0.227831 -0.375000
v -0.500000 0.283253 0.404006
v -0.500000 0.377003 0.241627
v -0.312500 0.283253 0.404006
v -0.312500 0.377003 0.241627
v 0.062500 0.283253 0.404006
v 0.062500 0.377003 0.241627
v 0.250000 0.283253 0.404006
v 0.250000 0.377003 0.241627
v -0.250000 0.283253 0.404006
v -0.250000 0.377003 0.241627
v -0.062500 0.283253 0.404006
v -0.062500 0.377003 0.241627
v 0.312500 0.283253 0.404006
v 0.312500 0.377003 0.241627
v 0.500000 0.283253 0.404006
v 0.500000 0.377003 0.241627
v -0.562500 0.362500 -0.125000
v -0.562500 0.362500 -0.187500
v 0.562500 0.362500 -0.125000
v 0.562500 0.362500 -0.187500
v -0.562500 0.362500 0.062500
v -0.562500 0.362500 0.000000
v 0.562500 0.362500 0.062500
v 0.562500 0.362500 0.000000
v 0.687500 -0.137500 0.000000
v 0.687500 -0.012500 0.000000
v 0.687500 -0.137500 -0.125000
v 0.687500 -0.012500 -0.125000
v 0.687500 -0.012500 0.250000
v 0.687500 0.112500 0.250000
v 0.687500 -0.012500 0.125000
v 0.687500 0.112500 0.125000
vt 0.140625 0.781250
vt 0.203125 0.901250
vt 0.171875 0.937500
vt 0.109375 0.781250
vt 0.078125 0.843750
vt 0.109375 0.718750
vt 0.078125 0.781250
vt 0.046875 0.781250
vt 0.203125 0.687500
vt 0.046875 0.843750
vt 0.078125 0.937500
vt 0.140625 0.718750
vt 0.015625 0.687500
vt 0.015625 0.865313
vt 0.007812 0.892500
vt 0.070312 0.964688
vt 0.515625 0.250000
vt 0.515625 0.187500
vt 0.796875 0.250000
vt 0.796875 0.187500
vt 0.796875 0.281250
vt 0.812500 0.312500
vt 0.515625 0.281250
vt 0.500000 0.312500
vt 0.500000 0.125000
vt 0.812500 0.125000
vt 0.796875 0.156250
vt 0.515625 0.156250
vt 0.640625 0.656250
vt 0.593750 0.656250
vt 0.500000 0.625000
vt 0.718750 0.750000
vt 0.812500 0.781250
vt 0.671875 0.750000
vt 0.500000 0.781250
vt 0.734375 0.656250
vt 0.812500 0.625000
vt 0.671875 0.656250
vt 0.640625 0.750000
vt 0.593750 0.750000
vt 0.578125 0.750000
vt 0.578125 0.656250
vt 0.531250 0.656250
vt 0.531250 0.750000
vt 0.718750 0.656250
vt 0.734375 0.750000
vt 0.781250 0.750000
vt 0.781250 0.656250
vt 0.398438 0.892500
vt 0.335938 0.964688
vt 0.390625 0.865313
vt 0.328125 0.937500
vt 0.390625 0.687500
vt 0.234375 0.937500
vt 0.203125 0.687500
vt 0.203125 0.901250
vt 0.296875 0.000000
vt 0.296875 0.625000
vt 0.109375 0.000000
vt 0.109375 0.625000
vt 0.385781 0.625000
vt 0.385781 0.000000
vt 0.002500 0.000000
vt 0.002500 0.625000
vt 0.812500 0.593750
vt 0.500000 0.593750
vt 0.500000 0.812500
vt 0.812500 0.812500
vt 0.812500 0.031250
vt 0.500000 0.031250
vt 0.828125 0.968750
vt 0.828125 0.875000
vt 0.843750 0.968750
vt 0.843750 0.875000
vt 0.781250 0.968750
vt 0.781250 1.000000
vt 0.828125 1.000000
vt 0.781250 0.875000
vt 0.765625 0.875000
vt 0.765625 0.968750
vt 0.828125 0.843750
vt 0.781250 0.843750
vt 0.640625 0.968750
vt 0.640625 0.875000
vt 0.656250 0.968750
vt 0.656250 0.875000
vt 0.593750 0.968750
vt 0.593750 1.000000
vt 0.640625 1.000000
vt 0.593750 0.875000
vt 0.578125 0.875000
vt 0.578125 0.968750
vt 0.640625 0.843750
vt 0.593750 0.843750
vt 0.734375 0.968750
vt 0.734375 0.875000
vt 0.750000 0.968750
vt 0.750000 0.875000
vt 0.687500 0.968750
vt 0.687500 1.000000
vt 0.734375 1.000000
vt 0.687500 0.875000
vt 0.671875 0.875000
vt 0.671875 0.968750
vt 0.734375 0.843750
vt 0.687500 0.843750
vt 0.546875 0.968750
vt 0.546875 0.875000
vt 0.562500 0.968750
vt 0.562500 0.875000
vt 0.500000 0.968750
vt 0.500000 1.000000
vt 0.546875 1.000000
vt 0.500000 0.875000
vt 0.484375 0.875000
vt 0.484375 0.968750
vt 0.546875 0.843750
vt 0.500000 0.843750
vt 0.515625 0.375000
vt 0.515625 0.406250
vt 0.500000 0.375000
vt 0.500000 0.406250
vt 0.796875 0.375000
vt 0.796875 0.343750
vt 0.515625 0.343750
vt 0.796875 0.406250
vt 0.812500 0.406250
vt 0.812500 0.375000
vt 0.515625 0.437500
vt 0.796875 0.437500
vt 0.515625 0.500000
vt 0.515625 0.531250
vt 0.500000 0.500000
vt 0.500000 0.531250
vt 0.796875 0.500000
vt 0.796875 0.468750
vt 0.515625 0.468750
vt 0.796875 0.531250
vt 0.812500 0.531250
vt 0.812500 0.500000
vt 0.515625 0.562500
vt 0.796875 0.562500
vt 0.453125 0.406250
vt 0.453125 0.343750
vt 0.468750 0.406250
vt 0.468750 0.343750
vt 0.421875 0.406250
vt 0.421875 0.437500
vt 0.453125 0.437500
vt 0.421875 0.343750
vt 0.406250 0.343750
vt 0.406250 0.406250
vt 0.453125 0.312500
vt 0.421875 0.312500
vt 0.421875 0.562500
vt 0.453125 0.562500
vt 0.421875 0.593750
vt 0.453125 0.593750
vt 0.421875 0.500000
vt 0.406250 0.500000
vt 0.406250 0.562500
vt 0.453125 0.500000
vt 0.453125 0.468750
vt 0.421875 0.468750
vt 0.468750 0.562500
vt 0.468750 0.500000
vn 1.0000 -0.0000 0.0000
vn 0.0000 1.0000 0.0000
vn 0.0000 0.8660 0.5000
vn -1.0000 0.0000 0.0000
vn 0.0000 -1.0000 -0.0000
vn 0.0000 -0.2588 0.9659
vn 0.0000 -0.0000 1.0000
vn 0.0000 0.0000 -1.0000
vn 0.0000 -0.5000 0.8660
vn 0.0000 0.5000 -0.8660
vn 0.0000 0.8660 -0.5000
usemtl None
s 1
f 1/1/1 2/2/1 3/3/1
f 4/4/1 5/5/1 6/6/1
f 6/6/1 5/5/1 7/7/1
f 6/6/1 7/7/1 8/8/1
f 2/2/1 1/1/1 9/9/1
f 4/4/1 1/1/1 5/5/1
f 5/5/1 1/1/1 3/3/1
f 5/5/1 3/3/1 10/10/1
f 10/10/1 3/3/1 11/11/1
f 1/1/1 12/12/1 9/9/1
f 9/9/1 12/12/1 6/6/1
f 9/9/1 6/6/1 13/13/1
f 13/13/1 6/6/1 8/8/1
f 13/13/1 8/8/1 14/14/1
f 14/14/1 8/8/1 10/10/1
f 14/14/1 10/10/1 15/15/1
f 15/15/1 10/10/1 11/11/1
f 15/15/1 11/11/1 16/16/1
f 17/17/2 18/18/2 19/19/2
f 19/19/2 18/18/2 20/20/2
f 21/21/2 22/22/2 23/23/2
f 23/23/2 22/22/2 11/24/2
f 23/23/2 11/24/2 17/17/2
f 17/17/2 11/24/2 3/25/2
f 17/17/2 3/25/2 18/18/2
f 21/21/2 19/19/2 22/22/2
f 22/22/2 19/19/2 20/20/2
f 22/22/2 20/20/2 24/26/2
f 24/26/2 20/20/2 25/27/2
f 24/26/2 25/27/2 3/25/2
f 3/25/2 25/27/2 26/28/2
f 3/25/2 26/28/2 18/18/2
f 27/29/3 28/30/3 29/31/3
f 30/32/3 16/33/3 31/34/3
f 31/34/3 16/33/3 32/35/3
f 33/36/3 29/31/3 15/37/3
f 34/38/3 31/34/3 35/39/3
f 35/39/3 31/34/3 32/35/3
f 35/39/3 32/35/3 36/40/3
f 36/40/3 32/35/3 37/41/3
f 36/40/3 37/41/3 28/30/3
f 28/30/3 37/41/3 38/42/3
f 28/30/3 38/42/3 29/31/3
f 29/31/3 38/42/3 39/43/3
f 29/31/3 39/43/3 32/35/3
f 32/35/3 39/43/3 40/44/3
f 32/35/3 40/44/3 37/41/3
f 35/39/3 27/29/3 34/38/3
f 34/38/3 27/29/3 29/31/3
f 34/38/3 29/31/3 41/45/3
f 41/45/3 29/31/3 33/36/3
f 41/45/3 33/36/3 30/32/3
f 30/32/3 33/36/3 42/46/3
f 30/32/3 42/46/3 16/33/3
f 16/33/3 42/46/3 43/47/3
f 16/33/3 43/47/3 15/37/3
f 15/37/3 43/47/3 44/48/3
f 15/37/3 44/48/3 33/36/3
f 29/49/4 32/50/4 45/51/4
f 45/51/4 32/50/4 22/52/4
f 45/51/4 22/52/4 46/53/4
f 46/53/4 22/52/4 24/54/4
f 46/53/4 24/54/4 47/55/4
f 47/55/4 24/54/4 48/56/4
f 13/57/5 46/58/5 9/59/5
f 9/59/5 46/58/5 47/60/5
f 45/61/6 46/58/7 14/62/6
f 14/62/6 46/58/7 13/57/7
f 2/63/8 9/59/8 48/64/8
f 48/64/8 9/59/8 47/60/8
f 15/37/9 29/31/9 14/65/6
f 14/65/6 29/31/9 45/66/6
f 32/35/10 16/33/10 22/67/10
f 22/67/10 16/33/10 11/68/10
f 49/69/11 24/26/11 50/70/11
f 50/70/11 24/26/11 3/25/11
f 51/71/4 52/72/4 39/73/4
f 39/73/4 52/72/4 40/74/4
f 53/75/9 51/71/9 38/76/9
f 38/76/9 51/71/9 39/77/9
f 54/78/1 53/75/1 37/79/1
f 37/79/1 53/75/1 38/80/1
f 52/72/10 54/78/10 40/81/10
f 40/81/10 54/78/10 37/82/10
f 53/75/3 54/78/3 51/71/3
f 51/71/3 54/78/3 52/72/3
f 55/83/4 56/84/4 34/85/4
f 34/85/4 56/84/4 31/86/4
f 57/87/9 55/83/9 41/88/9
f 41/88/9 55/83/9 34/89/9
f 58/90/1 57/87/1 30/91/1
f 30/91/1 57/87/1 41/92/1
f 56/84/10 58/90/10 31/93/10
f 31/93/10 58/90/10 30/94/10
f 57/87/3 58/90/3 55/83/3
f 55/83/3 58/90/3 56/84/3
f 59/95/4 60/96/4 28/97/4
f 28/97/4 60/96/4 36/98/4
f 61/99/9 59/95/9 27/100/9
f 27/100/9 59/95/9 28/101/9
f 62/102/1 61/99/1 35/103/1
f 35/103/1 61/99/1 27/104/1
f 60/96/10 62/102/10 36/105/10
f 36/105/10 62/102/10 35/106/10
f 61/99/3 62/102/3 59/95/3
f 59/95/3 62/102/3 60/96/3
f 63/107/4 64/108/4 33/109/4
f 33/109/4 64/108/4 42/110/4
f 65/111/9 63/107/9 44/112/9
f 44/112/9 63/107/9 33/113/9
f 66/114/1 65/111/1 43/115/1
f 43/115/1 65/111/1 44/116/1
f 64/108/10 66/114/10 42/117/10
f 42/117/10 66/114/10 43/118/10
f 65/111/3 66/114/3 63/107/3
f 63/107/3 66/114/3 64/108/3
f 67/119/4 68/120/4 20/121/4
f 20/121/4 68/120/4 25/122/4
f 69/123/7 67/119/7 18/124/7
f 18/124/7 67/119/7 20/125/7
f 70/126/1 69/123/1 26/127/1
f 26/127/1 69/123/1 18/128/1
f 68/120/8 70/126/8 25/129/8
f 25/129/8 70/126/8 26/130/8
f 69/123/2 70/126/2 67/119/2
f 67/119/2 70/126/2 68/120/2
f 71/131/4 72/132/4 21/133/4
f 21/133/4 72/132/4 19/134/4
f 73/135/7 71/131/7 23/136/7
f 23/136/7 71/131/7 21/137/7
f 74/138/1 73/135/1 17/139/1
f 17/139/1 73/135/1 23/140/1
f 72/132/8 74/138/8 19/141/8
f 19/141/8 74/138/8 17/142/8
f 73/135/2 74/138/2 71/131/2
f 71/131/2 74/138/2 72/132/2
f 75/143/7 76/144/7 6/145/7
f 6/145/7 76/144/7 4/146/7
f 77/147/5 75/143/5 12/148/5
f 12/148/5 75/143/5 6/149/5
f 78/150/8 77/147/8 1/151/8
f 1/151/8 77/147/8 12/152/8
f 76/144/2 78/150/2 4/153/2
f 4/153/2 78/150/2 1/154/2
f 77/147/1 78/150/1 75/143/1
f 75/143/1 78/150/1 76/144/1
f 79/155/7 80/156/7 8/157/7
f 8/157/7 80/156/7 10/158/7
f 81/159/5 79/155/5 7/160/5
f 7/160/5 79/155/5 8/161/5
f 82/162/8 81/159/8 5/163/8
f 5/163/8 81/159/8 7/164/8
f 80/156/2 82/162/2 10/165/2
f 10/165/2 82/162/2 5/166/2
f 81/159/1 82/162/1 79/155/1
f 79/155/1 82/162/1 80/156/1
