# Blender v2.79 (sub 0) OBJ File: ''
# www.blender.org
mtllib enginelycomingo360obj.mtl
o bodyModel
v -0.218750 0.218750 0.562500
v 0.218750 0.218750 0.562500
v 0.218750 0.218750 -0.562500
v -0.218750 0.218750 -0.562500
v -0.218750 -0.218750 -0.562500
v 0.218750 -0.218750 -0.562500
v 0.218750 -0.218750 0.562500
v -0.218750 -0.218750 0.562500
v -0.437500 0.062500 0.250000
v -0.187500 0.062500 0.250000
v -0.187500 0.062500 0.000000
v -0.437500 0.062500 0.000000
v -0.437500 -0.187500 -0.000000
v -0.187500 -0.187500 -0.000000
v -0.187500 -0.187500 0.250000
v -0.437500 -0.187500 0.250000
v -0.437500 0.062500 -0.250000
v -0.187500 0.062500 -0.250000
v -0.187500 0.062500 -0.500000
v -0.437500 0.062500 -0.500000
v -0.437500 -0.187500 -0.500000
v -0.187500 -0.187500 -0.500000
v -0.187500 -0.187500 -0.250000
v -0.437500 -0.187500 -0.250000
v 0.187500 0.062500 -0.250000
v 0.437500 0.062500 -0.250000
v 0.437500 0.062500 -0.500000
v 0.187500 0.062500 -0.500000
v 0.187500 -0.187500 -0.500000
v 0.437500 -0.187500 -0.500000
v 0.437500 -0.187500 -0.250000
v 0.187500 -0.187500 -0.250000
v -0.562500 0.156250 -0.218750
v -0.437500 0.156250 -0.218750
v -0.437500 0.156250 -0.531250
v -0.562500 0.156250 -0.531250
v -0.562500 -0.156250 -0.531250
v -0.437500 -0.156250 -0.531250
v -0.437500 -0.156250 -0.218750
v -0.562500 -0.156250 -0.218750
v 0.187500 0.062500 0.250000
v 0.437500 0.062500 0.250000
v 0.437500 0.062500 0.000000
v 0.187500 0.062500 0.000000
v 0.187500 -0.187500 -0.000000
v 0.437500 -0.187500 -0.000000
v 0.437500 -0.187500 0.250000
v 0.187500 -0.187500 0.250000
v -0.562500 0.156250 0.281250
v -0.437500 0.156250 0.281250
v -0.437500 0.156250 -0.031250
v -0.562500 0.156250 -0.031250
v -0.562500 -0.156250 -0.031250
v -0.437500 -0.156250 -0.031250
v -0.437500 -0.156250 0.281250
v -0.562500 -0.156250 0.281250
v 0.437500 0.156250 -0.218750
v 0.562500 0.156250 -0.218750
v 0.562500 0.156250 -0.531250
v 0.437500 0.156250 -0.531250
v 0.437500 -0.156250 -0.531250
v 0.562500 -0.156250 -0.531250
v 0.562500 -0.156250 -0.218750
v 0.437500 -0.156250 -0.218750
v 0.437500 0.156250 0.281250
v 0.562500 0.156250 0.281250
v 0.562500 0.156250 -0.031250
v 0.437500 0.156250 -0.031250
v 0.437500 -0.156250 -0.031250
v 0.562500 -0.156250 -0.031250
v 0.562500 -0.156250 0.281250
v 0.437500 -0.156250 0.281250
v -0.500000 0.125000 -0.343750
v -0.198148 0.205881 -0.343750
v -0.198148 0.205881 -0.406250
v -0.500000 0.125000 -0.406250
v -0.483824 0.064630 -0.406250
v -0.181972 0.145511 -0.406250
v -0.181972 0.145511 -0.343750
v -0.483824 0.064630 -0.343750
v -0.500000 0.125000 0.156250
v -0.198148 0.205881 0.156250
v -0.198148 0.205881 0.093750
v -0.500000 0.125000 0.093750
v -0.483824 0.064630 0.093750
v -0.181972 0.145511 0.093750
v -0.181972 0.145511 0.156250
v -0.483824 0.064630 0.156250
v 0.198148 0.205881 -0.343750
v 0.500000 0.125000 -0.343750
v 0.500000 0.125000 -0.406250
v 0.198148 0.205881 -0.406250
v 0.181972 0.145511 -0.406250
v 0.483824 0.064630 -0.406250
v 0.483824 0.064630 -0.343750
v 0.181972 0.145511 -0.343750
v 0.198148 0.205881 0.156250
v 0.500000 0.125000 0.156250
v 0.500000 0.125000 0.093750
v 0.198148 0.205881 0.093750
v 0.181972 0.145511 0.093750
v 0.483824 0.064630 0.093750
v 0.483824 0.064630 0.156250
v 0.181972 0.145511 0.156250
v -0.125000 -0.187500 0.312500
v 0.125000 -0.187500 0.312500
v 0.125000 -0.187500 -0.375000
v -0.125000 -0.187500 -0.375000
v -0.125000 -0.312500 -0.375000
v 0.125000 -0.312500 -0.375000
v 0.125000 -0.312500 0.312500
v -0.125000 -0.312500 0.312500
vt 0.453125 0.218750
vt 0.562500 0.218750
vt 0.562500 0.781250
vt 0.453125 0.781250
vt 0.562500 0.218750
vt 0.671875 0.218750
vt 0.671875 0.781250
vt 0.562500 0.781250
vt 0.453125 -0.000000
vt 0.562500 -0.000000
vt 0.953125 0.218750
vt 0.843750 0.218750
vt 0.843750 -0.000000
vt 0.953125 -0.000000
vt 0.171875 0.218750
vt 0.171875 -0.000000
vt 0.062500 0.812500
vt 0.062500 0.687500
vt 0.125000 0.687500
vt 0.125000 0.812500
vt 0.062500 0.687500
vt 0.062500 0.562500
vt 0.125000 0.562500
vt 0.125000 0.687500
vt 0.000000 0.812500
vt 0.000000 0.687500
vt 0.062500 0.437500
vt 0.062500 0.562500
vt 0.000000 0.562500
vt 0.000000 0.437500
vt 0.062500 0.937500
vt 0.000000 0.937500
vt 0.062500 0.812500
vt 0.062500 0.687500
vt 0.125000 0.687500
vt 0.125000 0.812500
vt 0.062500 0.687500
vt 0.062500 0.562500
vt 0.125000 0.562500
vt 0.125000 0.687500
vt 0.000000 0.812500
vt 0.000000 0.687500
vt 0.062500 0.437500
vt 0.062500 0.562500
vt 0.000000 0.562500
vt 0.000000 0.437500
vt 0.062500 0.937500
vt 0.000000 0.937500
vt 0.218750 0.687500
vt 0.281250 0.687500
vt 0.281250 0.812500
vt 0.218750 0.812500
vt 0.281250 0.687500
vt 0.343750 0.687500
vt 0.343750 0.812500
vt 0.281250 0.812500
vt 0.218750 0.562500
vt 0.281250 0.562500
vt 0.406250 0.687500
vt 0.343750 0.687500
vt 0.343750 0.562500
vt 0.406250 0.562500
vt 0.078125 0.281250
vt 0.078125 0.218750
vt 0.156250 0.218750
vt 0.156250 0.281250
vt 0.078125 0.218750
vt 0.078125 0.156250
vt 0.156250 0.156250
vt 0.156250 0.218750
vt 0.000000 0.281250
vt 0.000000 0.218750
vt 0.078125 -0.000000
vt 0.078125 0.062500
vt 0.000000 0.062500
vt 0.000000 -0.000000
vt 0.078125 0.437500
vt 0.000000 0.437500
vt 0.218750 0.687500
vt 0.281250 0.687500
vt 0.281250 0.812500
vt 0.218750 0.812500
vt 0.281250 0.687500
vt 0.343750 0.687500
vt 0.343750 0.812500
vt 0.281250 0.812500
vt 0.218750 0.562500
vt 0.281250 0.562500
vt 0.406250 0.687500
vt 0.343750 0.687500
vt 0.343750 0.562500
vt 0.406250 0.562500
vt 0.078125 0.281250
vt 0.078125 0.218750
vt 0.156250 0.218750
vt 0.156250 0.281250
vt 0.078125 0.218750
vt 0.078125 0.156250
vt 0.156250 0.156250
vt 0.156250 0.218750
vt 0.000000 0.281250
vt 0.000000 0.218750
vt 0.078125 -0.000000
vt 0.078125 0.062500
vt 0.000000 0.062500
vt 0.000000 -0.000000
vt 0.078125 0.437500
vt 0.000000 0.437500
vt 0.250000 0.406250
vt 0.281250 0.406250
vt 0.281250 0.562500
vt 0.250000 0.562500
vt 0.281250 0.406250
vt 0.312500 0.406250
vt 0.312500 0.562500
vt 0.281250 0.562500
vt 0.250000 0.250000
vt 0.281250 0.250000
vt 0.390625 0.406250
vt 0.359375 0.406250
vt 0.359375 0.250000
vt 0.390625 0.250000
vt 0.171875 0.406250
vt 0.171875 0.250000
vt 0.250000 0.406250
vt 0.281250 0.406250
vt 0.281250 0.562500
vt 0.250000 0.562500
vt 0.281250 0.406250
vt 0.312500 0.406250
vt 0.312500 0.562500
vt 0.281250 0.562500
vt 0.250000 0.250000
vt 0.281250 0.250000
vt 0.390625 0.406250
vt 0.359375 0.406250
vt 0.359375 0.250000
vt 0.390625 0.250000
vt 0.171875 0.406250
vt 0.171875 0.250000
vt 0.687500 0.250000
vt 0.765625 0.250000
vt 0.765625 0.281250
vt 0.687500 0.281250
vt 0.765625 0.250000
vt 0.843750 0.250000
vt 0.843750 0.281250
vt 0.765625 0.281250
vt 0.687500 0.218750
vt 0.765625 0.218750
vt 0.859375 0.250000
vt 0.781250 0.250000
vt 0.781250 0.218750
vt 0.859375 0.218750
vt 0.687500 0.250000
vt 0.765625 0.250000
vt 0.765625 0.281250
vt 0.687500 0.281250
vt 0.765625 0.250000
vt 0.843750 0.250000
vt 0.843750 0.281250
vt 0.765625 0.281250
vt 0.687500 0.218750
vt 0.765625 0.218750
vt 0.859375 0.250000
vt 0.781250 0.250000
vt 0.781250 0.218750
vt 0.859375 0.218750
vt 0.687500 0.250000
vt 0.765625 0.250000
vt 0.765625 0.281250
vt 0.687500 0.281250
vt 0.765625 0.250000
vt 0.843750 0.250000
vt 0.843750 0.281250
vt 0.765625 0.281250
vt 0.687500 0.218750
vt 0.765625 0.218750
vt 0.859375 0.250000
vt 0.781250 0.250000
vt 0.781250 0.218750
vt 0.859375 0.218750
vt 0.687500 0.250000
vt 0.765625 0.250000
vt 0.765625 0.281250
vt 0.687500 0.281250
vt 0.765625 0.250000
vt 0.843750 0.250000
vt 0.843750 0.281250
vt 0.765625 0.281250
vt 0.687500 0.218750
vt 0.765625 0.218750
vt 0.859375 0.250000
vt 0.781250 0.250000
vt 0.781250 0.218750
vt 0.859375 0.218750
vt 0.968750 0.531250
vt 0.968750 0.656250
vt 0.796875 0.656250
vt 0.796875 0.531250
vt 0.968750 0.531250
vt 0.968750 0.406250
vt 1.000000 0.406250
vt 1.000000 0.531250
vt 0.968750 1.000000
vt 0.968750 0.875000
vt 1.000000 0.875000
vt 1.000000 1.000000
vt 0.968750 0.062500
vt 1.000000 0.062500
vn 0.0000 1.0000 0.0000
vn 0.0000 -1.0000 -0.0000
vn 0.0000 -0.0000 1.0000
vn 0.0000 0.0000 -1.0000
vn 1.0000 0.0000 0.0000
vn -1.0000 0.0000 0.0000
vn -0.2588 0.9659 0.0000
vn 0.2588 -0.9659 0.0000
vn 0.2588 0.9659 0.0000
vn -0.2588 -0.9659 0.0000
usemtl ModelMaterial
s off
f 1/1/1 2/2/1 3/3/1 4/4/1
f 5/5/2 6/6/2 7/7/2 8/8/2
f 2/2/3 1/1/3 8/9/3 7/10/3
f 4/11/4 3/12/4 6/13/4 5/14/4
f 3/12/5 2/2/5 7/10/5 6/13/5
f 1/1/6 4/15/6 5/16/6 8/9/6
f 9/17/1 10/18/1 11/19/1 12/20/1
f 13/21/2 14/22/2 15/23/2 16/24/2
f 10/18/3 9/17/3 16/25/3 15/26/3
f 12/27/4 11/28/4 14/29/4 13/30/4
f 9/17/6 12/31/6 13/32/6 16/25/6
f 17/33/1 18/34/1 19/35/1 20/36/1
f 21/37/2 22/38/2 23/39/2 24/40/2
f 18/34/3 17/33/3 24/41/3 23/42/3
f 20/43/4 19/44/4 22/45/4 21/46/4
f 17/33/6 20/47/6 21/48/6 24/41/6
f 25/49/1 26/50/1 27/51/1 28/52/1
f 29/53/2 30/54/2 31/55/2 32/56/2
f 26/50/3 25/49/3 32/57/3 31/58/3
f 28/59/4 27/60/4 30/61/4 29/62/4
f 27/60/5 26/50/5 31/58/5 30/61/5
f 33/63/1 34/64/1 35/65/1 36/66/1
f 37/67/2 38/68/2 39/69/2 40/70/2
f 34/64/3 33/63/3 40/71/3 39/72/3
f 36/73/4 35/74/4 38/75/4 37/76/4
f 35/74/5 34/64/5 39/72/5 38/75/5
f 33/63/6 36/77/6 37/78/6 40/71/6
f 41/79/1 42/80/1 43/81/1 44/82/1
f 45/83/2 46/84/2 47/85/2 48/86/2
f 42/80/3 41/79/3 48/87/3 47/88/3
f 44/89/4 43/90/4 46/91/4 45/92/4
f 43/90/5 42/80/5 47/88/5 46/91/5
f 49/93/1 50/94/1 51/95/1 52/96/1
f 53/97/2 54/98/2 55/99/2 56/100/2
f 50/94/3 49/93/3 56/101/3 55/102/3
f 52/103/4 51/104/4 54/105/4 53/106/4
f 51/104/5 50/94/5 55/102/5 54/105/5
f 49/93/6 52/107/6 53/108/6 56/101/6
f 57/109/1 58/110/1 59/111/1 60/112/1
f 61/113/2 62/114/2 63/115/2 64/116/2
f 58/110/3 57/109/3 64/117/3 63/118/3
f 60/119/4 59/120/4 62/121/4 61/122/4
f 59/120/5 58/110/5 63/118/5 62/121/5
f 57/109/6 60/123/6 61/124/6 64/117/6
f 65/125/1 66/126/1 67/127/1 68/128/1
f 69/129/2 70/130/2 71/131/2 72/132/2
f 66/126/3 65/125/3 72/133/3 71/134/3
f 68/135/4 67/136/4 70/137/4 69/138/4
f 67/136/5 66/126/5 71/134/5 70/137/5
f 65/125/6 68/139/6 69/140/6 72/133/6
f 73/141/7 74/142/7 75/143/7 76/144/7
f 77/145/8 78/146/8 79/147/8 80/148/8
f 74/142/3 73/141/3 80/149/3 79/150/3
f 76/151/4 75/152/4 78/153/4 77/154/4
f 81/155/7 82/156/7 83/157/7 84/158/7
f 85/159/8 86/160/8 87/161/8 88/162/8
f 82/156/3 81/155/3 88/163/3 87/164/3
f 84/165/4 83/166/4 86/167/4 85/168/4
f 89/169/9 90/170/9 91/171/9 92/172/9
f 93/173/10 94/174/10 95/175/10 96/176/10
f 90/170/3 89/169/3 96/177/3 95/178/3
f 92/179/4 91/180/4 94/181/4 93/182/4
f 97/183/9 98/184/9 99/185/9 100/186/9
f 101/187/10 102/188/10 103/189/10 104/190/10
f 98/184/3 97/183/3 104/191/3 103/192/3
f 100/193/4 99/194/4 102/195/4 101/196/4
f 109/197/2 110/198/2 111/199/2 112/200/2
f 106/201/3 105/202/3 112/203/3 111/204/3
f 108/205/4 107/206/4 110/207/4 109/208/4
f 107/206/5 106/201/5 111/204/5 110/207/5
f 105/202/6 108/209/6 109/210/6 112/203/6
