# Blender v2.79 (sub 0) OBJ File: ''
# www.blender.org
mtllib fuelpump.mtl
o pump_03a7c90a-67c0-d0b9-6bf8-3c1632fbb760
v 0.499932 0.812683 -0.124550
v 0.499932 0.687683 -0.124550
v 0.312432 0.812683 -0.124550
v 0.312432 0.687683 -0.124550
v 0.312432 0.812683 0.062950
v 0.312432 0.687683 0.062950
v 0.499932 0.812683 0.062950
v 0.499932 0.687683 0.062950
v 0.374932 0.937683 -0.124550
v 0.374932 0.812683 -0.124550
v 0.312432 0.937683 -0.124550
v 0.312432 0.937683 0.062950
v 0.374932 0.937683 0.062950
v 0.374932 0.812683 0.062950
v 0.374932 0.750183 0.250450
v 0.374932 0.687683 0.250450
v -0.375068 0.750183 0.250450
v -0.375068 0.687683 0.250450
v -0.375068 0.750183 0.312950
v -0.375068 0.687683 0.312950
v 0.374932 0.750183 0.312950
v 0.374932 0.687683 0.312950
v 0.437432 1.250183 0.250450
v 0.437432 0.687683 0.250450
v 0.374932 1.250183 0.250450
v 0.374932 0.687683 0.250450
v 0.374932 1.250183 0.312950
v 0.374932 0.687683 0.312950
v 0.437432 1.250183 0.312950
v 0.437432 0.687683 0.312950
v -0.375068 1.250183 0.250450
v -0.375068 0.687683 0.250450
v -0.437568 1.250183 0.250450
v -0.437568 0.687683 0.250450
v -0.437568 1.250183 0.312950
v -0.437568 0.687683 0.312950
v -0.375068 1.250183 0.312950
v -0.375068 0.687683 0.312950
v 0.437432 1.250183 0.062950
v 0.437432 0.687683 0.062950
v 0.312432 1.250183 0.062950
v 0.312432 0.687683 0.062950
v 0.312432 1.250183 0.250450
v 0.312432 0.687683 0.250450
v 0.437432 1.250183 0.250450
v 0.437432 0.687683 0.250450
v 0.437432 1.250183 -0.124550
v 0.437432 1.125183 -0.124550
v 0.312432 1.250183 -0.124550
v 0.312432 1.125183 -0.124550
v 0.312432 1.250183 0.062950
v 0.312432 1.125183 0.062950
v 0.437432 1.250183 0.062950
v 0.437432 1.125183 0.062950
v 0.312432 1.250183 -0.312050
v 0.312432 0.687683 -0.312050
v -0.437568 1.250183 -0.312050
v -0.437568 0.687683 -0.312050
v -0.437568 1.250183 0.250450
v -0.437568 0.687683 0.250450
v 0.312432 1.250183 0.250450
v 0.312432 0.687683 0.250450
v 0.312432 0.687683 -0.249550
v 0.312431 0.062683 -0.249550
v -0.312568 0.687683 -0.249550
v -0.312569 0.062683 -0.249550
v -0.312568 0.687683 0.250450
v -0.312569 0.062683 0.250450
v 0.312432 0.687683 0.250450
v 0.312431 0.062683 0.250450
v 0.437432 1.250183 -0.312050
v 0.437432 0.687683 -0.312050
v 0.312432 1.250183 -0.312050
v 0.312432 0.687683 -0.312050
v 0.312432 1.250183 -0.124550
v 0.312432 0.687683 -0.124550
v 0.437432 1.250183 -0.124550
v 0.437432 0.687683 -0.124550
v 0.374932 1.250183 0.250450
v 0.374932 1.187683 0.250450
v -0.375068 1.250183 0.250450
v -0.375068 1.187683 0.250450
v -0.375068 1.250183 0.312950
v -0.375068 1.187683 0.312950
v 0.374932 1.250183 0.312950
v 0.374932 1.187683 0.312950
v 0.499931 0.062683 -0.499550
v 0.499931 0.000183 -0.499550
v -0.500069 0.062683 -0.499550
v -0.500069 0.000183 -0.499550
v -0.500069 0.062683 0.500450
v -0.500069 0.000183 0.500450
v 0.499931 0.062683 0.500450
v 0.499931 0.000183 0.500450
vt 0.000000 1.000000
vt 0.000000 0.875000
vt 0.187500 1.000000
vt 0.187500 0.875000
vt 0.000000 1.000000
vt 0.000000 0.875000
vt 0.187500 1.000000
vt 0.187500 0.875000
vt 0.000000 0.812500
vt 0.187500 0.812500
vt 0.000000 1.000000
vt 0.000000 0.812500
vt 0.187500 1.000000
vt 0.187500 0.812500
vt 0.000000 1.000000
vt 0.000000 0.875000
vt 0.187500 1.000000
vt 0.187500 0.875000
vt 0.000000 1.000000
vt 0.000000 0.937500
vt 0.187500 1.000000
vt 0.187500 0.937500
vt 0.000000 1.000000
vt 0.000000 0.875000
vt 0.187500 1.000000
vt 0.187500 0.875000
vt 0.000000 1.000000
vt 0.000000 0.937500
vt 0.750000 1.000000
vt 0.750000 0.937500
vt 0.000000 0.250000
vt 0.062500 1.000000
vt 0.062500 0.250000
vt 0.000000 1.000000
vt 0.000000 0.250000
vt 0.062500 1.000000
vt 0.062500 0.250000
vt 0.000000 1.000000
vt 0.000000 0.437500
vt 0.062500 1.000000
vt 0.062500 0.437500
vt 0.000000 1.000000
vt 0.000000 0.437500
vt 0.062500 1.000000
vt 0.062500 0.437500
vt 0.000000 0.937500
vt 0.062500 0.937500
vt 0.000000 1.000000
vt 0.000000 0.937500
vt 0.062500 1.000000
vt 0.062500 0.937500
vt 0.000000 1.000000
vt 0.000000 0.437500
vt 0.062500 1.000000
vt 0.062500 0.437500
vt 0.000000 1.000000
vt 0.000000 0.437500
vt 0.062500 1.000000
vt 0.062500 0.437500
vt 0.000000 1.000000
vt 0.000000 0.437500
vt 0.062500 1.000000
vt 0.062500 0.437500
vt 0.000000 0.937500
vt 0.062500 1.000000
vt 0.062500 0.937500
vt 0.000000 1.000000
vt 0.000000 0.937500
vt 0.062500 1.000000
vt 0.062500 0.937500
vt 0.000000 1.000000
vt 0.000000 0.437500
vt 0.062500 1.000000
vt 0.062500 0.437500
vt 0.000000 1.000000
vt 0.000000 0.437500
vt 0.062500 1.000000
vt 0.062500 0.437500
vt 0.000000 1.000000
vt 0.000000 0.437500
vt 0.125000 1.000000
vt 0.125000 0.437500
vt 0.000000 1.000000
vt 0.000000 0.437500
vt 0.125000 1.000000
vt 0.125000 0.437500
vt 0.000000 0.875000
vt 0.187500 1.000000
vt 0.187500 0.875000
vt 0.000000 1.000000
vt 0.000000 0.875000
vt 0.187500 1.000000
vt 0.187500 0.875000
vt 0.000000 1.000000
vt 0.000000 0.437500
vt 0.187500 1.000000
vt 0.187500 0.437500
vt 0.000000 1.000000
vt 0.000000 0.875000
vt 0.187500 1.000000
vt 0.187500 0.875000
vt 0.000000 1.000000
vt 0.000000 0.875000
vt 0.187500 1.000000
vt 0.187500 0.875000
vt 0.000000 1.000000
vt 0.000000 0.875000
vt 0.187500 1.000000
vt 0.187500 0.875000
vt 0.000000 1.000000
vt 0.000000 0.437500
vt 0.750000 1.000000
vt 0.750000 0.437500
vt 0.000000 1.000000
vt 0.000000 0.437500
vt 0.750000 1.000000
vt 0.750000 0.437500
vt 0.000000 0.250000
vt 0.562500 1.000000
vt 0.562500 0.250000
vt 0.000000 1.000000
vt 0.000000 0.250000
vt 0.562500 1.000000
vt 0.562500 0.250000
vt 0.000000 1.000000
vt 0.000000 0.437500
vt 0.562500 1.000000
vt 0.562500 0.437500
vt 0.000000 1.000000
vt 0.000000 0.437500
vt 0.562500 1.000000
vt 0.562500 0.437500
vt 0.000000 1.000000
vt 0.000000 0.375000
vt 0.625000 1.000000
vt 0.625000 0.375000
vt 0.000000 1.000000
vt 0.000000 0.375000
vt 0.625000 1.000000
vt 0.625000 0.375000
vt 0.000000 1.000000
vt 0.000000 0.375000
vt 0.500000 1.000000
vt 0.500000 0.375000
vt 0.000000 1.000000
vt 0.000000 0.375000
vt 0.500000 1.000000
vt 0.500000 0.375000
vt 0.000000 1.000000
vt 0.000000 0.437500
vt 0.125000 1.000000
vt 0.125000 0.437500
vt 0.000000 1.000000
vt 0.000000 0.437500
vt 0.125000 1.000000
vt 0.125000 0.437500
vt 0.000000 0.875000
vt 0.187500 1.000000
vt 0.187500 0.875000
vt 0.000000 1.000000
vt 0.000000 0.875000
vt 0.187500 1.000000
vt 0.187500 0.875000
vt 0.000000 1.000000
vt 0.000000 0.437500
vt 0.187500 1.000000
vt 0.187500 0.437500
vt 0.000000 1.000000
vt 0.000000 0.937500
vt 0.750000 1.000000
vt 0.750000 0.937500
vt 0.000000 0.250000
vt 0.062500 1.000000
vt 0.062500 0.250000
vt 0.000000 1.000000
vt 0.000000 0.250000
vt 0.062500 1.000000
vt 0.062500 0.250000
vt 0.000000 1.000000
vt 0.000000 0.937500
vt 0.062500 1.000000
vt 0.062500 0.937500
vt 0.000000 1.000000
vt 0.000000 0.937500
vt 0.062500 1.000000
vt 0.062500 0.937500
vt 0.000000 0.937500
vt 0.062500 0.937500
vt 0.000000 1.000000
vt 0.062500 1.000000
vt 0.000000 1.000000
vt 0.000000 0.937500
vt 1.000000 1.000000
vt 1.000000 0.937500
vt 0.000000 1.000000
vt 0.000000 0.937500
vt 1.000000 1.000000
vt 1.000000 0.937500
vn 0.0000 0.0000 -1.0000
vn 0.0000 0.0000 1.0000
vn 0.0000 1.0000 0.0000
vn 0.0000 -1.0000 0.0000
vn 1.0000 0.0000 0.0000
vn -1.0000 0.0000 0.0000
usemtl missing
s 1
f 1/1/1 2/2/1 3/3/1
f 2/2/1 4/4/1 3/3/1
f 5/5/2 6/6/2 7/7/2
f 6/6/2 8/8/2 7/7/2
f 5/5/3 7/9/3 3/3/3
f 7/9/3 1/10/3 3/3/3
f 8/11/4 6/12/4 2/13/4
f 6/12/4 4/14/4 2/13/4
f 7/15/5 8/16/5 1/17/5
f 8/16/5 2/18/5 1/17/5
f 12/19/3 13/20/3 11/21/3
f 13/20/3 9/22/3 11/21/3
f 13/23/5 14/24/5 9/25/5
f 14/24/5 10/26/5 9/25/5
f 19/27/2 20/28/2 21/29/2
f 20/28/2 22/30/2 21/29/2
f 19/27/3 21/31/3 17/32/3
f 21/31/3 15/33/3 17/32/3
f 22/34/4 20/35/4 16/36/4
f 20/35/4 18/37/4 16/36/4
f 23/38/1 24/39/1 25/40/1
f 24/39/1 26/41/1 25/40/1
f 27/42/2 28/43/2 29/44/2
f 28/43/2 30/45/2 29/44/2
f 27/42/3 29/46/3 25/40/3
f 29/46/3 23/47/3 25/40/3
f 30/48/4 28/49/4 24/50/4
f 28/49/4 26/51/4 24/50/4
f 29/52/5 30/53/5 23/54/5
f 30/53/5 24/55/5 23/54/5
f 25/56/6 26/57/6 27/58/6
f 26/57/6 28/59/6 27/58/6
f 35/60/2 36/61/2 37/62/2
f 36/61/2 38/63/2 37/62/2
f 35/60/3 37/64/3 33/65/3
f 37/64/3 31/66/3 33/65/3
f 38/67/4 36/68/4 32/69/4
f 36/68/4 34/70/4 32/69/4
f 37/71/5 38/72/5 31/73/5
f 38/72/5 32/74/5 31/73/5
f 33/75/6 34/76/6 35/77/6
f 34/76/6 36/78/6 35/77/6
f 39/79/1 40/80/1 41/81/1
f 40/80/1 42/82/1 41/81/1
f 43/83/2 44/84/2 45/85/2
f 44/84/2 46/86/2 45/85/2
f 43/83/3 45/87/3 41/88/3
f 45/87/3 39/89/3 41/88/3
f 46/90/4 44/91/4 40/92/4
f 44/91/4 42/93/4 40/92/4
f 45/94/5 46/95/5 39/96/5
f 46/95/5 40/97/5 39/96/5
f 51/98/3 53/99/3 49/100/3
f 53/99/3 47/101/3 49/100/3
f 54/102/4 52/103/4 48/104/4
f 52/103/4 50/105/4 48/104/4
f 53/106/5 54/107/5 47/108/5
f 54/107/5 48/109/5 47/108/5
f 55/110/1 56/111/1 57/112/1
f 56/111/1 58/113/1 57/112/1
f 59/114/2 60/115/2 61/116/2
f 60/115/2 62/117/2 61/116/2
f 59/114/3 61/118/3 57/119/3
f 61/118/3 55/120/3 57/119/3
f 62/121/4 60/122/4 56/123/4
f 60/122/4 58/124/4 56/123/4
f 61/125/5 62/126/5 55/127/5
f 62/126/5 56/128/5 55/127/5
f 57/129/6 58/130/6 59/131/6
f 58/130/6 60/132/6 59/131/6
f 63/133/1 64/134/1 65/135/1
f 64/134/1 66/136/1 65/135/1
f 67/137/2 68/138/2 69/139/2
f 68/138/2 70/140/2 69/139/2
f 69/141/5 70/142/5 63/143/5
f 70/142/5 64/144/5 63/143/5
f 65/145/6 66/146/6 67/147/6
f 66/146/6 68/148/6 67/147/6
f 71/149/1 72/150/1 73/151/1
f 72/150/1 74/152/1 73/151/1
f 75/153/2 76/154/2 77/155/2
f 76/154/2 78/156/2 77/155/2
f 75/153/3 77/157/3 73/158/3
f 77/157/3 71/159/3 73/158/3
f 78/160/4 76/161/4 72/162/4
f 76/161/4 74/163/4 72/162/4
f 77/164/5 78/165/5 71/166/5
f 78/165/5 72/167/5 71/166/5
f 83/168/2 84/169/2 85/170/2
f 84/169/2 86/171/2 85/170/2
f 83/168/3 85/172/3 81/173/3
f 85/172/3 79/174/3 81/173/3
f 86/175/4 84/176/4 80/177/4
f 84/176/4 82/178/4 80/177/4
f 87/179/1 88/180/1 89/181/1
f 88/180/1 90/182/1 89/181/1
f 91/183/2 92/184/2 93/185/2
f 92/184/2 94/186/2 93/185/2
f 91/183/3 93/187/3 89/181/3
f 93/187/3 87/188/3 89/181/3
f 94/189/4 92/184/4 88/190/4
f 92/184/4 90/182/4 88/190/4
f 93/191/5 94/192/5 87/193/5
f 94/192/5 88/194/5 87/193/5
f 89/195/6 90/196/6 91/197/6
f 90/196/6 92/198/6 91/197/6
