# Blender v2.79 (sub 0) OBJ File: ''
# www.blender.org
mtllib fuelpump.mtl
o FuelPump
v 0.500000 0.062500 -0.500000
v 0.500000 -0.000000 -0.500000
v -0.500000 0.062500 -0.500000
v -0.500000 -0.000000 -0.500000
v -0.500000 0.062500 0.500000
v -0.500000 -0.000000 0.500000
v 0.500000 0.062500 0.500000
v 0.500000 -0.000000 0.500000
v 0.375000 1.250000 0.250000
v 0.375000 1.187500 0.250000
v -0.375000 1.250000 0.250000
v -0.375000 1.187500 0.250000
v -0.375000 1.250000 0.312500
v -0.375000 1.187500 0.312500
v 0.375000 1.250000 0.312500
v 0.375000 1.187500 0.312500
v 0.312500 0.687500 -0.250000
v 0.312500 0.062500 -0.250000
v -0.312500 0.687500 -0.250000
v -0.312500 0.062500 -0.250000
v -0.312500 0.687500 0.250000
v -0.312500 0.062500 0.250000
v 0.312500 0.687500 0.250000
v 0.312500 0.062500 0.250000
v 0.312500 1.250000 -0.312500
v 0.312500 0.687500 -0.312500
v -0.437500 1.250000 -0.312500
v -0.437500 0.687500 -0.312500
v -0.437500 1.250000 0.250000
v -0.437500 0.687500 0.250000
v 0.312500 1.250000 0.250000
v 0.312500 0.687500 0.250000
v -0.375000 1.250000 0.250000
v -0.375000 0.687500 0.250000
v -0.437500 1.250000 0.250000
v -0.437500 0.687500 0.250000
v -0.437500 1.250000 0.312500
v -0.437500 0.687500 0.312500
v -0.375000 1.250000 0.312500
v -0.375000 0.687500 0.312500
v 0.437500 1.250000 0.250000
v 0.437500 0.687500 0.250000
v 0.375000 1.250000 0.250000
v 0.375000 0.687500 0.250000
v 0.375000 1.250000 0.312500
v 0.375000 0.687500 0.312500
v 0.437500 1.250000 0.312500
v 0.437500 0.687500 0.312500
v 0.375000 0.937500 -0.125000
v 0.375000 0.812500 -0.125000
v 0.312500 0.937500 -0.125000
v 0.312500 0.812500 -0.125000
v 0.312500 0.937500 0.062500
v 0.312500 0.812500 0.062500
v 0.375000 0.937500 0.062500
v 0.375000 0.812500 0.062500
v 0.500000 0.812500 -0.125000
v 0.500000 0.687500 -0.125000
v 0.312500 0.812500 -0.125000
v 0.312500 0.687500 -0.125000
v 0.312500 0.812500 0.062500
v 0.312500 0.687500 0.062500
v 0.500000 0.812500 0.062500
v 0.500000 0.687500 0.062500
v 0.375000 0.750000 0.250000
v 0.375000 0.687500 0.250000
v -0.375000 0.750000 0.250000
v -0.375000 0.687500 0.250000
v -0.375000 0.750000 0.312500
v -0.375000 0.687500 0.312500
v 0.375000 0.750000 0.312500
v 0.375000 0.687500 0.312500
v 0.437500 1.250000 -0.312500
v 0.437500 0.687500 -0.312500
v 0.312500 1.250000 -0.312500
v 0.312500 0.687500 -0.312500
v 0.312500 1.250000 -0.125000
v 0.312500 0.687500 -0.125000
v 0.437500 1.250000 -0.125000
v 0.437500 0.687500 -0.125000
v 0.437500 1.250000 0.062500
v 0.437500 0.687500 0.062500
v 0.312500 1.250000 0.062500
v 0.312500 0.687500 0.062500
v 0.312500 1.250000 0.250000
v 0.312500 0.687500 0.250000
v 0.437500 1.250000 0.250000
v 0.437500 0.687500 0.250000
v 0.437500 1.250000 -0.125000
v 0.437500 1.125000 -0.125000
v 0.312500 1.250000 -0.125000
v 0.312500 1.125000 -0.125000
v 0.312500 1.250000 0.062500
v 0.312500 1.125000 0.062500
v 0.437500 1.250000 0.062500
v 0.437500 1.125000 0.062500
vt 0.015625 0.484375
vt 0.015625 0.015625
vt 0.492188 0.484375
vt 0.492188 0.015625
vt 0.015625 0.484375
vt 0.015625 0.015625
vt 0.492188 0.484375
vt 0.492188 0.015625
vt 0.015625 0.015625
vt 0.492188 0.015625
vt 0.015625 0.484375
vt 0.492188 0.484375
vt 0.015625 0.484375
vt 0.015625 0.015625
vt 0.492188 0.484375
vt 0.492188 0.015625
vt 0.015625 0.484375
vt 0.015625 0.015625
vt 0.492188 0.484375
vt 0.492188 0.015625
vt 0.679688 0.492188
vt 0.679688 0.437500
vt 0.765625 0.492188
vt 0.765625 0.437500
vt 0.679688 0.492188
vt 0.679688 0.437500
vt 0.765625 0.492188
vt 0.765625 0.437500
vt 0.679688 0.437500
vt 0.765625 0.437500
vt 0.679688 0.492188
vt 0.765625 0.492188
vt 0.679688 0.492188
vt 0.679688 0.437500
vt 0.765625 0.492188
vt 0.765625 0.437500
vt 0.679688 0.492188
vt 0.679688 0.437500
vt 0.765625 0.492188
vt 0.765625 0.437500
vt 0.000000 1.000000
vt 0.000000 0.500000
vt 0.500000 1.000000
vt 0.500000 0.500000
vt 0.000000 1.000000
vt 0.000000 0.492188
vt 0.500000 1.000000
vt 0.500000 0.492188
vt 0.000000 0.375000
vt 0.500000 0.375000
vt 0.000000 1.000000
vt 0.000000 0.375000
vt 0.500000 1.000000
vt 0.500000 0.375000
vt 0.507812 0.406250
vt 0.507812 0.007812
vt 0.992188 0.406250
vt 0.992188 0.007812
vt 0.515625 0.406250
vt 0.515625 0.007812
vt 0.992188 0.406250
vt 0.992188 0.007812
vt 0.632812 0.515625
vt 0.632812 0.453125
vt 0.820312 0.515625
vt 0.820312 0.453125
vt 0.500000 1.000000
vt 0.500000 0.562500
vt 0.953125 1.000000
vt 0.953125 0.562500
vt 0.632812 0.515625
vt 0.632812 0.453125
vt 0.820312 0.453125
vt 0.632812 0.515625
vt 0.632812 0.453125
vt 0.820312 0.515625
vt 0.171875 0.328125
vt 0.171875 0.265625
vt 0.359375 0.328125
vt 0.359375 0.265625
vt 0.632812 0.515625
vt 0.632812 0.453125
vt 0.820312 0.515625
vt 0.820312 0.453125
vt 0.570312 0.515625
vt 0.570312 0.445312
vt 0.687500 0.515625
vt 0.687500 0.445312
vt 0.570312 0.515625
vt 0.570312 0.445312
vt 0.687500 0.515625
vt 0.687500 0.445312
vt 0.570312 0.445312
vt 0.687500 0.445312
vt 0.570312 0.515625
vt 0.687500 0.515625
vt 0.570312 0.515625
vt 0.570312 0.445312
vt 0.687500 0.515625
vt 0.687500 0.445312
vt 0.570312 0.515625
vt 0.570312 0.445312
vt 0.687500 0.515625
vt 0.687500 0.445312
vt 0.562500 0.484375
vt 0.562500 0.453125
vt 0.625000 0.484375
vt 0.625000 0.453125
vt 0.562500 0.484375
vt 0.562500 0.453125
vt 0.625000 0.484375
vt 0.625000 0.453125
vt 0.562500 0.453125
vt 0.625000 0.453125
vt 0.562500 0.484375
vt 0.625000 0.484375
vt 0.562500 0.484375
vt 0.562500 0.453125
vt 0.625000 0.484375
vt 0.625000 0.453125
vt 0.562500 0.484375
vt 0.562500 0.453125
vt 0.625000 0.484375
vt 0.625000 0.453125
vt 0.109375 0.328125
vt 0.109375 0.265625
vt 0.296875 0.328125
vt 0.296875 0.265625
vt 0.109375 0.328125
vt 0.109375 0.265625
vt 0.296875 0.328125
vt 0.296875 0.265625
vt 0.109375 0.265625
vt 0.296875 0.265625
vt 0.109375 0.328125
vt 0.296875 0.328125
vt 0.109375 0.328125
vt 0.109375 0.265625
vt 0.296875 0.328125
vt 0.296875 0.265625
vt 0.109375 0.328125
vt 0.109375 0.265625
vt 0.296875 0.328125
vt 0.296875 0.265625
vt 0.156250 0.359375
vt 0.156250 0.171875
vt 0.343750 0.359375
vt 0.343750 0.171875
vt 0.156250 0.359375
vt 0.156250 0.171875
vt 0.343750 0.359375
vt 0.343750 0.171875
vt 0.156250 0.171875
vt 0.343750 0.171875
vt 0.156250 0.359375
vt 0.343750 0.359375
vt 0.156250 0.359375
vt 0.156250 0.171875
vt 0.343750 0.359375
vt 0.343750 0.171875
vt 0.156250 0.359375
vt 0.156250 0.171875
vt 0.343750 0.359375
vt 0.343750 0.171875
vt 0.664062 0.507812
vt 0.664062 0.476562
vt 0.734375 0.507812
vt 0.734375 0.476562
vt 0.664062 0.507812
vt 0.664062 0.476562
vt 0.734375 0.507812
vt 0.734375 0.476562
vt 0.664062 0.476562
vt 0.734375 0.476562
vt 0.664062 0.507812
vt 0.734375 0.507812
vt 0.664062 0.507812
vt 0.664062 0.476562
vt 0.734375 0.507812
vt 0.734375 0.476562
vt 0.664062 0.507812
vt 0.664062 0.476562
vt 0.734375 0.507812
vt 0.734375 0.476562
vt 0.632812 0.484375
vt 0.632812 0.453125
vt 0.820312 0.484375
vt 0.820312 0.453125
vt 0.632812 0.484375
vt 0.632812 0.453125
vt 0.820312 0.484375
vt 0.820312 0.453125
vt 0.632812 0.453125
vt 0.820312 0.453125
vt 0.632812 0.484375
vt 0.820312 0.484375
vt 0.632812 0.484375
vt 0.632812 0.453125
vt 0.820312 0.484375
vt 0.820312 0.453125
vt 0.632812 0.484375
vt 0.632812 0.453125
vt 0.820312 0.484375
vt 0.820312 0.453125
vt 0.593750 0.492188
vt 0.593750 0.445312
vt 0.781250 0.492188
vt 0.781250 0.445312
vt 0.554688 1.000000
vt 0.554688 0.562500
vt 0.742188 1.000000
vt 0.742188 0.562500
vt 0.593750 0.492188
vt 0.593750 0.445312
vt 0.781250 0.445312
vt 0.593750 0.492188
vt 0.593750 0.445312
vt 0.781250 0.492188
vt 0.593750 0.492188
vt 0.593750 0.445312
vt 0.781250 0.492188
vt 0.781250 0.445312
vt 0.593750 0.492188
vt 0.593750 0.445312
vt 0.781250 0.492188
vt 0.781250 0.445312
vt 0.625000 0.500000
vt 0.625000 0.453125
vt 0.812500 0.500000
vt 0.812500 0.453125
vt 0.625000 0.500000
vt 0.625000 0.453125
vt 0.812500 0.500000
vt 0.812500 0.453125
vt 0.625000 0.453125
vt 0.812500 0.453125
vt 0.625000 0.500000
vt 0.812500 0.500000
vt 0.625000 0.500000
vt 0.625000 0.453125
vt 0.812500 0.500000
vt 0.812500 0.453125
vt 0.625000 0.500000
vt 0.625000 0.453125
vt 0.812500 0.500000
vt 0.812500 0.453125
vn 0.0000 0.0000 -1.0000
vn 0.0000 0.0000 1.0000
vn 0.0000 1.0000 -0.0000
vn -0.0000 -1.0000 0.0000
vn 1.0000 0.0000 -0.0000
vn -1.0000 0.0000 0.0000
usemtl 0
s 1
f 1/1/1 2/2/1 3/3/1
f 2/2/1 4/4/1 3/3/1
f 5/5/2 6/6/2 7/7/2
f 6/6/2 8/8/2 7/7/2
f 5/5/3 7/9/3 3/3/3
f 7/9/3 1/10/3 3/3/3
f 8/11/4 6/6/4 2/12/4
f 6/6/4 4/4/4 2/12/4
f 7/13/5 8/14/5 1/15/5
f 8/14/5 2/16/5 1/15/5
f 3/17/6 4/18/6 5/19/6
f 4/18/6 6/20/6 5/19/6
f 9/21/1 10/22/1 11/23/1
f 10/22/1 12/24/1 11/23/1
f 13/25/2 14/26/2 15/27/2
f 14/26/2 16/28/2 15/27/2
f 13/25/3 15/29/3 11/23/3
f 15/29/3 9/30/3 11/23/3
f 16/31/4 14/26/4 10/32/4
f 14/26/4 12/24/4 10/32/4
f 15/33/5 16/34/5 9/35/5
f 16/34/5 10/36/5 9/35/5
f 11/37/6 12/38/6 13/39/6
f 12/38/6 14/40/6 13/39/6
f 17/41/1 18/42/1 19/43/1
f 18/42/1 20/44/1 19/43/1
f 21/45/2 22/46/2 23/47/2
f 22/46/2 24/48/2 23/47/2
f 21/45/3 23/49/3 19/43/3
f 23/49/3 17/50/3 19/43/3
f 24/51/4 22/52/4 18/53/4
f 22/52/4 20/54/4 18/53/4
f 23/55/5 24/56/5 17/57/5
f 24/56/5 18/58/5 17/57/5
f 19/59/6 20/60/6 21/61/6
f 20/60/6 22/62/6 21/61/6
f 25/63/1 26/64/1 27/65/1
f 26/64/1 28/66/1 27/65/1
f 29/67/2 30/68/2 31/69/2
f 30/68/2 32/70/2 31/69/2
f 29/71/3 31/72/3 27/65/3
f 31/72/3 25/73/3 27/65/3
f 32/74/4 30/75/4 26/76/4
f 30/75/4 28/66/4 26/76/4
f 31/77/5 32/78/5 25/79/5
f 32/78/5 26/80/5 25/79/5
f 27/81/6 28/82/6 29/83/6
f 28/82/6 30/84/6 29/83/6
f 33/85/1 34/86/1 35/87/1
f 34/86/1 36/88/1 35/87/1
f 37/89/2 38/90/2 39/91/2
f 38/90/2 40/92/2 39/91/2
f 37/89/3 39/93/3 35/87/3
f 39/93/3 33/94/3 35/87/3
f 40/95/4 38/90/4 34/96/4
f 38/90/4 36/88/4 34/96/4
f 39/97/5 40/98/5 33/99/5
f 40/98/5 34/100/5 33/99/5
f 35/101/6 36/102/6 37/103/6
f 36/102/6 38/104/6 37/103/6
f 41/105/1 42/106/1 43/107/1
f 42/106/1 44/108/1 43/107/1
f 45/109/2 46/110/2 47/111/2
f 46/110/2 48/112/2 47/111/2
f 45/109/3 47/113/3 43/107/3
f 47/113/3 41/114/3 43/107/3
f 48/115/4 46/110/4 42/116/4
f 46/110/4 44/108/4 42/116/4
f 47/117/5 48/118/5 41/119/5
f 48/118/5 42/120/5 41/119/5
f 43/121/6 44/122/6 45/123/6
f 44/122/6 46/124/6 45/123/6
f 49/125/1 50/126/1 51/127/1
f 50/126/1 52/128/1 51/127/1
f 53/129/2 54/130/2 55/131/2
f 54/130/2 56/132/2 55/131/2
f 53/129/3 55/133/3 51/127/3
f 55/133/3 49/134/3 51/127/3
f 56/135/4 54/130/4 50/136/4
f 54/130/4 52/128/4 50/136/4
f 55/137/5 56/138/5 49/139/5
f 56/138/5 50/140/5 49/139/5
f 51/141/6 52/142/6 53/143/6
f 52/142/6 54/144/6 53/143/6
f 57/145/1 58/146/1 59/147/1
f 58/146/1 60/148/1 59/147/1
f 61/149/2 62/150/2 63/151/2
f 62/150/2 64/152/2 63/151/2
f 61/149/3 63/153/3 59/147/3
f 63/153/3 57/154/3 59/147/3
f 64/155/4 62/150/4 58/156/4
f 62/150/4 60/148/4 58/156/4
f 63/157/5 64/158/5 57/159/5
f 64/158/5 58/160/5 57/159/5
f 59/161/6 60/162/6 61/163/6
f 60/162/6 62/164/6 61/163/6
f 65/165/1 66/166/1 67/167/1
f 66/166/1 68/168/1 67/167/1
f 69/169/2 70/170/2 71/171/2
f 70/170/2 72/172/2 71/171/2
f 69/169/3 71/173/3 67/167/3
f 71/173/3 65/174/3 67/167/3
f 72/175/4 70/170/4 66/176/4
f 70/170/4 68/168/4 66/176/4
f 71/177/5 72/178/5 65/179/5
f 72/178/5 66/180/5 65/179/5
f 67/181/6 68/182/6 69/183/6
f 68/182/6 70/184/6 69/183/6
f 73/185/1 74/186/1 75/187/1
f 74/186/1 76/188/1 75/187/1
f 77/189/2 78/190/2 79/191/2
f 78/190/2 80/192/2 79/191/2
f 77/189/3 79/193/3 75/187/3
f 79/193/3 73/194/3 75/187/3
f 80/195/4 78/190/4 74/196/4
f 78/190/4 76/188/4 74/196/4
f 79/197/5 80/198/5 73/199/5
f 80/198/5 74/200/5 73/199/5
f 75/201/6 76/202/6 77/203/6
f 76/202/6 78/204/6 77/203/6
f 81/205/1 82/206/1 83/207/1
f 82/206/1 84/208/1 83/207/1
f 85/209/2 86/210/2 87/211/2
f 86/210/2 88/212/2 87/211/2
f 85/213/3 87/214/3 83/207/3
f 87/214/3 81/215/3 83/207/3
f 88/216/4 86/217/4 82/218/4
f 86/217/4 84/208/4 82/218/4
f 87/219/5 88/220/5 81/221/5
f 88/220/5 82/222/5 81/221/5
f 83/223/6 84/224/6 85/225/6
f 84/224/6 86/226/6 85/225/6
f 89/227/1 90/228/1 91/229/1
f 90/228/1 92/230/1 91/229/1
f 93/231/2 94/232/2 95/233/2
f 94/232/2 96/234/2 95/233/2
f 93/231/3 95/235/3 91/229/3
f 95/235/3 89/236/3 91/229/3
f 96/237/4 94/232/4 90/238/4
f 94/232/4 92/230/4 90/238/4
f 95/239/5 96/240/5 89/241/5
f 96/240/5 90/242/5 89/241/5
f 91/243/6 92/244/6 93/245/6
f 92/244/6 94/246/6 93/245/6
