# Blender v2.79 (sub 0) OBJ File: ''
# www.blender.org
mtllib fuelpump.mtl
o c8e32b13-cc41-d395-6264-f3751a2501c0
v 0.283587 0.940467 0.263887
v 0.283587 0.190467 0.263887
v 0.283587 0.940467 0.201387
v 0.283587 0.190467 0.201387
v -0.278913 0.940467 0.201387
v -0.278913 0.190467 0.201387
v -0.278913 0.940467 0.263887
v -0.278913 0.190467 0.263887
vt 0.500000 0.500000
vt 0.500000 0.000000
vt 1.000000 0.500000
vt 1.000000 0.000000
vt 0.500000 0.500000
vt 0.500000 0.000000
vt 1.000000 0.500000
vt 1.000000 0.000000
vt 0.500000 0.000000
vt 1.000000 0.000000
vt 0.500000 0.500000
vt 1.000000 0.500000
vt 0.500000 0.500000
vt 0.500000 0.000000
vt 1.000000 0.500000
vt 1.000000 0.000000
vn 1.0000 0.0000 0.0000
vn -1.0000 0.0000 0.0000
vn 0.0000 1.0000 0.0000
vn 0.0000 -1.0000 0.0000
vn 0.0000 -0.0000 1.0000
usemtl 0
s 1
f 1/1/1 2/2/1 3/3/1
f 2/2/1 4/4/1 3/3/1
f 5/5/2 6/6/2 7/7/2
f 6/6/2 8/8/2 7/7/2
f 5/5/3 7/9/3 3/3/3
f 7/9/3 1/10/3 3/3/3
f 8/11/4 6/6/4 2/12/4
f 6/6/4 4/4/4 2/12/4
f 7/13/5 8/14/5 1/15/5
f 8/14/5 2/16/5 1/15/5
o 80fa8dfd-a7e7-5a33-f238-c129169d5f0b
v -0.185163 1.065467 0.076387
v -0.185163 0.940467 0.076387
v -0.185163 1.065467 -0.048613
v -0.185163 0.940467 -0.048613
v -0.247663 1.065467 -0.048613
v -0.247663 0.940467 -0.048613
v -0.247663 1.065467 0.076387
v -0.247663 0.940467 0.076387
vt 0.203125 0.875000
vt 0.203125 0.750000
vt 0.265625 0.875000
vt 0.265625 0.750000
vt 0.203125 0.875000
vt 0.203125 0.750000
vt 0.265625 0.875000
vt 0.265625 0.750000
vt 0.203125 0.875000
vt 0.203125 0.750000
vt 0.265625 0.875000
vt 0.265625 0.750000
vt 0.203125 0.875000
vt 0.203125 0.750000
vt 0.265625 0.875000
vt 0.265625 0.750000
vn 1.0000 0.0000 0.0000
vn -1.0000 -0.0000 0.0000
vn 0.0000 -0.0000 1.0000
vn 0.0000 0.0000 -1.0000
usemtl 0
s 1
f 9/17/6 10/18/6 11/19/6
f 10/18/6 12/20/6 11/19/6
f 13/21/7 14/22/7 15/23/7
f 14/22/7 16/24/7 15/23/7
f 15/25/8 16/26/8 9/27/8
f 16/26/8 10/28/8 9/27/8
f 11/29/9 12/30/9 13/31/9
f 12/30/9 14/32/9 13/31/9
o 5b9568d4-4463-69ec-2d9c-fced8cbaa902
v 0.314837 0.940467 0.201387
v 0.314837 0.065467 0.201387
v 0.314837 0.940467 -0.173613
v 0.314837 0.065467 -0.173613
v -0.185163 0.940467 -0.173613
v -0.185163 0.065467 -0.173613
v -0.185163 0.940467 0.201387
v -0.185163 0.065467 0.201387
vt 0.046875 0.953125
vt 0.046875 0.546875
vt 0.421875 0.953125
vt 0.421875 0.546875
vt 0.046875 0.953125
vt 0.046875 0.546875
vt 0.421875 0.953125
vt 0.421875 0.953125
vt 0.046875 0.953125
vt 0.421875 0.546875
vt 0.046875 0.546875
vt 0.046875 0.546875
vt 0.421875 0.953125
vt 0.421875 0.546875
vt 0.046875 0.953125
vt 0.046875 0.546875
vt 0.421875 0.546875
vn 1.0000 0.0000 0.0000
vn -1.0000 0.0000 0.0000
vn 0.0000 1.0000 0.0000
vn 0.0000 -0.0000 1.0000
vn 0.0000 0.0000 -1.0000
usemtl 0
s 1
f 17/33/10 18/34/10 19/35/10
f 18/34/10 20/36/10 19/35/10
f 21/37/11 22/38/11 23/39/11
f 21/40/12 23/41/12 19/42/12
f 23/41/12 17/43/12 19/42/12
f 23/41/13 24/44/13 17/45/13
f 24/44/13 18/46/13 17/45/13
f 19/47/14 20/48/14 21/40/14
f 20/48/14 22/49/14 21/40/14
o 1d4bffaf-09a3-9434-c3a0-ca958942afed
v 0.252337 1.065467 0.076387
v 0.252337 0.940467 0.076387
v 0.252337 1.065467 -0.048613
v 0.252337 0.940467 -0.048613
v 0.189837 1.065467 -0.048613
v 0.189837 0.940467 -0.048613
v 0.189837 1.065467 0.076387
v 0.189837 0.940467 0.076387
vt 0.218750 0.828125
vt 0.218750 0.703125
vt 0.281250 0.828125
vt 0.281250 0.703125
vt 0.218750 0.828125
vt 0.218750 0.703125
vt 0.281250 0.828125
vt 0.281250 0.703125
vt 0.218750 0.828125
vt 0.218750 0.703125
vt 0.281250 0.828125
vt 0.281250 0.703125
vt 0.218750 0.828125
vt 0.218750 0.703125
vt 0.281250 0.828125
vt 0.281250 0.703125
vn 1.0000 0.0000 0.0000
vn -1.0000 0.0000 0.0000
vn 0.0000 -0.0000 1.0000
vn 0.0000 0.0000 -1.0000
usemtl 0
s 1
f 25/50/15 26/51/15 27/52/15
f 26/51/15 28/53/15 27/52/15
f 29/54/16 30/55/16 31/56/16
f 30/55/16 32/57/16 31/56/16
f 31/58/17 32/59/17 25/60/17
f 32/59/17 26/61/17 25/60/17
f 27/62/18 28/63/18 29/64/18
f 28/63/18 30/65/18 29/64/18
o 39e2416e-6a76-b693-440c-16e75b72dff4
v 0.283587 0.940467 -0.173613
v 0.283587 0.190467 -0.173613
v 0.283587 0.940467 -0.236113
v 0.283587 0.190467 -0.236113
v -0.278913 0.940467 -0.236113
v -0.278913 0.190467 -0.236113
v -0.278913 0.940467 -0.173613
v -0.278913 0.190467 -0.173613
vt 0.500000 0.500000
vt 0.500000 0.000000
vt 1.000000 0.500000
vt 1.000000 0.000000
vt 0.500000 0.500000
vt 0.500000 0.000000
vt 1.000000 0.500000
vt 1.000000 0.000000
vt 0.500000 0.000000
vt 1.000000 0.000000
vt 0.500000 0.500000
vt 1.000000 0.500000
vt 0.500000 0.500000
vt 0.500000 0.000000
vt 1.000000 0.500000
vt 1.000000 0.000000
vn 1.0000 0.0000 0.0000
vn -1.0000 0.0000 0.0000
vn 0.0000 1.0000 0.0000
vn 0.0000 -1.0000 0.0000
vn 0.0000 0.0000 -1.0000
usemtl 0
s 1
f 33/66/19 34/67/19 35/68/19
f 34/67/19 36/69/19 35/68/19
f 37/70/20 38/71/20 39/72/20
f 38/71/20 40/73/20 39/72/20
f 37/70/21 39/74/21 35/68/21
f 39/74/21 33/75/21 35/68/21
f 40/76/22 38/71/22 34/77/22
f 38/71/22 36/69/22 34/77/22
f 35/78/23 36/79/23 37/80/23
f 36/79/23 38/81/23 37/80/23
o f822a4f5-ff88-db5e-11b7-5180c1b892a4
v -0.130246 0.651634 0.045137
v -0.262829 0.519052 0.045137
v -0.130246 0.651634 -0.017363
v -0.262829 0.519052 -0.017363
v -0.174440 0.695829 -0.017363
v -0.307023 0.563246 -0.017363
v -0.174440 0.695829 0.045137
v -0.307023 0.563246 0.045137
vt 0.296875 0.843750
vt 0.109375 0.843750
vt 0.296875 0.781250
vt 0.109375 0.781250
vt 0.296875 0.843750
vt 0.109375 0.843750
vt 0.296875 0.781250
vt 0.109375 0.781250
vt 0.109375 0.843750
vt 0.109375 0.781250
vt 0.296875 0.843750
vt 0.296875 0.781250
vt 0.296875 0.843750
vt 0.109375 0.843750
vt 0.296875 0.781250
vt 0.109375 0.781250
vt 0.296875 0.843750
vt 0.109375 0.843750
vt 0.296875 0.781250
vt 0.109375 0.781250
vn 0.7071 -0.7071 0.0000
vn -0.7071 0.7071 0.0000
vn 0.7071 0.7071 0.0000
vn -0.7071 -0.7071 0.0000
vn 0.0000 -0.0000 1.0000
vn 0.0000 0.0000 -1.0000
usemtl 0
s 1
f 41/82/24 42/83/24 43/84/24
f 42/83/24 44/85/24 43/84/24
f 45/86/25 46/87/25 47/88/25
f 46/87/25 48/89/25 47/88/25
f 45/86/26 47/90/26 43/84/26
f 47/90/26 41/91/26 43/84/26
f 48/92/27 46/87/27 42/93/27
f 46/87/27 44/85/27 42/93/27
f 47/94/28 48/95/28 41/96/28
f 48/95/28 42/97/28 41/96/28
f 43/98/29 44/99/29 45/100/29
f 44/99/29 46/101/29 45/100/29
o cbf3af17-e921-06b2-5dd3-7dc2c9bde800
v 0.502337 0.065467 0.513887
v 0.502337 0.002967 0.513887
v 0.502337 0.065467 -0.486113
v 0.502337 0.002967 -0.486113
v -0.497663 0.065467 -0.486113
v -0.497663 0.002967 -0.486113
v -0.497663 0.065467 0.513887
v -0.497663 0.002967 0.513887
vt 0.500000 1.000000
vt 0.500000 0.500000
vt 1.000000 1.000000
vt 1.000000 0.500000
vt 0.500000 1.000000
vt 0.500000 0.500000
vt 1.000000 1.000000
vt 1.000000 0.500000
vt 0.500000 0.500000
vt 1.000000 0.500000
vt 0.500000 1.000000
vt 1.000000 1.000000
vt 0.500000 1.000000
vt 0.500000 0.500000
vt 1.000000 1.000000
vt 1.000000 0.500000
vt 0.500000 1.000000
vt 0.500000 0.500000
vt 1.000000 1.000000
vt 1.000000 0.500000
vn 1.0000 0.0000 0.0000
vn -1.0000 0.0000 0.0000
vn 0.0000 1.0000 0.0000
vn 0.0000 -1.0000 -0.0000
vn 0.0000 -0.0000 1.0000
vn 0.0000 0.0000 -1.0000
usemtl 0
s 1
f 49/102/30 50/103/30 51/104/30
f 50/103/30 52/105/30 51/104/30
f 53/106/31 54/107/31 55/108/31
f 54/107/31 56/109/31 55/108/31
f 53/106/32 55/110/32 51/104/32
f 55/110/32 49/111/32 51/104/32
f 56/112/33 54/107/33 50/113/33
f 54/107/33 52/105/33 50/113/33
f 55/114/34 56/115/34 49/116/34
f 56/115/34 50/117/34 49/116/34
f 51/118/35 52/119/35 53/120/35
f 52/119/35 54/121/35 53/120/35
o d0ea45ff-45d6-6a3b-e3f8-d302c6227c9f
v -0.185163 0.565467 0.201387
v -0.185163 0.065467 0.201387
v -0.185163 0.565467 -0.173613
v -0.185163 0.065467 -0.173613
v -0.310163 0.565467 -0.173613
v -0.310163 0.065467 -0.173613
v -0.310163 0.565467 0.201387
v -0.310163 0.065467 0.201387
vt 0.156250 0.953125
vt 0.156250 0.578125
vt 0.281250 0.953125
vt 0.281250 0.578125
vt 0.156250 0.578125
vt 0.281250 0.953125
vt 0.156250 0.953125
vt 0.156250 0.578125
vt 0.281250 0.953125
vt 0.281250 0.578125
vt 0.156250 0.953125
vt 0.156250 0.578125
vt 0.281250 0.953125
vt 0.281250 0.578125
vn -1.0000 0.0000 0.0000
vn 0.0000 1.0000 0.0000
vn 0.0000 -0.0000 1.0000
vn 0.0000 0.0000 -1.0000
usemtl 0
s 1
f 61/122/36 62/123/36 63/124/36
f 62/123/36 64/125/36 63/124/36
f 61/122/37 63/126/37 59/127/37
f 63/128/38 64/129/38 57/130/38
f 64/129/38 58/131/38 57/130/38
f 59/132/39 60/133/39 61/134/39
f 60/133/39 62/135/39 61/134/39
o 4c7cf3b7-e534-b21e-c410-fe9306f59783
v -0.185163 0.940467 0.201387
v -0.185163 0.565467 0.201387
v -0.185163 0.940467 0.045137
v -0.185163 0.565467 0.045137
v -0.310163 0.940467 0.045137
v -0.310163 0.565467 0.045137
v -0.310163 0.940467 0.201387
v -0.310163 0.565467 0.201387
vt 0.234375 0.875000
vt 0.234375 0.718750
vt 0.359375 0.875000
vt 0.359375 0.718750
vt 0.234375 0.718750
vt 0.359375 0.875000
vt 0.359375 0.718750
vt 0.234375 0.875000
vt 0.234375 0.718750
vt 0.359375 0.875000
vt 0.359375 0.718750
vt 0.234375 0.875000
vt 0.234375 0.718750
vt 0.359375 0.875000
vt 0.359375 0.718750
vn -1.0000 0.0000 0.0000
vn 0.0000 1.0000 0.0000
vn 0.0000 -0.0000 1.0000
vn 0.0000 0.0000 -1.0000
usemtl 0
s 1
f 69/136/40 70/137/40 71/138/40
f 70/137/40 72/139/40 71/138/40
f 69/136/41 71/140/41 67/141/41
f 71/140/41 65/142/41 67/141/41
f 71/143/42 72/144/42 65/145/42
f 72/144/42 66/146/42 65/145/42
f 67/147/43 68/148/43 69/149/43
f 68/148/43 70/150/43 69/149/43
o 81372e39-5405-27b4-a306-1136bc46f9fb
v 0.314837 1.440467 0.138887
v 0.314837 1.065467 0.138887
v 0.314837 1.440467 -0.111113
v 0.314837 1.065467 -0.111113
v -0.310163 1.440467 -0.111113
v -0.310163 1.065467 -0.111113
v -0.310163 1.440467 0.138887
v -0.310163 1.065467 0.138887
vt 0.500000 0.500000
vt 0.500000 0.000000
vt 1.000000 0.500000
vt 1.000000 0.000000
vt 0.500000 0.500000
vt 0.500000 0.000000
vt 1.000000 0.500000
vt 1.000000 0.000000
vt 1.000000 0.500000
vt 0.500000 0.500000
vt 1.000000 0.000000
vt 0.500000 0.000000
vt 0.500000 0.000000
vt 1.000000 0.000000
vt 0.500000 0.500000
vt 1.000000 0.500000
vt 1.000000 0.500000
vt 1.000000 0.000000
vt 0.500000 0.500000
vt 0.500000 0.000000
vn 1.0000 0.0000 0.0000
vn -1.0000 -0.0000 0.0000
vn 0.0000 1.0000 0.0000
vn 0.0000 -1.0000 0.0000
vn 0.0000 -0.0000 1.0000
vn 0.0000 0.0000 -1.0000
usemtl 0
s 1
f 73/151/44 74/152/44 75/153/44
f 74/152/44 76/154/44 75/153/44
f 77/155/45 78/156/45 79/157/45
f 78/156/45 80/158/45 79/157/45
f 77/159/46 79/160/46 75/161/46
f 79/160/46 73/162/46 75/161/46
f 80/163/47 78/164/47 74/165/47
f 78/164/47 76/166/47 74/165/47
f 79/160/48 80/163/48 73/167/48
f 80/163/48 74/168/48 73/167/48
f 75/169/49 76/170/49 77/159/49
f 76/170/49 78/164/49 77/159/49
o 5d0f8b6c-3cfa-2cfb-6872-ddb39683a2bf
v -0.185163 0.940467 -0.017363
v -0.185163 0.565467 -0.017363
v -0.185163 0.940467 -0.173613
v -0.185163 0.565467 -0.173613
v -0.310163 0.940467 -0.173613
v -0.310163 0.565467 -0.173613
v -0.310163 0.940467 -0.017363
v -0.310163 0.565467 -0.017363
vt 0.125000 0.953125
vt 0.125000 0.578125
vt 0.250000 0.953125
vt 0.250000 0.578125
vt 0.125000 0.578125
vt 0.250000 0.953125
vt 0.250000 0.578125
vt 0.125000 0.953125
vt 0.125000 0.578125
vt 0.250000 0.953125
vt 0.250000 0.578125
vt 0.125000 0.953125
vt 0.125000 0.578125
vt 0.250000 0.953125
vt 0.250000 0.578125
vn -1.0000 0.0000 0.0000
vn 0.0000 1.0000 0.0000
vn 0.0000 -0.0000 1.0000
vn 0.0000 0.0000 -1.0000
usemtl 0
s 1
f 85/171/50 86/172/50 87/173/50
f 86/172/50 88/174/50 87/173/50
f 85/171/51 87/175/51 83/176/51
f 87/175/51 81/177/51 83/176/51
f 87/178/52 88/179/52 81/180/52
f 88/179/52 82/181/52 81/180/52
f 83/182/53 84/183/53 85/184/53
f 84/183/53 86/185/53 85/184/53
o 7c79b50a-bc5b-ae90-fb75-6d8c1170ad09
v -0.310163 0.565467 0.029512
v -0.310163 0.534217 0.029512
v -0.310163 0.565467 -0.001738
v -0.310163 0.534217 -0.001738
v -0.372663 0.565467 -0.001738
v -0.372663 0.534217 -0.001738
v -0.372663 0.565467 0.029512
v -0.372663 0.534217 0.029512
vt 0.625000 0.390625
vt 0.625000 0.156250
vt 0.828125 0.390625
vt 0.828125 0.156250
vt 0.625000 0.156250
vt 0.828125 0.390625
vt 0.828125 0.156250
vt 0.625000 0.390625
vt 0.828125 0.390625
vt 0.828125 0.156250
vt 0.625000 0.390625
vt 0.625000 0.156250
vt 0.828125 0.390625
vt 0.828125 0.156250
vt 0.625000 0.390625
vt 0.625000 0.156250
vt 0.828125 0.390625
vt 0.828125 0.156250
vn -1.0000 -0.0000 0.0000
vn 0.0000 1.0000 0.0000
vn 0.0000 -1.0000 0.0000
vn 0.0000 -0.0000 1.0000
vn 0.0000 0.0000 -1.0000
usemtl 0
s 1
f 93/186/54 94/187/54 95/188/54
f 94/187/54 96/189/54 95/188/54
f 93/186/55 95/190/55 91/191/55
f 95/190/55 89/192/55 91/191/55
f 96/193/56 94/187/56 90/194/56
f 94/187/56 92/195/56 90/194/56
f 95/196/57 96/197/57 89/198/57
f 96/197/57 90/199/57 89/198/57
f 91/200/58 92/201/58 93/202/58
f 92/201/58 94/203/58 93/202/58
