# Blender v2.79 (sub 0) OBJ File: ''
# www.blender.org
mtllib skid.mtl
o bodyModel
v -0.031250 0.125000 0.031250
v 0.031250 0.125000 0.031250
v 0.031250 0.125000 -0.031250
v -0.031250 0.125000 -0.031250
v -0.031250 -0.125000 -0.031250
v 0.031250 -0.125000 -0.031250
v 0.031250 -0.125000 0.031250
v -0.031250 -0.125000 0.031250
v -0.031250 0.125000 0.281250
v 0.031250 0.125000 0.281250
v 0.031250 0.169194 0.237056
v -0.031250 0.169194 0.237056
v -0.031250 -0.095971 -0.028109
v 0.031250 -0.095971 -0.028109
v 0.031250 -0.140165 0.016085
v -0.031250 -0.140165 0.016085
v -0.062500 -0.081250 0.093750
v 0.062500 -0.081250 0.093750
v 0.062500 -0.081250 -0.093750
v -0.062500 -0.081250 -0.093750
v -0.062500 -0.143750 -0.093750
v 0.062500 -0.143750 -0.093750
v 0.062500 -0.143750 0.093750
v -0.062500 -0.143750 0.093750
vt 0.416667 0.916667
vt 0.500000 0.916667
vt 0.500000 1.000000
vt 0.416667 1.000000
vt 0.416667 0.583333
vt 0.500000 0.583333
vt 0.666667 0.916667
vt 0.583333 0.916667
vt 0.583333 0.583333
vt 0.666667 0.583333
vt 0.333333 0.916667
vt 0.333333 0.583333
vt 0.083333 0.916667
vt 0.166667 0.916667
vt 0.166667 1.000000
vt 0.083333 1.000000
vt 0.083333 0.416667
vt 0.166667 0.416667
vt 0.333333 0.916667
vt 0.250000 0.916667
vt 0.250000 0.416667
vt 0.333333 0.416667
vt 0.000000 0.916667
vt 0.000000 0.416667
vt 0.333333 0.333333
vt 0.500000 0.333333
vt 0.500000 0.583333
vt 0.333333 0.583333
vt 0.500000 0.333333
vt 0.666667 0.333333
vt 0.666667 0.583333
vt 0.500000 0.583333
vt 0.333333 0.250000
vt 0.500000 0.250000
vt 0.916667 0.333333
vt 0.750000 0.333333
vt 0.750000 0.250000
vt 0.916667 0.250000
vt 0.083333 0.333333
vt 0.083333 0.250000
vn 0.0000 1.0000 0.0000
vn 0.0000 -0.0000 1.0000
vn 0.0000 0.0000 -1.0000
vn 1.0000 0.0000 0.0000
vn -1.0000 0.0000 0.0000
vn 0.0000 0.7071 0.7071
vn 0.0000 -0.7071 0.7071
vn 0.0000 0.7071 -0.7071
vn 0.0000 -1.0000 -0.0000
usemtl ModelMaterial
s off
f 1/1/1 2/2/1 3/3/1 4/4/1
f 2/2/2 1/1/2 8/5/2 7/6/2
f 4/7/3 3/8/3 6/9/3 5/10/3
f 3/8/4 2/2/4 7/6/4 6/9/4
f 1/1/5 4/11/5 5/12/5 8/5/5
f 9/13/6 10/14/6 11/15/6 12/16/6
f 10/14/7 9/13/7 16/17/7 15/18/7
f 12/19/8 11/20/8 14/21/8 13/22/8
f 11/20/4 10/14/4 15/18/4 14/21/4
f 9/13/5 12/23/5 13/24/5 16/17/5
f 17/25/1 18/26/1 19/27/1 20/28/1
f 21/29/9 22/30/9 23/31/9 24/32/9
f 18/26/2 17/25/2 24/33/2 23/34/2
f 20/35/3 19/36/3 22/37/3 21/38/3
f 19/36/4 18/26/4 23/34/4 22/37/4
f 17/25/5 20/39/5 21/40/5 24/33/5
