# Blender v2.79 (sub 0) OBJ File: 'wheelmedium.blend'
# www.blender.org
mtllib wheelmedium.mtl
o wheelmedium
v 0.125000 0.343750 0.156250
v 0.125000 -0.343750 0.156250
v 0.125000 0.343750 -0.156250
v 0.125000 -0.343750 -0.156250
v -0.125000 0.343750 -0.156250
v -0.125000 -0.343750 -0.156250
v -0.125000 0.343750 0.156250
v -0.125000 -0.343750 0.156250
v 0.125000 0.156250 0.343750
v 0.125000 -0.156250 0.343750
v 0.125000 0.156250 -0.343750
v 0.125000 -0.156250 -0.343750
v -0.125000 0.156250 -0.343750
v -0.125000 -0.156250 -0.343750
v -0.125000 0.156250 0.343750
v -0.125000 -0.156250 0.343750
v 0.156250 0.156250 0.156250
v 0.156250 -0.156250 0.156250
v 0.156250 0.156250 -0.156250
v 0.156250 -0.156250 -0.156250
v -0.156250 0.156250 -0.156250
v -0.156250 -0.156250 -0.156250
v -0.156250 0.156250 0.156250
v -0.156250 -0.156250 0.156250
v 0.125000 0.281250 0.281250
v 0.125000 -0.281250 0.281250
v 0.125000 0.281250 -0.281250
v 0.125000 -0.281250 -0.281250
v -0.125000 0.281250 -0.281250
v -0.125000 -0.281250 -0.281250
v -0.125000 0.281250 0.281250
v -0.125000 -0.281250 0.281250
v 0.125000 0.156250 0.156250
v 0.125000 -0.156250 0.156250
v 0.125000 -0.156250 -0.156250
v 0.125000 0.156250 -0.156250
v 0.125000 0.281250 -0.156250
v 0.125000 0.281250 0.156250
v 0.125000 0.156250 0.281250
v 0.125000 -0.156250 0.281250
v 0.125000 -0.281250 0.156250
v 0.125000 -0.281250 -0.156250
v 0.125000 -0.156250 -0.281250
v 0.125000 0.156250 -0.281250
v -0.125000 0.156250 -0.156250
v -0.125000 0.281250 -0.156250
v -0.125000 0.281250 0.156250
v -0.125000 0.156250 0.156250
v -0.125000 0.156250 0.281250
v -0.125000 -0.156250 0.281250
v -0.125000 -0.156250 0.156250
v -0.125000 -0.281250 0.156250
v -0.125000 -0.281250 -0.156250
v -0.125000 -0.156250 -0.156250
v -0.125000 -0.156250 -0.281250
v -0.125000 0.156250 -0.281250
vt 0.968750 0.968750
vt 0.906250 0.968750
vt 0.906250 0.906250
vt 0.968750 0.906250
vt 0.906250 0.750000
vt 0.906250 0.687500
vt 0.968750 0.687500
vt 0.968750 0.750000
vt 0.750000 0.750000
vt 0.687500 0.750000
vt 0.687500 0.687500
vt 0.750000 0.687500
vt 0.750000 0.906250
vt 0.750000 0.968750
vt 0.687500 0.968750
vt 0.687500 0.906250
vt 0.750000 0.906250
vt 0.750000 0.968750
vt 0.687500 0.968750
vt 0.687500 0.906250
vt 0.875000 0.343750
vt 0.875000 0.281250
vt 1.000000 0.281250
vt 1.000000 0.343750
vt 0.875000 0.062500
vt 0.875000 0.000000
vt 1.000000 0.000000
vt 1.000000 0.062500
vt 0.968750 0.906250
vt 0.968750 0.968750
vt 0.906250 0.968750
vt 0.906250 0.906250
vt 0.968750 0.687500
vt 0.968750 0.750000
vt 0.906250 0.750000
vt 0.906250 0.687500
vt 0.687500 0.687500
vt 0.750000 0.687500
vt 0.750000 0.750000
vt 0.687500 0.750000
vt 0.875000 0.062500
vt 0.875000 -0.000000
vt 1.000000 -0.000000
vt 1.000000 0.062500
vt 1.000000 0.000000
vt 1.000000 0.062500
vt 0.875000 0.062500
vt 0.875000 0.000000
vt 1.000000 0.281250
vt 1.000000 0.343750
vt 0.875000 0.343750
vt 0.875000 0.281250
vt 1.000000 0.000000
vt 1.000000 0.062500
vt 0.875000 0.062500
vt 0.875000 0.000000
vt 0.875000 0.343750
vt 0.875000 0.281250
vt 1.000000 0.281250
vt 1.000000 0.343750
vt 1.000000 0.281250
vt 1.000000 0.343750
vt 0.875000 0.343750
vt 0.875000 0.281250
vt 0.906250 0.750000
vt 0.750000 0.750000
vt 0.750000 0.656250
vt 0.906250 0.656250
vt 0.906250 0.906250
vt 0.906250 0.750000
vt 1.000000 0.750000
vt 1.000000 0.906250
vt 0.875000 0.093750
vt 1.000000 0.093750
vt 1.000000 0.250000
vt 0.875000 0.250000
vt 1.000000 0.250000
vt 0.875000 0.250000
vt 0.875000 0.093750
vt 1.000000 0.093750
vt 0.312500 0.625000
vt 0.156250 0.625000
vt 0.156250 0.468750
vt 0.312500 0.468750
vt 1.000000 0.250000
vt 0.875000 0.250000
vt 0.875000 0.093750
vt 1.000000 0.093750
vt 0.312500 0.156250
vt 0.156250 0.156250
vt 0.156250 -0.000000
vt 0.312500 -0.000000
vt 0.156250 0.312500
vt 0.000000 0.312500
vt 0.000000 0.156250
vt 0.312500 0.312500
vt 1.000000 0.250000
vt 0.875000 0.250000
vt 0.468750 0.156250
vt 0.468750 0.312500
vt 0.906250 1.000000
vt 0.750000 1.000000
vt 0.750000 0.906250
vt 0.906250 0.906250
vt 0.750000 0.750000
vt 0.750000 0.906250
vt 0.656250 0.906250
vt 0.656250 0.750000
vt 0.750000 0.906250
vt 0.906250 0.906250
vt 0.906250 1.000000
vt 0.750000 1.000000
vt 0.906250 0.906250
vt 0.906250 0.750000
vt 1.000000 0.750000
vt 1.000000 0.906250
vt 0.750000 0.656250
vt 0.906250 0.656250
vt 0.906250 0.750000
vt 0.750000 0.750000
vt 0.750000 0.750000
vt 0.750000 0.906250
vt 0.656250 0.906250
vt 0.656250 0.750000
vt 0.875000 0.093750
vt 1.000000 0.093750
vn 1.0000 0.0000 0.0000
vn -1.0000 0.0000 0.0000
vn 0.0000 1.0000 0.0000
vn 0.0000 -0.0000 1.0000
vn 0.0000 0.0000 -1.0000
vn 0.0000 -1.0000 -0.0000
usemtl none.002
s off
f 37/1/1 36/2/1 44/3/1 27/4/1
f 42/5/1 28/6/1 43/7/1 35/8/1
f 40/9/1 26/10/1 41/11/1 34/12/1
f 38/13/1 25/14/1 39/15/1 33/16/1
f 46/17/2 29/18/2 56/19/2 45/20/2
f 25/21/3 38/22/3 47/23/3 31/24/3
f 39/25/4 25/26/4 31/27/4 49/28/4
f 47/29/2 48/30/2 49/31/2 31/32/2
f 50/33/2 51/34/2 52/35/2 32/36/2
f 53/37/2 54/38/2 55/39/2 30/40/2
f 56/41/5 29/42/5 27/43/5 44/44/5
f 29/45/3 46/46/3 37/47/3 27/48/3
f 43/49/5 28/50/5 30/51/5 55/52/5
f 28/53/6 42/54/6 53/55/6 30/56/6
f 26/57/4 40/58/4 50/59/4 32/60/4
f 41/61/6 26/62/6 32/63/6 52/64/6
s 1
f 2/65/1 4/66/1 35/67/1 34/68/1
f 12/69/1 11/70/1 36/71/1 35/72/1
f 6/73/6 4/74/6 2/75/6 8/76/6
f 12/77/5 14/78/5 13/79/5 11/80/5
f 23/81/3 17/82/3 19/83/3 21/84/3
f 16/85/4 10/86/4 9/87/4 15/88/4
f 24/89/4 18/90/4 17/91/4 23/92/4
f 18/90/1 20/93/1 19/94/1 17/95/1
f 20/93/5 22/96/5 21/84/5 19/83/5
f 7/97/4 47/23/4 38/22/4 1/98/4
f 22/96/6 20/93/6 18/90/6 24/89/6
f 22/96/2 24/89/2 23/99/2 21/100/2
f 7/101/2 5/102/2 45/103/2 48/104/2
f 15/88/3 9/87/3 39/25/3 49/28/3
f 9/105/1 10/106/1 34/107/1 33/108/1
f 3/109/1 1/110/1 33/111/1 36/112/1
f 16/113/2 15/114/2 48/115/2 51/116/2
f 6/117/2 8/118/2 51/119/2 54/120/2
f 13/121/2 14/122/2 54/123/2 45/124/2
f 7/97/3 1/98/3 3/125/3 5/126/3
f 11/80/3 13/79/3 56/41/3 44/44/3
f 3/125/5 37/47/5 46/46/5 5/126/5
f 14/78/6 12/77/6 43/49/6 55/52/6
f 4/74/5 6/73/5 53/55/5 42/54/5
f 10/86/6 16/85/6 50/59/6 40/58/6
f 8/76/4 2/75/4 41/61/4 52/64/4
