# Blender v2.79 (sub 0) OBJ File: ''
# www.blender.org
mtllib wheellargeflat.mtl
o wheellarge
v 0.187500 -0.156250 -0.218750
v 0.187500 0.156250 -0.218750
v 0.187500 0.156250 -0.156250
v 0.187500 -0.156250 -0.156250
v -0.187500 -0.218750 -0.156250
v -0.187500 -0.218750 0.156250
v -0.187500 -0.156250 0.156250
v -0.187500 -0.156250 -0.156250
v -0.187500 -0.156250 0.218750
v -0.187500 0.156250 0.218750
v -0.187500 0.156250 0.156250
v -0.187500 -0.156250 -0.218750
v 0.187500 0.218750 0.156250
v 0.187500 0.218750 -0.156250
v -0.187500 0.218750 -0.156250
v -0.187500 0.218750 0.156250
v -0.187500 0.156250 -0.156250
v -0.187500 0.156250 -0.218750
v 0.187500 -0.218750 -0.156250
v 0.187500 -0.218750 0.156250
v 0.187500 -0.156250 0.156250
v 0.187500 -0.156250 0.218750
v 0.187500 0.156250 0.218750
v 0.187500 0.156250 0.156250
vt 0.031250 0.000000
vt 0.187500 0.000000
vt 0.187500 0.031250
vt 0.031250 0.031250
vt 0.031250 0.000000
vt 0.187500 0.000000
vt 0.187500 0.031250
vt 0.031250 0.031250
vt 0.218750 0.031250
vt 0.218750 0.187500
vt 0.187500 0.187500
vt 0.312500 0.468750
vt 0.312500 0.437500
vt 0.500000 0.437500
vt 0.500000 0.468750
vt 0.312500 0.843750
vt 0.312500 0.687500
vt 0.500000 0.687500
vt 0.500000 0.843750
vt 0.312500 0.656250
vt 0.500000 0.656250
vt 0.500000 0.625000
vt 0.312500 0.625000
vt 0.187500 0.218750
vt 0.031250 0.218750
vt 0.031250 0.187500
vt -0.000000 0.187500
vt -0.000000 0.031250
vt 0.312500 0.406250
vt 0.500000 0.406250
vt 0.312500 0.250000
vt 0.500000 0.250000
vt 0.312500 0.218750
vt 0.500000 0.218750
vt 0.312500 0.218750
vt 0.500000 0.218750
vt 0.500000 0.062500
vt 0.312500 0.062500
vt 0.312500 0.031250
vt 0.500000 0.031250
vt 0.312500 0.000000
vt 0.500000 0.000000
vt 0.000000 0.187500
vt 0.000000 0.031250
vt 0.031250 0.187500
vt 0.187500 0.218750
vt 0.031250 0.218750
vt 0.187500 0.187500
vt 0.218750 0.031250
vt 0.218750 0.187500
vn 0.5774 -0.5774 -0.5774
vn 0.5774 0.5774 -0.5774
vn 0.9045 0.3015 -0.3015
vn 0.9045 -0.3015 -0.3015
vn -0.5774 -0.5774 -0.5774
vn -0.5774 -0.5774 0.5774
vn -0.9045 -0.3015 0.3015
vn -0.9045 -0.3015 -0.3015
vn -0.5774 0.5774 0.5774
vn -0.9045 0.3015 0.3015
vn 0.5774 0.5774 0.5774
vn -0.5774 0.5774 -0.5774
vn -0.9045 0.3015 -0.3015
vn 0.5774 -0.5774 0.5774
vn 0.9045 -0.3015 0.3015
vn 0.9045 0.3015 0.3015
usemtl none.005
s 1
f 1/1/1 2/2/2 3/3/3 4/4/4
f 5/5/5 6/6/6 7/7/7 8/8/8
f 9/9/6 10/10/9 11/11/10 7/7/7
f 1/12/1 4/13/4 8/14/8 12/15/5
f 13/16/11 14/17/2 15/18/12 16/19/9
f 15/18/12 14/17/2 3/20/3 17/21/13
f 1/12/1 12/15/5 18/22/12 2/23/2
f 16/24/9 15/25/12 17/26/13 11/11/10
f 18/27/12 12/28/5 8/8/8 17/26/13
f 4/13/4 19/29/1 5/30/5 8/14/8
f 5/30/5 19/29/1 20/31/14 6/32/6
f 20/31/14 21/33/15 7/34/7 6/32/6
f 7/34/7 21/33/15 22/35/14 9/36/6
f 10/37/9 9/36/6 22/35/14 23/38/11
f 23/38/11 24/39/16 11/40/10 10/37/9
f 24/39/16 13/41/11 16/42/9 11/40/10
f 3/20/3 2/23/2 18/22/12 17/21/13
f 7/7/7 11/11/10 17/26/13 8/8/8
f 20/43/14 19/44/1 4/4/4 21/45/15
f 23/46/11 22/47/14 21/45/15 24/48/16
f 14/49/2 13/50/11 24/48/16 3/3/3
f 4/4/4 3/3/3 24/48/16 21/45/15
