# Blender v2.79 (sub 0) OBJ File: ''
# www.blender.org
mtllib wheelmediumflat.mtl
o wheelmedium
v -0.156250 0.156250 0.156250
v 0.156250 0.156250 0.156250
v 0.156250 0.156250 -0.156250
v -0.156250 0.156250 -0.156250
v -0.156250 -0.156250 0.156250
v 0.156250 -0.156250 0.156250
v 0.156250 -0.156250 -0.156250
v -0.156250 -0.156250 -0.156250
vt 0.312500 0.625000
vt 0.156250 0.625000
vt 0.156250 0.468750
vt 0.312500 0.468750
vt 0.312500 0.156250
vt 0.156250 0.156250
vt 0.156250 -0.000000
vt 0.312500 -0.000000
vt 0.156250 0.312500
vt 0.000000 0.312500
vt 0.000000 0.156250
vt 0.312500 0.312500
vt 0.468750 0.156250
vt 0.468750 0.312500
vn 0.0000 1.0000 0.0000
vn 0.0000 -0.0000 1.0000
vn 1.0000 0.0000 0.0000
vn 0.0000 0.0000 -1.0000
vn 0.0000 -1.0000 -0.0000
vn -1.0000 0.0000 0.0000
usemtl none.002
s 1
f 1/1/1 2/2/1 3/3/1 4/4/1
f 5/5/2 6/6/2 2/7/2 1/8/2
f 6/6/3 7/9/3 3/10/3 2/11/3
f 7/9/4 8/12/4 4/4/4 3/3/4
f 8/12/5 7/9/5 6/6/5 5/5/5
f 8/12/6 5/5/6 1/13/6 4/14/6
