# Blender v2.79 (sub 0) OBJ File: ''
# www.blender.org
mtllib wheelsmall.mtl
o wheelsmall
v 0.093750 -0.218750 0.156250
v 0.093750 -0.218750 -0.156250
v 0.093750 -0.156250 -0.156250
v 0.093750 -0.156250 0.156250
v -0.093750 -0.218750 -0.156250
v -0.093750 -0.218750 0.156250
v -0.093750 -0.156250 0.156250
v -0.093750 -0.156250 -0.156250
v -0.093750 0.218750 0.156250
v -0.093750 0.218750 -0.156250
v -0.093750 0.156250 -0.156250
v -0.093750 0.156250 0.156250
v -0.125000 0.093750 0.093750
v 0.125000 0.093750 0.093750
v 0.125000 0.093750 -0.093750
v -0.125000 0.093750 -0.093750
v 0.093750 -0.156250 0.218750
v -0.093750 -0.156250 0.218750
v -0.093750 0.156250 0.218750
v 0.093750 0.156250 0.218750
v 0.093750 0.156250 0.156250
v 0.093750 0.218750 0.156250
v -0.125000 -0.093750 0.093750
v 0.125000 -0.093750 0.093750
v 0.125000 -0.093750 -0.093750
v -0.125000 -0.093750 -0.093750
v 0.093750 -0.156250 -0.218750
v -0.093750 -0.156250 -0.218750
v -0.093750 0.156250 -0.218750
v 0.093750 0.156250 -0.218750
v 0.093750 0.218750 -0.156250
v 0.093750 0.156250 -0.156250
vt 0.968750 1.000000
vt 0.812500 1.000000
vt 0.812500 0.968750
vt 0.968750 0.968750
vt 0.781250 0.968750
vt 0.781250 0.812500
vt 0.812500 0.812500
vt 0.812500 0.968750
vt 1.000000 0.812500
vt 1.000000 0.968750
vt 0.968750 0.968750
vt 0.968750 0.812500
vt 0.906250 0.031250
vt 1.000000 0.031250
vt 1.000000 0.187500
vt 0.906250 0.187500
vt 0.093750 0.281250
vt 0.218750 0.281250
vt 0.218750 0.375000
vt 0.093750 0.375000
vt 1.000000 0.218750
vt 0.906250 0.218750
vt 0.906250 0.187500
vt 1.000000 0.187500
vt 1.000000 0.218750
vt 0.906250 0.218750
vt 1.000000 0.000000
vt 1.000000 0.031250
vt 0.906250 0.031250
vt 0.906250 0.000000
vt 0.906250 0.187500
vt 1.000000 0.187500
vt 1.000000 0.218750
vt 0.906250 0.218750
vt 0.093750 0.187500
vt 0.218750 0.187500
vt 0.218750 0.093750
vt 0.312500 0.093750
vt 0.312500 0.187500
vt 0.093750 0.093750
vt 0.093750 -0.000000
vt 0.218750 -0.000000
vt 1.000000 0.187500
vt 0.906250 0.187500
vt 0.906250 0.031250
vt 1.000000 0.031250
vt 0.000000 0.187500
vt 0.000000 0.093750
vt 0.968750 1.000000
vt 0.812500 1.000000
vt 0.812500 0.781250
vt 0.968750 0.781250
vt 0.906250 0.031250
vt 0.906250 0.000000
vt 1.000000 0.000000
vt 1.000000 0.031250
vt 0.906250 0.000000
vt 1.000000 0.000000
vt 1.000000 0.218750
vt 0.906250 0.218750
vt 0.906250 0.000000
vt 1.000000 0.000000
vt 0.812500 0.781250
vt 0.968750 0.781250
vt 0.968750 0.812500
vt 0.812500 0.812500
vt 1.000000 0.812500
vt 1.000000 0.968750
vt 0.781250 0.968750
vt 0.781250 0.812500
vn 0.7071 0.0000 0.7071
vn 0.7071 0.0000 -0.7071
vn 0.9045 -0.3015 -0.3015
vn 0.9045 -0.3015 0.3015
vn -0.7071 0.0000 -0.7071
vn -0.7071 0.0000 0.7071
vn -0.9045 -0.3015 0.3015
vn -0.9045 -0.3015 -0.3015
vn -0.9045 0.3015 -0.3015
vn -0.9045 0.3015 0.3015
vn 0.0000 -1.0000 -0.0000
vn 0.0000 1.0000 0.0000
vn 0.7071 -0.7071 0.0000
vn -0.7071 -0.7071 0.0000
vn -0.7071 0.7071 0.0000
vn 0.7071 0.7071 0.0000
vn 0.9045 0.3015 0.3015
vn 0.0000 -0.0000 1.0000
vn 1.0000 0.0000 0.0000
vn 0.0000 0.0000 -1.0000
vn -1.0000 0.0000 0.0000
vn 0.9045 0.3015 -0.3015
usemtl none.001
s 1
f 1/1/1 2/2/2 3/3/3 4/4/4
f 5/5/5 6/6/6 7/7/7 8/8/8
f 9/9/6 10/10/5 11/11/9 12/12/10
f 5/13/11 2/14/11 1/15/11 6/16/11
f 13/17/12 14/18/12 15/19/12 16/20/12
f 7/21/7 4/22/4 17/23/13 18/24/14
f 1/15/1 4/25/4 7/26/7 6/16/6
f 12/27/10 19/28/15 20/29/16 21/30/17
f 22/31/1 9/32/6 12/33/10 21/34/17
f 23/35/18 24/36/18 14/18/18 13/17/18
f 24/36/19 25/37/19 15/38/19 14/39/19
f 25/37/20 26/40/20 16/41/20 15/42/20
f 27/43/20 28/44/20 29/45/20 30/46/20
f 26/40/11 25/37/11 24/36/11 23/35/11
f 26/40/21 23/35/21 13/47/21 16/48/21
f 29/49/15 28/50/14 8/8/8 11/11/9
f 18/51/14 19/52/15 12/12/10 7/7/7
f 31/53/2 32/54/22 11/55/9 10/56/5
f 30/46/16 29/45/15 11/57/9 32/58/22
f 28/44/14 27/43/13 3/59/3 8/60/8
f 5/13/5 8/61/8 3/62/3 2/14/2
f 18/24/18 17/23/18 20/29/18 19/28/18
f 31/63/2 22/64/1 21/65/17 32/66/22
f 20/67/16 17/68/13 4/4/4 21/65/17
f 27/69/13 30/70/16 32/66/22 3/3/3
f 8/8/8 7/7/7 12/12/10 11/11/9
f 3/3/3 32/66/22 21/65/17 4/4/4
f 9/32/12 22/31/12 31/53/12 10/56/12
